<svg id="Icons" xmlns="http://www.w3.org/2000/svg" width="59.699" height="49.749" viewBox="0 0 59.699 49.749">
  <g id="Black">
    <path id="Twitter" d="M359.7,169.889a23.924,23.924,0,0,1-7.033,1.976,12.531,12.531,0,0,0,5.386-6.946,24.123,24.123,0,0,1-7.782,3.043A12.079,12.079,0,0,0,341.33,164a12.406,12.406,0,0,0-12.243,12.558,12.812,12.812,0,0,0,.315,2.86,34.483,34.483,0,0,1-25.247-13.126,12.787,12.787,0,0,0-1.657,6.321,12.642,12.642,0,0,0,5.449,10.453,12.026,12.026,0,0,1-5.55-1.567v.154a12.486,12.486,0,0,0,9.829,12.314,11.68,11.68,0,0,1-3.227.442,11.9,11.9,0,0,1-2.306-.223,12.294,12.294,0,0,0,11.441,8.717,24.184,24.184,0,0,1-15.211,5.379,24.511,24.511,0,0,1-2.922-.173,34.1,34.1,0,0,0,18.775,5.638c22.531,0,34.848-19.134,34.848-35.731,0-.546-.01-1.092-.032-1.628a25.138,25.138,0,0,0,6.108-6.5" transform="translate(-300 -164)" fill="#707070" fill-rule="evenodd"/>
  </g>
</svg>
