<svg id="Icons" xmlns="http://www.w3.org/2000/svg" width="49.616" height="49.616" viewBox="0 0 49.616 49.616">
  <g id="Color-" transform="translate(0 0)">
    <path id="Facebook" d="M226.5,209.616H202.738A2.738,2.738,0,0,1,200,206.878V162.738A2.738,2.738,0,0,1,202.738,160h44.14a2.738,2.738,0,0,1,2.738,2.738v44.139a2.739,2.739,0,0,1-2.738,2.739H234.235V190.4h6.449l.966-7.488h-7.415v-4.781c0-2.168.6-3.645,3.711-3.645l3.965,0v-6.7a53.009,53.009,0,0,0-5.778-.3c-5.717,0-9.631,3.49-9.631,9.9v5.522h-6.466V190.4H226.5v19.214Z" transform="translate(-200 -160)" fill="#707070" fill-rule="evenodd"/>
  </g>
</svg>
