<svg id="Icons" xmlns="http://www.w3.org/2000/svg" width="49.616" height="49.616" viewBox="0 0 49.616 49.616">
  <g id="Black">
    <path id="Instagram" d="M524.808,160c-6.737,0-7.582.029-10.228.149a18.207,18.207,0,0,0-6.022,1.153,12.684,12.684,0,0,0-7.255,7.255,18.2,18.2,0,0,0-1.153,6.022c-.121,2.646-.149,3.491-.149,10.228s.029,7.582.149,10.228a18.2,18.2,0,0,0,1.153,6.022,12.685,12.685,0,0,0,7.255,7.255,18.209,18.209,0,0,0,6.022,1.153c2.646.121,3.491.149,10.228.149s7.582-.029,10.228-.149a18.208,18.208,0,0,0,6.022-1.153,12.685,12.685,0,0,0,7.256-7.255,18.208,18.208,0,0,0,1.153-6.022c.121-2.646.149-3.491.149-10.228s-.029-7.582-.149-10.228a18.208,18.208,0,0,0-1.153-6.022,12.685,12.685,0,0,0-7.256-7.255,18.206,18.206,0,0,0-6.022-1.153C532.39,160.029,531.546,160,524.808,160Zm0,4.47c6.624,0,7.409.025,10.025.145a13.725,13.725,0,0,1,4.607.854,8.216,8.216,0,0,1,4.708,4.708,13.725,13.725,0,0,1,.854,4.606c.119,2.616.145,3.4.145,10.025s-.025,7.409-.145,10.025a13.725,13.725,0,0,1-.854,4.606,8.215,8.215,0,0,1-4.708,4.708,13.724,13.724,0,0,1-4.607.854c-2.616.119-3.4.145-10.025.145s-7.409-.025-10.025-.145a13.725,13.725,0,0,1-4.607-.854,8.216,8.216,0,0,1-4.708-4.708,13.724,13.724,0,0,1-.854-4.606c-.119-2.616-.145-3.4-.145-10.025s.025-7.409.145-10.025a13.724,13.724,0,0,1,.854-4.606,8.216,8.216,0,0,1,4.708-4.708,13.726,13.726,0,0,1,4.607-.854C517.4,164.5,518.184,164.47,524.808,164.47Zm0,7.6a12.739,12.739,0,1,0,12.739,12.739A12.739,12.739,0,0,0,524.808,172.069Zm0,21.009a8.269,8.269,0,1,1,8.269-8.269A8.269,8.269,0,0,1,524.808,193.077Zm16.22-21.512a2.977,2.977,0,1,1-2.977-2.977A2.977,2.977,0,0,1,541.028,171.565Z" transform="translate(-500 -160)" fill="#707070" fill-rule="evenodd"/>
  </g>
</svg>
