<svg width="41" height="41" viewBox="0 0 41 41" fill="none" xmlns="http://www.w3.org/2000/svg">
<rect width="41" height="41" rx="5" fill="#FFCFFA"/>
<path d="M13.0629 32.6724C11.2987 33.3802 9.52153 32.903 9.09345 31.6066C8.66538 30.3102 9.74851 28.6854 11.5127 27.9776C13.2769 27.2698 15.0541 27.747 15.4821 29.0434C15.9102 30.3399 14.8271 31.9646 13.0629 32.6724ZM27.4873 30.0224C25.7231 30.7302 23.9459 30.253 23.5179 28.9566C23.0898 27.6601 24.1729 26.0354 25.9371 25.3276C27.7013 24.6198 29.4785 25.097 29.9065 26.3934C30.3346 27.6898 29.2515 29.3146 27.4873 30.0224Z" stroke="#E4A4DD" stroke-width="2" stroke-linecap="square"/>
<path d="M15 29V13L30 9V26.3333" stroke="#E4A4DD" stroke-width="2" stroke-linecap="round"/>
</svg>
