<svg width="302" height="82" viewBox="0 0 302 82" fill="none" xmlns="http://www.w3.org/2000/svg">
<path d="M24.192 14.952C27.696 14.952 30.768 15.456 33.408 16.464C36.096 17.424 37.44 18.744 37.44 20.424C37.44 22.104 36.792 24.192 35.496 26.688C34.248 29.136 33.192 30.36 32.328 30.36C32.088 30.36 31.8 30.24 31.464 30C31.176 29.712 30.456 29.424 29.304 29.136C28.2 28.8 27.24 28.632 26.424 28.632C23.64 28.632 21.384 29.616 19.656 31.584C17.976 33.552 17.136 36.576 17.136 40.656C17.136 44.688 18 47.688 19.728 49.656C21.504 51.624 23.736 52.608 26.424 52.608C27.528 52.608 28.752 52.464 30.096 52.176C31.488 51.84 32.472 51.384 33.048 50.808C33.144 50.712 33.336 50.664 33.624 50.664C33.912 50.664 34.44 51.216 35.208 52.32C36.024 53.376 36.768 54.792 37.44 56.568C38.112 58.296 38.448 59.64 38.448 60.6C38.448 62.472 37.008 63.96 34.128 65.064C31.248 66.168 27.84 66.72 23.904 66.72C17.568 66.72 12.36 64.488 8.28 60.024C4.2 55.56 2.16 49.272 2.16 41.16C2.16 33 4.248 26.592 8.424 21.936C12.648 17.28 17.904 14.952 24.192 14.952Z" fill="#164C69"/>
<path d="M109.003 16.536C109.003 16.296 110.035 16.08 112.099 15.888C114.211 15.648 115.939 15.528 117.283 15.528C122.611 15.528 125.395 16.224 125.635 17.616L131.827 49.296L137.659 17.616C137.947 16.224 140.923 15.528 146.587 15.528C147.979 15.528 149.731 15.624 151.843 15.816C153.955 16.008 155.011 16.224 155.011 16.464L142.267 64.128C142.075 64.896 140.659 65.4 138.019 65.64C133.939 66.072 130.219 66.168 126.859 65.928C123.547 65.64 121.795 65.16 121.603 64.488L109.003 16.536ZM164.165 53.616V27.984H159.053C158.237 27.984 157.661 26.952 157.325 24.888C157.181 23.88 157.109 22.848 157.109 21.792C157.109 20.736 157.181 19.704 157.325 18.696C157.661 16.632 158.237 15.6 159.053 15.6H183.245C184.061 15.6 184.613 16.632 184.901 18.696C185.093 19.704 185.189 20.736 185.189 21.792C185.189 22.848 185.093 23.88 184.901 24.888C184.613 26.952 184.061 27.984 183.245 27.984H178.421V53.616H183.461C184.277 53.616 184.853 54.648 185.189 56.712C185.381 57.72 185.477 58.752 185.477 59.808C185.477 60.864 185.381 61.896 185.189 62.904C184.853 64.968 184.277 66 183.461 66H159.197C158.381 66 157.829 64.968 157.541 62.904C157.349 61.896 157.253 60.864 157.253 59.808C157.253 58.752 157.349 57.72 157.541 56.712C157.829 54.648 158.381 53.616 159.197 53.616H164.165ZM190.28 62.688V19.488C190.28 18.288 190.568 17.352 191.144 16.68C191.768 15.96 192.56 15.6 193.52 15.6H205.544C213.176 15.6 218.96 17.52 222.896 21.36C226.88 25.2 228.872 31.248 228.872 39.504C228.872 57.168 221.336 66 206.264 66H193.952C191.504 66 190.28 64.896 190.28 62.688ZM204.104 29.28V50.808C204.104 51.816 204.176 52.464 204.32 52.752C204.464 52.992 204.896 53.112 205.616 53.112C208.256 53.112 210.248 52.128 211.592 50.16C212.984 48.192 213.68 44.928 213.68 40.368C213.68 35.76 212.96 32.76 211.52 31.368C210.128 29.976 207.896 29.28 204.824 29.28H204.104ZM256.679 64.776C256.679 65.592 254.231 66 249.335 66C244.487 66 242.063 65.592 242.063 64.776V29.28L234.287 29.352C232.847 29.352 232.127 27.048 232.127 22.44C232.127 20.856 232.271 19.32 232.559 17.832C232.895 16.344 233.447 15.6 234.215 15.6H253.943C254.759 15.6 255.407 15.792 255.887 16.176C256.415 16.512 256.679 16.944 256.679 17.472V64.776ZM269.081 53.472C272.681 54.192 275.393 54.552 277.217 54.552C279.041 54.552 280.673 53.976 282.113 52.824C283.601 51.672 284.465 49.872 284.705 47.424C282.305 48.096 280.385 48.432 278.945 48.432C273.905 48.432 270.017 47.04 267.281 44.256C264.545 41.424 263.177 37.44 263.177 32.304C263.177 27.12 264.737 22.92 267.857 19.704C271.025 16.488 275.345 14.88 280.817 14.88C286.289 14.88 290.585 16.8 293.705 20.64C296.873 24.48 298.457 30.144 298.457 37.632C298.457 46.992 296.777 54.192 293.417 59.232C290.105 64.224 285.161 66.72 278.585 66.72C270.425 66.72 266.345 65.352 266.345 62.616C266.345 61.176 266.633 59.304 267.209 57C267.785 54.648 268.409 53.472 269.081 53.472ZM280.673 27.84C279.137 27.84 277.937 28.344 277.073 29.352C276.257 30.312 275.849 31.56 275.849 33.096C275.849 34.632 276.329 35.88 277.289 36.84C278.297 37.752 279.569 38.208 281.105 38.208C282.641 38.208 283.889 37.872 284.849 37.2C284.849 33.888 284.537 31.512 283.913 30.072C283.289 28.584 282.209 27.84 280.673 27.84Z" fill="#F56259"/>
<path d="M50.792 14.7499L52.4817 20.157L56.537 16.7776L54.1714 12.0463C54.1714 9.79335 53.4565 6.6001 52.4817 5.62537C51.4678 4.61163 44.033 11.0326 45.0469 12.0463C45.8351 12.8345 49.3275 13.9613 50.792 14.7499Z" fill="url(#paint0_linear)"/>
<path d="M51.1362 6.65729C49.3522 7.70916 45.9659 10.1283 46.6927 11.3898C47.6011 12.9668 52.761 6.08338 51.1362 6.65729Z" fill="#03324A"/>
<path d="M87.9444 14.0953L82.9462 16.7618L87.0213 20.1174L91.2297 16.9126C93.4433 16.4933 96.4477 15.1966 97.224 14.0574C98.0313 12.8726 90.3389 6.76268 89.5315 7.94748C88.9038 8.86865 88.4466 12.5097 87.9444 14.0953Z" fill="url(#paint1_linear)"/>
<path d="M68.5403 69.3628L67.7683 63.9255L73.5033 64.3703L73.2672 69.6406C74.3123 71.4994 75.0591 74.547 74.5095 75.9144C73.9379 77.3366 63.3192 76.335 63.8908 74.9128C64.3352 73.8071 67.4012 70.8595 68.5403 69.3628Z" fill="#164C69"/>
<path d="M72.6481 75.8405C70.3269 76.0035 65.7248 75.9643 65.8864 74.5036C66.0884 72.6777 74.584 75.3752 72.6481 75.8405Z" fill="#03324A"/>
<path d="M69.5601 11.0174L66.0357 15.4526L71.1094 16.9096L73.6951 12.2949C75.5591 11.0294 77.7995 8.64431 78.0584 7.29028C78.3276 5.88206 68.8392 3.3375 68.57 4.74573C68.3606 5.8406 69.39 9.36294 69.5601 11.0174Z" fill="#164C69"/>
<path d="M70.1342 5.42687C69.3789 7.78919 75.2805 8.93339 76.1808 7.78923C77.3062 6.35903 68.9966 4.1325 70.1342 5.42687Z" fill="#03324A"/>
<ellipse cx="69.379" cy="39.4199" rx="27.0356" ry="26.6976" fill="url(#paint2_linear)"/>
<path d="M39.9234 39.1875C39.9234 39.1875 44.7723 40.7109 45.4165 40.5723C46.0608 40.4338 45.0469 36.0405 44.6544 35.3488C44.2619 34.6572 39.3843 34.8934 39.3843 34.8934C37.4634 33.7161 34.3672 32.657 33.0268 32.9788C31.6327 33.3135 33.2221 43.0077 34.6163 42.6731C35.7002 42.4129 38.4859 40.0241 39.9234 39.1875Z" fill="url(#paint3_linear)"/>
<path d="M33.5728 34.6272C33.5374 36.6979 33.8304 40.8493 35.2858 40.8888C37.105 40.9383 33.9325 32.942 33.5728 34.6272Z" fill="url(#paint4_linear)"/>
<path d="M91.3432 62.637C91.3432 62.637 89.9945 56.7952 89.4935 56.2292C88.9925 55.6632 85.4287 59.3955 85.0015 60.2186C84.5743 61.0417 87.6002 65.8282 87.6002 65.8282C87.5929 68.496 88.3726 72.2794 89.4466 73.4365C90.5636 74.64 98.7996 67.0592 97.6826 65.8557C96.8142 64.92 92.9588 63.5752 91.3432 62.637Z" fill="url(#paint5_linear)"/>
<path d="M90.6887 71.8687C92.6633 70.6285 96.4129 67.7742 95.614 66.2781C94.6152 64.4081 88.8914 72.5434 90.6887 71.8687Z" fill="url(#paint6_linear)"/>
<path d="M100.076 36.1308C100.076 36.1308 95.2613 34.5018 94.6142 34.6263C93.9672 34.7508 94.8848 39.1652 95.2621 39.8652C95.6395 40.5653 100.521 40.4356 100.521 40.4356C102.416 41.6546 105.488 42.7811 106.835 42.4886C108.236 42.1844 106.859 32.4578 105.458 32.762C104.368 32.9984 101.531 35.3258 100.076 36.1308Z" fill="url(#paint7_linear)"/>
<path d="M106.325 40.8287C106.406 38.7593 106.204 34.6026 104.749 34.5312C102.932 34.442 105.929 42.5057 106.325 40.8287Z" fill="url(#paint8_linear)"/>
<path d="M50.8359 62.5052C50.8359 62.5052 54.5579 58.4072 54.7148 57.7056C54.8717 57.0041 50.0592 55.9833 49.1952 56.0531C48.3312 56.123 46.3383 61.0602 46.3383 61.0602C44.2957 62.4192 41.8335 64.9961 41.5401 66.4713C41.235 68.0056 51.5586 70.8992 51.8638 69.365C52.101 68.1721 51.0078 64.3137 50.8359 62.5052Z" fill="url(#paint9_linear)"/>
<path d="M43.4213 66.6904C45.4553 67.6796 49.6992 69.3025 50.4029 67.88C51.2824 66.1019 41.9171 65.5578 43.4213 66.6904Z" fill="url(#paint10_linear)"/>
<path d="M69.041 27.9298C73.9074 27.6595 74.4481 27.9298 76.8137 28.9437C81.207 28.9437 81.8829 30.6334 83.9106 34.0129C84.9244 35.7027 84.9244 45.841 80.8691 47.1928C76.8137 48.5445 76.4758 46.1789 73.4343 48.2066C70.3928 50.2343 64.3098 53.9517 57.8889 49.5584C51.4679 45.1651 58.2268 38.0683 58.9027 35.7026C59.5786 33.337 62.958 28.2678 69.041 27.9298Z" fill="url(#paint11_linear)" stroke="#0B3F5B" stroke-opacity="0.33"/>
<defs>
<linearGradient id="paint0_linear" x1="61.9441" y1="26.2401" x2="45.7228" y2="4.61163" gradientUnits="userSpaceOnUse">
<stop offset="0.197917" stop-color="#164C69"/>
<stop offset="0.63625" stop-color="#164C69"/>
<stop offset="0.82" stop-color="#0B3F5B" stop-opacity="0.91"/>
</linearGradient>
<linearGradient id="paint1_linear" x1="96.7524" y1="6.63928" x2="81.207" y2="24.8883" gradientUnits="userSpaceOnUse">
<stop offset="0.767582" stop-color="#12435E"/>
<stop offset="0.9999" stop-color="#002A40" stop-opacity="0.0208333"/>
<stop offset="1" stop-color="#002940" stop-opacity="0"/>
</linearGradient>
<linearGradient id="paint2_linear" x1="82.2208" y1="-3.49905" x2="54.5094" y2="92.8152" gradientUnits="userSpaceOnUse">
<stop offset="0.151042" stop-color="#226487"/>
<stop offset="0.513025" stop-color="#164C69"/>
<stop offset="0.707058" stop-color="#084261"/>
<stop offset="0.802454" stop-color="#052637" stop-opacity="0"/>
</linearGradient>
<linearGradient id="paint3_linear" x1="47.4125" y1="37.3923" x2="32.8809" y2="37.3923" gradientUnits="userSpaceOnUse">
<stop offset="0.282969" stop-color="#0E4563"/>
<stop offset="1" stop-color="#104866"/>
</linearGradient>
<linearGradient id="paint4_linear" x1="32.6033" y1="36.8377" x2="37.6122" y2="36.3785" gradientUnits="userSpaceOnUse">
<stop stop-color="#03324A"/>
<stop offset="1" stop-color="#03324A" stop-opacity="0"/>
</linearGradient>
<linearGradient id="paint5_linear" x1="85.3451" y1="56.1705" x2="94.5673" y2="70.2955" gradientUnits="userSpaceOnUse">
<stop offset="0.282969" stop-color="#0E4563"/>
<stop offset="1" stop-color="#104866"/>
</linearGradient>
<linearGradient id="paint6_linear" x1="93.332" y1="71.487" x2="89.7187" y2="66.9449" gradientUnits="userSpaceOnUse">
<stop stop-color="#03324A"/>
<stop offset="1" stop-color="#03324A" stop-opacity="0"/>
</linearGradient>
<linearGradient id="paint7_linear" x1="92.5493" y1="37.762" x2="107.077" y2="38.0794" gradientUnits="userSpaceOnUse">
<stop offset="0.282969" stop-color="#0E4563"/>
<stop offset="1" stop-color="#104866"/>
</linearGradient>
<linearGradient id="paint8_linear" x1="107.343" y1="38.64" x2="102.325" y2="38.9897" gradientUnits="userSpaceOnUse">
<stop stop-color="#03324A"/>
<stop offset="1" stop-color="#03324A" stop-opacity="0"/>
</linearGradient>
<linearGradient id="paint9_linear" x1="52.4776" y1="54.2644" x2="45.7933" y2="68.6262" gradientUnits="userSpaceOnUse">
<stop offset="0.282969" stop-color="#0E4563"/>
<stop offset="1" stop-color="#104866"/>
</linearGradient>
<linearGradient id="paint10_linear" x1="45.1672" y1="68.6687" x2="47.0187" y2="63.5056" gradientUnits="userSpaceOnUse">
<stop stop-color="#03324A"/>
<stop offset="1" stop-color="#03324A" stop-opacity="0"/>
</linearGradient>
<linearGradient id="paint11_linear" x1="65.6616" y1="30.9713" x2="81.207" y2="51.9238" gradientUnits="userSpaceOnUse">
<stop stop-color="#12435E"/>
<stop offset="0.446984" stop-color="#12435E" stop-opacity="0.365939"/>
<stop offset="1" stop-color="#12435E"/>
</linearGradient>
</defs>
</svg>
