<svg width="509" height="542" viewBox="0 0 509 542" fill="none" xmlns="http://www.w3.org/2000/svg">
<path d="M160.934 434.301C156.368 435.974 141.185 438.881 113.79 438.881C100.79 438.461 78.4174 437.382 69.6452 434.301C63.8415 431.787 57.8664 429.673 57.4305 414.491C57.0274 400.45 53.3198 388.21 48.3792 378.139C42.0014 362.789 25.9295 363.008 21.8579 347H209.579C205.078 362.131 188.086 365.431 181.935 378.139C174.979 392.51 173.885 407.386 173.371 414.386L173.363 414.491C172.113 428.015 169.946 431 160.934 434.301Z" fill="#F2F2F2"/>
<path d="M159.934 22.6987C155.368 21.0258 140.185 18.1187 112.79 18.1187C99.7898 18.5393 77.4174 19.6179 68.6452 22.6987C62.8415 25.2133 56.8664 27.3272 56.4305 42.5093C56.0274 56.5498 52.3198 68.7898 47.3792 78.8613C41.0014 94.2115 24.9295 93.9922 20.8579 110H208.579C204.078 94.8693 187.086 91.5688 180.935 78.8613C173.979 64.4905 172.885 49.6135 172.371 42.6138L172.363 42.5093C171.113 28.9853 168.946 26.0004 159.934 22.6987Z" fill="#F2F2F2"/>
<path d="M145.418 88H84C55.9974 88 41.9961 88 31.3005 93.4497C21.8924 98.2433 14.2433 105.892 9.44967 115.3C4 125.996 4 139.997 4 168V285.427C4 313.43 4 327.431 9.44967 338.127C14.2433 347.535 21.8924 355.184 31.3005 359.978C41.9961 365.427 55.9974 365.427 84 365.427H162.667C174.517 365.427 180.442 365.427 185.366 364.428C205.044 360.433 220.423 345.053 224.418 325.375C225.418 320.451 225.418 314.526 225.418 302.676V168C225.418 139.997 225.418 125.996 219.968 115.3C215.175 105.892 207.526 98.2433 198.118 93.4497C187.422 88 173.421 88 145.418 88Z" fill="#F2F2F2"/>
<rect x="10.2036" y="95.4175" width="209.011" height="262.593" rx="46.5" stroke="white" stroke-width="3" style="mix-blend-mode:soft-light"/>
<rect x="10.7036" y="95.9175" width="208.011" height="261.593" rx="46" fill="url(#paint0_linear)" stroke="#161616" stroke-width="2"/>
<rect x="11.7036" y="96.9175" width="206.011" height="259.593" rx="45" fill="url(#paint1_radial)" fill-opacity="0.5"/>
<rect x="11.7036" y="96.9175" width="206.011" height="259.593" rx="45" fill="url(#paint2_radial)" fill-opacity="0.5"/>
<rect x="11.7036" y="96.9175" width="206.011" height="259.593" rx="45" fill="url(#paint3_radial)" fill-opacity="0.5"/>
<rect x="11.7036" y="96.9175" width="206.011" height="259.593" rx="45" fill="url(#paint4_radial)" fill-opacity="0.5"/>
<rect x="11.7036" y="96.9175" width="206.011" height="259.593" rx="45" fill="url(#paint5_radial)"/>
<rect x="11.7036" y="96.9175" width="206.011" height="259.593" rx="45" fill="url(#paint6_radial)"/>
<rect x="11.7036" y="96.9175" width="206.011" height="259.593" rx="45" fill="url(#paint7_radial)"/>
<rect x="11.7036" y="96.9175" width="206.011" height="259.593" rx="45" fill="url(#paint8_radial)"/>
<g filter="url(#filter0_f)">
<rect x="21.4038" y="110.003" width="186.611" height="243.058" rx="45" fill="url(#paint9_linear)"/>
</g>
<rect x="11.7036" y="96.9175" width="206.011" height="259.593" rx="45" fill="url(#paint10_radial)"/>
<rect x="11.7036" y="96.9175" width="206.011" height="259.593" rx="45" fill="url(#paint11_radial)"/>
<rect x="11.7036" y="96.9175" width="206.011" height="259.593" rx="45" fill="url(#paint12_radial)"/>
<rect x="11.7036" y="96.9175" width="206.011" height="259.593" rx="45" fill="url(#paint13_radial)"/>
<rect x="11.7036" y="96.9175" width="206.011" height="259.593" rx="45" fill="url(#paint14_radial)"/>
<rect x="11.7036" y="96.9175" width="206.011" height="259.593" rx="45" fill="url(#paint15_radial)"/>
<rect x="11.7036" y="96.9175" width="206.011" height="259.593" rx="45" fill="url(#paint16_radial)"/>
<rect x="11.7036" y="96.9175" width="206.011" height="259.593" rx="45" fill="url(#paint17_radial)"/>
<rect x="18.4546" y="107.572" width="189.56" height="245.489" rx="45" fill="url(#paint18_linear)"/>
<rect x="221.778" y="143" width="13.2221" height="55.2454" rx="6.61103" fill="#F2F2F2"/>
<rect x="21" y="110" width="188" height="242" rx="40" fill="#18191B"/>
<circle cx="98.5" cy="340.5" r="2.5" fill="#F5F4F4"/>
<circle cx="112.5" cy="340.5" r="2.5" fill="#ACACAC"/>
<circle cx="126.5" cy="340.5" r="2.5" fill="#ACACAC"/>
<path d="M45.3545 204.335H42.9229V211H43.8164V208.363H45.3887L46.6143 211H47.6348L46.2773 208.192C47.0195 207.924 47.5176 207.245 47.5176 206.332C47.5176 205.121 46.6826 204.335 45.3545 204.335ZM43.8164 207.592V205.116H45.2373C46.0869 205.116 46.5898 205.575 46.5898 206.381C46.5898 207.177 46.0967 207.592 45.2031 207.592H43.8164ZM51.7283 211.083C53.0271 211.083 53.6473 210.277 53.7254 209.73H52.8172C52.7293 210.048 52.324 210.336 51.7234 210.336C50.8689 210.336 50.41 209.716 50.41 208.92V208.661H53.7937V208.041C53.7937 206.659 52.9051 205.78 51.66 205.78C50.4295 205.78 49.5311 206.645 49.5311 208.041V208.822C49.5311 210.209 50.3465 211.083 51.7283 211.083ZM50.41 208.021V207.938C50.41 207.084 50.9129 206.522 51.6648 206.522C52.4168 206.522 52.9148 207.084 52.9148 207.938V208.021H50.41ZM56.398 211H57.2818V206.596H58.4635V205.878H57.2721V205.434C57.2721 204.823 57.5309 204.647 58.1363 204.647C58.2633 204.647 58.5172 204.657 58.5953 204.667V203.954C58.4928 203.944 58.2389 203.925 58.0094 203.925C56.8619 203.925 56.398 204.379 56.398 205.365V205.878H55.5338V206.596H56.398V211ZM60.6527 211H61.5414V207.826C61.5414 207.128 61.9906 206.586 62.8939 206.586C63.0502 206.586 63.226 206.596 63.309 206.615V205.81C63.2064 205.795 63.099 205.785 62.9867 205.785C62.0785 205.785 61.7074 206.317 61.5805 206.654H61.5365V205.863H60.6527V211ZM67.1193 211.083C68.4182 211.083 69.0383 210.277 69.1164 209.73H68.2082C68.1203 210.048 67.715 210.336 67.1145 210.336C66.26 210.336 65.801 209.716 65.801 208.92V208.661H69.1848V208.041C69.1848 206.659 68.2961 205.78 67.051 205.78C65.8205 205.78 64.9221 206.645 64.9221 208.041V208.822C64.9221 210.209 65.7375 211.083 67.1193 211.083ZM65.801 208.021V207.938C65.801 207.084 66.3039 206.522 67.0559 206.522C67.8078 206.522 68.3059 207.084 68.3059 207.938V208.021H65.801ZM71.1055 207.338C71.1055 208.349 71.8818 208.568 72.8389 208.764C73.5518 208.905 74.123 209.013 74.123 209.584C74.123 210.028 73.791 210.395 72.9805 210.395C72.2627 210.395 71.9453 210.106 71.877 209.652H71.0127C71.0127 210.57 71.7988 211.083 72.9414 211.083C74.1719 211.083 74.9922 210.502 74.9922 209.481C74.9922 208.48 74.1963 208.212 73.2344 208.046C72.6533 207.938 71.96 207.86 71.96 207.25C71.96 206.752 72.3896 206.474 72.9902 206.474C73.6787 206.474 74.0107 206.859 74.04 207.216H74.8604C74.8604 206.352 74.1279 205.78 73.0195 205.78C72.0186 205.78 71.1055 206.249 71.1055 207.338ZM77.1521 211H78.0359V208.139C78.0359 207.245 78.4949 206.552 79.3738 206.552C80.0672 206.552 80.5115 206.972 80.5115 207.782V211H81.3953V207.504C81.3953 206.352 80.6629 205.78 79.6717 205.78C78.6023 205.78 78.1824 206.439 78.0799 206.796H78.0359V203.983H77.1521V211ZM86.7064 204.281C86.7064 204.633 86.975 204.887 87.3266 204.887C87.6977 204.887 87.9662 204.633 87.9662 204.281C87.9662 203.925 87.6977 203.671 87.3266 203.671C86.975 203.671 86.7064 203.925 86.7064 204.281ZM86.892 211H87.7758V205.863H86.892V211ZM90.341 211H91.2248V208.139C91.2248 207.25 91.6643 206.552 92.5676 206.552C93.2658 206.552 93.6809 206.967 93.6809 207.772V211H94.5646V207.494C94.5646 206.342 93.8566 205.78 92.8215 205.78C91.7473 205.78 91.3908 206.391 91.2639 206.796H91.215V205.863H90.341V211ZM99.6463 204.335V205.116H103.001V205.17L100.242 211H101.184L103.914 205.146V204.335H99.6463ZM108.971 211H109.855V207.733C109.855 207.03 110.319 206.547 110.963 206.547C111.637 206.547 112.052 207.001 112.052 207.67V211H112.926V207.743C112.926 207.04 113.419 206.547 114.059 206.547C114.752 206.547 115.123 206.977 115.123 207.636V211H116.007V207.387C116.007 206.356 115.368 205.78 114.318 205.78C113.449 205.78 112.96 206.244 112.75 206.747H112.711C112.55 206.195 112.062 205.78 111.286 205.78C110.338 205.78 110.011 206.317 109.894 206.684H109.845V205.863H108.971V211ZM118.358 204.281C118.358 204.633 118.626 204.887 118.978 204.887C119.349 204.887 119.617 204.633 119.617 204.281C119.617 203.925 119.349 203.671 118.978 203.671C118.626 203.671 118.358 203.925 118.358 204.281ZM118.543 211H119.427V205.863H118.543V211ZM121.992 211H122.876V208.139C122.876 207.25 123.315 206.552 124.219 206.552C124.917 206.552 125.332 206.967 125.332 207.772V211H126.216V207.494C126.216 206.342 125.508 205.78 124.473 205.78C123.398 205.78 123.042 206.391 122.915 206.796H122.866V205.863H121.992V211Z" fill="#F5F4F4"/>
<rect x="33" y="147" width="160" height="53" rx="8" fill="#3A3B3D"/>
<path d="M43.4106 157.004V159.905H52.2305V160.063L44.7554 175H48.4995L55.8032 159.971V157.004H43.4106ZM56.2383 173.049C56.2383 174.38 57.2666 175.264 58.5322 175.264C59.8374 175.264 60.8657 174.38 60.8657 173.049C60.8657 171.691 59.8506 170.781 58.5322 170.781C57.2534 170.781 56.2383 171.665 56.2383 173.049ZM68.644 167.103H70.6348C72.5728 167.103 73.7988 168.237 73.812 169.806C73.8384 171.414 72.5332 172.561 70.5557 172.561C68.7627 172.548 67.4443 171.585 67.3521 170.293H64.0825C64.1748 173.036 66.4556 175.356 70.5425 175.356C74.2603 175.356 77.3979 173.378 77.3584 169.964C77.3188 167.103 75.1172 165.824 73.4824 165.666V165.481C74.8008 165.271 76.8574 163.899 76.8047 161.355C76.7651 158.639 74.4053 156.648 70.6479 156.662C66.7192 156.675 64.5176 158.863 64.4253 161.671H67.7344C67.8003 160.498 68.8813 159.417 70.5425 159.417C72.1377 159.417 73.3242 160.406 73.3242 161.856C73.3374 163.293 72.1772 164.361 70.5425 164.361H68.644V167.103Z" fill="#F5F4F4"/>
<path d="M43.8691 187H44.7529V183.733C44.7529 183.03 45.2168 182.547 45.8613 182.547C46.5352 182.547 46.9502 183.001 46.9502 183.67V187H47.8242V183.743C47.8242 183.04 48.3174 182.547 48.957 182.547C49.6504 182.547 50.0215 182.977 50.0215 183.636V187H50.9053V183.387C50.9053 182.356 50.2656 181.78 49.2158 181.78C48.3467 181.78 47.8584 182.244 47.6484 182.747H47.6094C47.4482 182.195 46.96 181.78 46.1836 181.78C45.2363 181.78 44.9092 182.317 44.792 182.684H44.7432V181.863H43.8691V187ZM53.3191 187H54.2029V183.733C54.2029 183.03 54.6668 182.547 55.3113 182.547C55.9852 182.547 56.4002 183.001 56.4002 183.67V187H57.2742V183.743C57.2742 183.04 57.7674 182.547 58.407 182.547C59.1004 182.547 59.4715 182.977 59.4715 183.636V187H60.3553V183.387C60.3553 182.356 59.7156 181.78 58.6658 181.78C57.7967 181.78 57.3084 182.244 57.0984 182.747H57.0594C56.8982 182.195 56.41 181.78 55.6336 181.78C54.6863 181.78 54.3592 182.317 54.242 182.684H54.1932V181.863H53.3191V187ZM64.7418 181.78C63.4576 181.78 62.5201 182.664 62.5201 184.051V184.808C62.5201 186.272 63.443 187.083 64.7418 187.083C66.0162 187.083 66.9586 186.258 66.9586 184.808V184.046C66.9586 182.615 66.0162 181.78 64.7418 181.78ZM64.7467 182.532C65.5719 182.532 66.0699 183.187 66.0699 184.124V184.744C66.0699 185.696 65.5963 186.336 64.7467 186.336C63.8873 186.336 63.4039 185.696 63.4039 184.744V184.124C63.4039 183.187 63.9215 182.532 64.7467 182.532ZM69.1723 187H70.0561V179.983H69.1723V187ZM72.6018 188.509L75.009 179.983H74.1887L71.7863 188.509H72.6018ZM80.7041 186.199H77.6572V180.335H76.7588V187H80.7041V186.199Z" fill="#F5F4F4"/>
<path d="M138.868 159.199H135.821V153.335H134.923V160H138.868V159.199ZM142.2 160.083C142.957 160.083 143.421 159.731 143.67 159.316H143.709V160H144.558V156.494C144.558 155.234 143.684 154.78 142.625 154.78C141.477 154.78 140.794 155.269 140.716 156.138H141.57C141.673 155.781 141.946 155.527 142.596 155.527C143.255 155.527 143.67 155.83 143.67 156.489V156.997H142.327C141.145 156.997 140.52 157.607 140.52 158.506C140.52 159.458 141.204 160.083 142.2 160.083ZM142.444 159.341C141.912 159.341 141.424 159.072 141.424 158.477C141.424 158.018 141.707 157.671 142.4 157.671H143.67V158.242C143.67 158.872 143.137 159.341 142.444 159.341ZM146.728 156.338C146.728 157.349 147.504 157.568 148.462 157.764C149.174 157.905 149.746 158.013 149.746 158.584C149.746 159.028 149.414 159.395 148.603 159.395C147.885 159.395 147.568 159.106 147.5 158.652H146.635C146.635 159.57 147.421 160.083 148.564 160.083C149.795 160.083 150.615 159.502 150.615 158.481C150.615 157.48 149.819 157.212 148.857 157.046C148.276 156.938 147.583 156.86 147.583 156.25C147.583 155.752 148.012 155.474 148.613 155.474C149.301 155.474 149.633 155.859 149.663 156.216H150.483C150.483 155.352 149.751 154.78 148.642 154.78C147.641 154.78 146.728 155.249 146.728 156.338ZM153.038 154.878H152.247V155.596H153.034V158.56C153.034 159.575 153.297 160.044 154.518 160.044C154.713 160.044 155.075 160.02 155.148 160V159.292C155.065 159.302 154.87 159.316 154.743 159.316C154.118 159.316 153.913 159.16 153.913 158.555V155.596H155.075V154.878H153.913V153.589H153.038V154.878ZM139.039 164.863H138.155V168.101C138.155 168.76 137.584 169.312 136.832 169.312C136.222 169.312 135.714 169.043 135.714 168.188V164.863H134.83V168.428C134.83 169.619 135.558 170.083 136.588 170.083C137.486 170.083 137.97 169.565 138.116 169.146H138.165V170H139.039V164.863ZM143.885 170.078C145.11 170.078 145.877 169.233 145.877 167.871V166.987C145.877 165.635 145.12 164.785 143.914 164.785C143.177 164.785 142.586 165.127 142.376 165.679H142.332V164.858H141.482V171.704H142.366V169.238H142.41C142.649 169.78 143.177 170.078 143.885 170.078ZM143.704 169.321C142.913 169.321 142.366 168.755 142.366 167.93V167.036C142.366 166.108 142.869 165.542 143.679 165.542C144.514 165.542 144.988 166.133 144.988 167.163V167.71C144.988 168.735 144.514 169.321 143.704 169.321ZM149.819 164.785C148.623 164.785 147.827 165.625 147.827 166.934V167.93C147.827 169.238 148.603 170.073 149.799 170.073C150.551 170.073 151.191 169.702 151.342 169.18H151.386V170H152.236V162.983H151.352V165.625H151.308C151.103 165.103 150.542 164.785 149.819 164.785ZM150 165.542C150.781 165.542 151.352 166.118 151.352 166.934V167.822C151.352 168.745 150.83 169.316 150.024 169.316C149.209 169.316 148.715 168.735 148.715 167.739V167.114C148.715 166.128 149.199 165.542 150 165.542ZM156.08 170.083C156.837 170.083 157.301 169.731 157.55 169.316H157.589V170H158.439V166.494C158.439 165.234 157.565 164.78 156.505 164.78C155.358 164.78 154.674 165.269 154.596 166.138H155.451C155.553 165.781 155.827 165.527 156.476 165.527C157.135 165.527 157.55 165.83 157.55 166.489V166.997H156.207C155.026 166.997 154.401 167.607 154.401 168.506C154.401 169.458 155.084 170.083 156.08 170.083ZM156.325 169.341C155.792 169.341 155.304 169.072 155.304 168.477C155.304 168.018 155.587 167.671 156.281 167.671H157.55V168.242C157.55 168.872 157.018 169.341 156.325 169.341ZM161.131 164.878H160.34V165.596H161.126V168.56C161.126 169.575 161.39 170.044 162.611 170.044C162.806 170.044 163.167 170.02 163.24 170V169.292C163.157 169.302 162.962 169.316 162.835 169.316C162.21 169.316 162.005 169.16 162.005 168.555V165.596H163.167V164.878H162.005V163.589H161.131V164.878ZM167.261 170.083C168.56 170.083 169.18 169.277 169.258 168.73H168.35C168.262 169.048 167.856 169.336 167.256 169.336C166.401 169.336 165.942 168.716 165.942 167.92V167.661H169.326V167.041C169.326 165.659 168.438 164.78 167.192 164.78C165.962 164.78 165.063 165.645 165.063 167.041V167.822C165.063 169.209 165.879 170.083 167.261 170.083ZM165.942 167.021V166.938C165.942 166.084 166.445 165.522 167.197 165.522C167.949 165.522 168.447 166.084 168.447 166.938V167.021H165.942ZM173.234 164.785C172.038 164.785 171.242 165.625 171.242 166.934V167.93C171.242 169.238 172.018 170.073 173.215 170.073C173.967 170.073 174.606 169.702 174.758 169.18H174.802V170H175.651V162.983H174.767V165.625H174.723C174.518 165.103 173.957 164.785 173.234 164.785ZM173.415 165.542C174.196 165.542 174.767 166.118 174.767 166.934V167.822C174.767 168.745 174.245 169.316 173.439 169.316C172.624 169.316 172.131 168.735 172.131 167.739V167.114C172.131 166.128 172.614 165.542 173.415 165.542ZM178.08 166.089C178.08 166.484 178.397 166.777 178.778 166.777C179.183 166.777 179.496 166.484 179.496 166.089C179.496 165.679 179.183 165.381 178.778 165.381C178.392 165.381 178.08 165.674 178.08 166.089ZM178.08 169.399C178.08 169.795 178.397 170.088 178.778 170.088C179.183 170.088 179.496 169.795 179.496 169.399C179.496 168.984 179.183 168.691 178.778 168.691C178.392 168.691 178.08 168.984 178.08 169.399ZM137.604 180V174.648H139.42V173.335H134.186V174.648H136.002V180H137.604ZM142.693 174.692C141.175 174.692 140.218 175.684 140.218 177.153V177.607C140.218 179.204 141.17 180.098 142.693 180.098C144.207 180.098 145.164 179.199 145.164 177.603V177.144C145.164 175.654 144.207 174.692 142.693 174.692ZM142.693 175.854C143.333 175.854 143.587 176.465 143.587 177.148V177.632C143.587 178.291 143.357 178.931 142.693 178.931C142.029 178.931 141.79 178.286 141.79 177.632V177.148C141.79 176.47 142.054 175.854 142.693 175.854ZM148.73 174.727C147.563 174.727 146.806 175.581 146.806 177.075V177.7C146.806 179.194 147.558 180.054 148.72 180.054C149.462 180.054 150.048 179.697 150.219 179.165H150.293V180H151.84V172.983H150.278V175.591H150.205C150.014 175.063 149.458 174.727 148.73 174.727ZM149.331 175.938C149.878 175.938 150.278 176.362 150.278 177.114V177.632C150.278 178.423 149.892 178.853 149.34 178.853C148.784 178.853 148.413 178.423 148.413 177.603V177.183C148.413 176.367 148.779 175.938 149.331 175.938ZM155.426 180.078C156.193 180.078 156.613 179.717 156.788 179.36H156.862V180H158.322V176.533C158.322 175.186 157.326 174.707 156.09 174.707C154.489 174.707 153.932 175.522 153.893 176.362H155.353C155.392 176.064 155.621 175.845 156.066 175.845C156.505 175.845 156.788 176.06 156.788 176.484V176.919H155.573C154.362 176.919 153.703 177.539 153.703 178.486C153.703 179.482 154.406 180.078 155.426 180.078ZM155.963 178.989C155.587 178.989 155.236 178.779 155.236 178.369C155.236 178.018 155.495 177.773 155.983 177.773H156.788V178.281C156.788 178.696 156.403 178.989 155.963 178.989ZM165.12 174.785H163.47L162.508 178.73H162.445L161.517 174.785H159.798L161.531 179.976L161.512 180.068C161.453 180.527 161.175 180.718 160.589 180.718C160.433 180.718 160.233 180.703 160.145 180.688V181.763C160.311 181.802 160.672 181.826 160.95 181.826C162.2 181.826 162.899 181.328 163.377 180.073L163.499 179.751C163.514 179.707 164.573 176.572 165.12 174.785ZM134.493 183.335V184.604H137.696V184.673L134.928 190H136.612L139.298 184.629V183.335H134.493ZM140.965 185.137C140.965 185.698 141.394 186.045 141.922 186.045C142.459 186.045 142.884 185.698 142.884 185.137C142.884 184.57 142.464 184.214 141.922 184.214C141.389 184.214 140.965 184.561 140.965 185.137ZM140.965 188.389C140.965 188.955 141.394 189.297 141.922 189.297C142.459 189.297 142.884 188.955 142.884 188.389C142.884 187.822 142.464 187.466 141.922 187.466C141.389 187.466 140.965 187.812 140.965 188.389ZM146.289 185.415C146.289 185.391 146.289 185.347 146.289 185.312C146.289 184.868 146.606 184.468 147.143 184.468C147.631 184.468 147.998 184.819 147.998 185.269C147.998 185.776 147.612 186.182 147.265 186.538L144.873 189.014V190H149.677V188.73H147.041V188.657L148.383 187.227C148.93 186.65 149.575 186.079 149.575 185.107C149.575 184.033 148.632 183.218 147.172 183.218C145.517 183.218 144.78 184.307 144.78 185.327V185.415H146.289ZM151.447 186.826C151.447 188.838 152.443 190.122 154.069 190.122C155.695 190.122 156.725 188.809 156.725 186.826V186.499C156.725 184.482 155.744 183.218 154.103 183.218C152.462 183.218 151.447 184.512 151.447 186.499V186.826ZM153.053 186.504C153.053 185.234 153.439 184.497 154.083 184.497C154.733 184.497 155.119 185.239 155.119 186.504V186.821C155.119 188.091 154.728 188.843 154.083 188.843C153.439 188.843 153.053 188.096 153.053 186.821V186.504ZM160.159 190.078C160.926 190.078 161.346 189.717 161.522 189.36H161.595V190H163.055V186.533C163.055 185.186 162.059 184.707 160.823 184.707C159.222 184.707 158.665 185.522 158.626 186.362H160.086C160.125 186.064 160.355 185.845 160.799 185.845C161.238 185.845 161.522 186.06 161.522 186.484V186.919H160.306C159.095 186.919 158.436 187.539 158.436 188.486C158.436 189.482 159.139 190.078 160.159 190.078ZM160.696 188.989C160.321 188.989 159.969 188.779 159.969 188.369C159.969 188.018 160.228 187.773 160.716 187.773H161.522V188.281C161.522 188.696 161.136 188.989 160.696 188.989ZM165.107 190H166.665V186.914C166.665 186.26 167.012 185.967 167.451 185.967C167.861 185.967 168.228 186.211 168.228 186.89V190H169.712V186.924C169.712 186.289 170.059 185.967 170.508 185.967C170.938 185.967 171.279 186.216 171.279 186.875V190H172.832V186.382C172.832 185.371 172.227 184.707 171.182 184.707C170.278 184.707 169.761 185.225 169.604 185.688H169.541C169.39 185.122 168.911 184.707 168.125 184.707C167.192 184.707 166.807 185.269 166.694 185.669H166.621V184.785H165.107V190Z" fill="#ACACAC"/>
<rect x="98.9932" y="169.343" width="3.58518" height="10.8366" rx="1.79259" transform="rotate(90 98.9932 169.343)" fill="#F5F4F4"/>
<path d="M107.534 169.62C108.885 170.386 108.885 172.334 107.534 173.1L100.237 177.235C98.9042 177.991 97.2512 177.028 97.2512 175.496L97.2512 167.224C97.2512 165.692 98.9042 164.729 100.237 165.484L107.534 169.62Z" fill="#F5F4F4"/>
<line x1="193" y1="283.25" x2="33" y2="283.25" stroke="#FF5468" stroke-width="0.5"/>
<path d="M33 283.429H193V296C193 297.105 192.105 298 191 298H35C33.8954 298 33 297.105 33 296V283.429Z" fill="#FF5468" fill-opacity="0.15"/>
<line x1="193" y1="248.25" x2="33" y2="248.25" stroke="#3DAAA4" stroke-width="0.5"/>
<rect x="33" y="248.5" width="160" height="34.5" fill="#BEEBE8" fill-opacity="0.15"/>
<path d="M33 219.886C33 218.781 33.8954 217.886 35 217.886H191C192.105 217.886 193 218.781 193 219.886V248H33V219.886Z" fill="#F2DBB0" fill-opacity="0.15"/>
<path d="M182.622 241.91V235.245H181.733L180.146 236.421V237.325L181.689 236.207H181.733V241.91H182.622ZM184.594 238.707C184.594 240.728 185.468 242.046 186.977 242.046C188.491 242.046 189.36 240.723 189.36 238.707V238.458C189.36 236.436 188.496 235.108 186.987 235.108C185.468 235.108 184.594 236.441 184.594 238.458V238.707ZM185.488 238.462C185.488 236.861 186.064 235.884 186.977 235.884C187.895 235.884 188.466 236.861 188.466 238.462V238.697C188.466 240.298 187.895 241.27 186.977 241.27C186.064 241.27 185.488 240.298 185.488 238.697V238.462Z" fill="#F5F4F4"/>
<path d="M185.998 269.542C185.051 271.046 184.06 272.55 183.229 274.054V274.84H186.467V276.208H187.326V274.84H188.19V274.059H187.326V269.542H185.998ZM184.118 274.059V274.015C184.816 272.79 185.642 271.476 186.418 270.314H186.467V274.059H184.118Z" fill="#F5F4F4"/>
<path d="M33 262.258C36.5664 262.93 43.0346 266.645 51.4802 276.371C60.234 286.451 76.2827 283.428 85.0365 277.883C94.7629 271.722 112.005 243.915 126.374 246.125C139.505 248.144 141.936 261.75 151.176 268.307C160.055 274.607 179.869 264.774 193 264.774" stroke="#F3A617" stroke-width="1.5"/>
<path d="M41.6865 127.734C41.4302 125.991 40.0312 124.797 38.0171 124.797C35.5122 124.797 33.9888 126.541 33.9888 129.294V130.657C33.9888 133.521 35.4536 135.205 38.0391 135.205C40.4268 135.205 41.7524 133.762 41.7524 131.829V129.771H37.9146V130.92H40.4414V131.858C40.4414 133.103 39.6284 134.011 38.0317 134.011C36.3179 134.011 35.3364 132.773 35.3364 130.657V129.294C35.3364 127.222 36.3325 125.991 37.9878 125.991C39.2109 125.991 40.0752 126.658 40.3389 127.734H41.6865ZM44.0889 135H45.4146V124.475H44.0889V135ZM54.3281 127.295H53.0024V132.151C53.0024 133.14 52.1455 133.967 51.0176 133.967C50.1021 133.967 49.3403 133.564 49.3403 132.283V127.295H48.0146V132.642C48.0146 134.429 49.106 135.125 50.6514 135.125C51.999 135.125 52.7241 134.348 52.9438 133.718H53.0171V135H54.3281V127.295ZM56.562 131.763C56.562 133.828 57.7925 135.125 59.7773 135.125C61.8135 135.125 62.7437 133.997 62.7876 132.861H61.4985C61.3594 133.447 60.9346 133.967 59.7993 133.967C58.6128 133.967 57.8877 133.118 57.8877 131.777V130.547C57.8877 129.199 58.5396 128.328 59.7993 128.328C61.0005 128.328 61.3594 129.067 61.4399 129.521H62.7363C62.6997 128.357 61.7036 127.17 59.7773 127.17C57.7998 127.17 56.562 128.481 56.562 130.503V131.763ZM67.8486 127.17C65.9224 127.17 64.5161 128.496 64.5161 130.576V131.711C64.5161 133.909 65.9004 135.125 67.8486 135.125C69.7603 135.125 71.1738 133.887 71.1738 131.711V130.569C71.1738 128.423 69.7603 127.17 67.8486 127.17ZM67.856 128.298C69.0938 128.298 69.8408 129.28 69.8408 130.686V131.616C69.8408 133.044 69.1304 134.004 67.856 134.004C66.5669 134.004 65.8418 133.044 65.8418 131.616V130.686C65.8418 129.28 66.6182 128.298 67.856 128.298ZM74.5723 129.324C74.5723 127.236 75.5464 125.991 77.1943 125.991C78.4614 125.991 79.3916 126.804 79.5234 127.939H80.8564V127.896C80.7173 126.086 79.2012 124.797 77.187 124.797C74.6895 124.797 73.2173 126.489 73.2173 129.309V130.752C73.2173 133.579 74.6528 135.205 77.187 135.205C79.1865 135.205 80.71 133.967 80.8564 132.261V132.217H79.5234C79.3916 133.286 78.4834 134.011 77.1943 134.011C75.5244 134.011 74.5723 132.825 74.5723 130.737V129.324ZM83.1196 135H84.4453V130.708C84.4453 129.368 85.1338 128.328 86.4521 128.328C87.4922 128.328 88.1587 128.958 88.1587 130.173V135H89.4844V129.756C89.4844 128.027 88.3857 127.17 86.8989 127.17C85.2949 127.17 84.665 128.159 84.5112 128.694H84.4453V124.475H83.1196V135ZM94.9702 135.125C96.9185 135.125 97.8486 133.916 97.9658 133.096H96.6035C96.4717 133.572 95.8638 134.004 94.9629 134.004C93.6812 134.004 92.9927 133.074 92.9927 131.88V131.492H98.0684V130.562C98.0684 128.489 96.7354 127.17 94.8677 127.17C93.022 127.17 91.6743 128.467 91.6743 130.562V131.733C91.6743 133.813 92.8975 135.125 94.9702 135.125ZM92.9927 130.532V130.408C92.9927 129.126 93.7471 128.284 94.875 128.284C96.0029 128.284 96.75 129.126 96.75 130.408V130.532H92.9927ZM99.8921 131.763C99.8921 133.828 101.123 135.125 103.107 135.125C105.144 135.125 106.074 133.997 106.118 132.861H104.829C104.689 133.447 104.265 133.967 103.129 133.967C101.943 133.967 101.218 133.118 101.218 131.777V130.547C101.218 129.199 101.87 128.328 103.129 128.328C104.331 128.328 104.689 129.067 104.77 129.521H106.066C106.03 128.357 105.034 127.17 103.107 127.17C101.13 127.17 99.8921 128.481 99.8921 130.503V131.763ZM109.567 132.166L110.263 131.455L112.871 135H114.453L111.237 130.642L114.255 127.295H112.724L109.619 130.759H109.567V124.475H108.242V135H109.567V132.166Z" fill="#FF5468"/>
<path d="M134.32 125.002V126.174H139.352V126.255L135.213 135H136.627L140.721 126.218V125.002H134.32ZM142.369 127.595C142.369 128.188 142.845 128.628 143.417 128.628C144.024 128.628 144.493 128.188 144.493 127.595C144.493 126.973 144.024 126.533 143.417 126.533C142.838 126.533 142.369 126.973 142.369 127.595ZM142.369 132.576C142.369 133.169 142.845 133.608 143.417 133.608C144.024 133.608 144.493 133.169 144.493 132.576C144.493 131.96 144.024 131.514 143.417 131.514C142.838 131.514 142.369 131.953 142.369 132.576ZM148.053 127.786C148.053 127.778 148.053 127.742 148.053 127.734C148.053 126.782 148.727 125.947 149.891 125.947C150.917 125.947 151.686 126.599 151.686 127.632C151.686 128.547 151.092 129.243 150.543 129.866L146.778 134.15V135H153.238V133.828H148.69V133.748L151.349 130.701C152.286 129.631 153.048 128.789 153.048 127.537C153.048 125.969 151.81 124.797 149.92 124.797C147.84 124.797 146.742 126.218 146.742 127.734V127.786H148.053ZM157.201 130.422H158.292C159.515 130.422 160.365 131.14 160.379 132.217C160.394 133.293 159.544 134.077 158.226 134.07C157.069 134.062 156.241 133.44 156.153 132.656H154.894C154.967 134.077 156.205 135.212 158.197 135.212C160.27 135.212 161.778 133.975 161.742 132.224C161.712 130.605 160.401 129.91 159.559 129.814V129.741C160.313 129.609 161.449 128.767 161.405 127.354C161.368 125.903 160.145 124.783 158.241 124.797C156.234 124.805 155.179 126.042 155.135 127.324H156.417C156.483 126.584 157.179 125.933 158.233 125.933C159.303 125.933 160.05 126.599 160.05 127.566C160.057 128.555 159.281 129.272 158.233 129.272H157.201V130.422ZM166.07 135.125C167.206 135.125 167.901 134.597 168.275 133.975H168.333V135H169.608V129.741C169.608 127.852 168.297 127.17 166.708 127.17C164.986 127.17 163.961 127.903 163.844 129.207H165.125C165.279 128.672 165.689 128.291 166.664 128.291C167.652 128.291 168.275 128.745 168.275 129.734V130.496H166.261C164.488 130.496 163.551 131.411 163.551 132.759C163.551 134.187 164.576 135.125 166.07 135.125ZM166.437 134.011C165.638 134.011 164.906 133.608 164.906 132.715C164.906 132.026 165.331 131.506 166.371 131.506H168.275V132.363C168.275 133.308 167.477 134.011 166.437 134.011ZM172.179 135H173.504V130.1C173.504 129.045 174.2 128.32 175.167 128.32C176.178 128.32 176.8 129.001 176.8 130.005V135H178.111V130.115C178.111 129.06 178.851 128.32 179.811 128.32C180.851 128.32 181.407 128.965 181.407 129.954V135H182.733V129.58C182.733 128.035 181.773 127.17 180.199 127.17C178.895 127.17 178.163 127.866 177.848 128.621H177.789C177.547 127.793 176.815 127.17 175.65 127.17C174.229 127.17 173.739 127.976 173.563 128.525H173.49V127.295H172.179V135Z" fill="#F5F4F4"/>
<rect x="33" y="306" width="160" height="39" rx="19.5" fill="#3A3B3D"/>
<path d="M79.7812 330.938C78.1719 330.938 77.1484 329.93 77.1484 328.273V321.336H75.7109V328.32C75.7109 330.656 77.3281 332.219 79.7812 332.219C82.2266 332.219 83.8516 330.656 83.8516 328.32V321.336H82.4062V328.273C82.4062 329.922 81.3828 330.938 79.7812 330.938ZM90.4453 332.125C92.4062 332.125 93.6328 330.773 93.6328 328.594V327.18C93.6328 325.016 92.4219 323.656 90.4922 323.656C89.3125 323.656 88.3672 324.203 88.0312 325.086H87.9609V323.773H86.6016V334.727H88.0156V330.781H88.0859C88.4688 331.648 89.3125 332.125 90.4453 332.125ZM90.1562 330.914C88.8906 330.914 88.0156 330.008 88.0156 328.688V327.258C88.0156 325.773 88.8203 324.867 90.1172 324.867C91.4531 324.867 92.2109 325.812 92.2109 327.461V328.336C92.2109 329.977 91.4531 330.914 90.1562 330.914ZM98.8203 323.656C96.9062 323.656 95.6328 325 95.6328 327.094V328.688C95.6328 330.781 96.875 332.117 98.7891 332.117C99.9922 332.117 101.016 331.523 101.258 330.688H101.328V332H102.688V320.773H101.273V325H101.203C100.875 324.164 99.9766 323.656 98.8203 323.656ZM99.1094 324.867C100.359 324.867 101.273 325.789 101.273 327.094V328.516C101.273 329.992 100.438 330.906 99.1484 330.906C97.8438 330.906 97.0547 329.977 97.0547 328.383V327.383C97.0547 325.805 97.8281 324.867 99.1094 324.867ZM107.719 332.133C108.93 332.133 109.672 331.57 110.07 330.906H110.133V332H111.492V326.391C111.492 324.375 110.094 323.648 108.398 323.648C106.562 323.648 105.469 324.43 105.344 325.82H106.711C106.875 325.25 107.312 324.844 108.352 324.844C109.406 324.844 110.07 325.328 110.07 326.383V327.195H107.922C106.031 327.195 105.031 328.172 105.031 329.609C105.031 331.133 106.125 332.133 107.719 332.133ZM108.109 330.945C107.258 330.945 106.477 330.516 106.477 329.562C106.477 328.828 106.93 328.273 108.039 328.273H110.07V329.188C110.07 330.195 109.219 330.945 108.109 330.945ZM114.68 323.805H113.414V324.953H114.672V329.695C114.672 331.32 115.094 332.07 117.047 332.07C117.359 332.07 117.938 332.031 118.055 332V330.867C117.922 330.883 117.609 330.906 117.406 330.906C116.406 330.906 116.078 330.656 116.078 329.688V324.953H117.938V323.805H116.078V321.742H114.68V323.805ZM123.367 332.133C125.445 332.133 126.438 330.844 126.562 329.969H125.109C124.969 330.477 124.32 330.938 123.359 330.938C121.992 330.938 121.258 329.945 121.258 328.672V328.258H126.672V327.266C126.672 325.055 125.25 323.648 123.258 323.648C121.289 323.648 119.852 325.031 119.852 327.266V328.516C119.852 330.734 121.156 332.133 123.367 332.133ZM121.258 327.234V327.102C121.258 325.734 122.062 324.836 123.266 324.836C124.469 324.836 125.266 325.734 125.266 327.102V327.234H121.258ZM132.727 332H136.633C138.914 332 140.352 330.883 140.352 329.008C140.352 327.508 139.445 326.562 138.031 326.375V326.312C139.117 325.984 139.75 325.172 139.75 323.961C139.75 322.344 138.594 321.336 136.773 321.336H132.727V332ZM134.156 322.57H136.523C137.648 322.57 138.305 323.172 138.305 324.203C138.305 325.367 137.523 325.914 135.766 325.914H134.156V322.57ZM134.156 327.117H136.672C138.078 327.117 138.883 327.812 138.883 329.008C138.883 330.242 138.047 330.766 135.984 330.766H134.156V327.117ZM150.516 324.25C150.242 322.391 148.75 321.117 146.602 321.117C143.93 321.117 142.305 322.977 142.305 325.914V327.367C142.305 330.422 143.867 332.219 146.625 332.219C149.172 332.219 150.586 330.68 150.586 328.617V326.422H146.492V327.648H149.188V328.648C149.188 329.977 148.32 330.945 146.617 330.945C144.789 330.945 143.742 329.625 143.742 327.367V325.914C143.742 323.703 144.805 322.391 146.57 322.391C147.875 322.391 148.797 323.102 149.078 324.25H150.516Z" fill="#F5F4F4"/>
<path d="M434.934 519.301C430.368 520.974 415.185 523.881 387.79 523.881C374.79 523.461 352.417 522.382 343.645 519.301C337.841 516.787 331.866 514.673 331.431 499.491C331.027 485.45 327.32 473.21 322.379 463.139C316.001 447.789 299.929 448.008 295.858 432H483.579C479.078 447.131 462.086 450.431 455.935 463.139C448.979 477.51 447.885 492.386 447.371 499.386L447.363 499.491C446.113 513.015 443.946 516 434.934 519.301Z" fill="#F2F2F2"/>
<path d="M433.934 107.699C429.368 106.026 414.185 103.119 386.79 103.119C373.79 103.539 351.417 104.618 342.645 107.699C336.841 110.213 330.866 112.327 330.431 127.509C330.027 141.55 326.32 153.79 321.379 163.861C315.001 179.211 298.929 178.992 294.858 195H482.579C478.078 179.869 461.086 176.569 454.935 163.861C447.979 149.49 446.885 134.614 446.371 127.614L446.363 127.509C445.113 113.985 442.946 111 433.934 107.699Z" fill="#F2F2F2"/>
<path d="M419.418 173H358C329.997 173 315.996 173 305.3 178.45C295.892 183.243 288.243 190.892 283.45 200.3C278 210.996 278 224.997 278 253V370.427C278 398.43 278 412.431 283.45 423.127C288.243 432.535 295.892 440.184 305.3 444.978C315.996 450.427 329.997 450.427 358 450.427H436.667C448.517 450.427 454.442 450.427 459.366 449.428C479.044 445.433 494.423 430.053 498.418 410.375C499.418 405.451 499.418 399.526 499.418 387.676V253C499.418 224.997 499.418 210.996 493.968 200.3C489.175 190.892 481.526 183.243 472.118 178.45C461.422 173 447.421 173 419.418 173Z" fill="#F2F2F2"/>
<rect x="284.204" y="180.417" width="209.011" height="262.593" rx="46.5" stroke="white" stroke-width="3" style="mix-blend-mode:soft-light"/>
<rect x="284.704" y="180.917" width="208.011" height="261.593" rx="46" fill="url(#paint19_linear)" stroke="#161616" stroke-width="2"/>
<rect x="285.704" y="181.917" width="206.011" height="259.593" rx="45" fill="url(#paint20_radial)" fill-opacity="0.5"/>
<rect x="285.704" y="181.917" width="206.011" height="259.593" rx="45" fill="url(#paint21_radial)" fill-opacity="0.5"/>
<rect x="285.704" y="181.917" width="206.011" height="259.593" rx="45" fill="url(#paint22_radial)" fill-opacity="0.5"/>
<rect x="285.704" y="181.917" width="206.011" height="259.593" rx="45" fill="url(#paint23_radial)" fill-opacity="0.5"/>
<rect x="285.704" y="181.917" width="206.011" height="259.593" rx="45" fill="url(#paint24_radial)"/>
<rect x="285.704" y="181.917" width="206.011" height="259.593" rx="45" fill="url(#paint25_radial)"/>
<rect x="285.704" y="181.917" width="206.011" height="259.593" rx="45" fill="url(#paint26_radial)"/>
<rect x="285.704" y="181.917" width="206.011" height="259.593" rx="45" fill="url(#paint27_radial)"/>
<g filter="url(#filter1_f)">
<rect x="295.404" y="195.003" width="186.611" height="243.058" rx="45" fill="url(#paint28_linear)"/>
</g>
<rect x="285.704" y="181.917" width="206.011" height="259.593" rx="45" fill="url(#paint29_radial)"/>
<rect x="285.704" y="181.917" width="206.011" height="259.593" rx="45" fill="url(#paint30_radial)"/>
<rect x="285.704" y="181.917" width="206.011" height="259.593" rx="45" fill="url(#paint31_radial)"/>
<rect x="285.704" y="181.917" width="206.011" height="259.593" rx="45" fill="url(#paint32_radial)"/>
<rect x="285.704" y="181.917" width="206.011" height="259.593" rx="45" fill="url(#paint33_radial)"/>
<rect x="285.704" y="181.917" width="206.011" height="259.593" rx="45" fill="url(#paint34_radial)"/>
<rect x="285.704" y="181.917" width="206.011" height="259.593" rx="45" fill="url(#paint35_radial)"/>
<rect x="285.704" y="181.917" width="206.011" height="259.593" rx="45" fill="url(#paint36_radial)"/>
<rect x="292.455" y="192.572" width="189.56" height="245.489" rx="45" fill="url(#paint37_linear)"/>
<rect x="495.778" y="228" width="13.2221" height="55.2454" rx="6.61103" fill="#F2F2F2"/>
<rect x="292" y="193" width="190" height="245" rx="45" fill="#18191B"/>
<rect x="339.5" y="231.5" width="92" height="92" rx="46" stroke="#FF5468" stroke-opacity="0.15" stroke-width="3"/>
<path d="M308.354 339.335H305.923V346H306.816V343.363H308.389L309.614 346H310.635L309.277 343.192C310.02 342.924 310.518 342.245 310.518 341.332C310.518 340.121 309.683 339.335 308.354 339.335ZM306.816 342.592V340.116H308.237C309.087 340.116 309.59 340.575 309.59 341.381C309.59 342.177 309.097 342.592 308.203 342.592H306.816ZM314.728 346.083C316.027 346.083 316.647 345.277 316.725 344.73H315.817C315.729 345.048 315.324 345.336 314.723 345.336C313.869 345.336 313.41 344.716 313.41 343.92V343.661H316.794V343.041C316.794 341.659 315.905 340.78 314.66 340.78C313.429 340.78 312.531 341.645 312.531 343.041V343.822C312.531 345.209 313.346 346.083 314.728 346.083ZM313.41 343.021V342.938C313.41 342.084 313.913 341.522 314.665 341.522C315.417 341.522 315.915 342.084 315.915 342.938V343.021H313.41ZM318.71 343.842C318.71 345.219 319.53 346.083 320.853 346.083C322.211 346.083 322.831 345.331 322.86 344.574H322.001C321.908 344.965 321.625 345.312 320.868 345.312C320.077 345.312 319.593 344.745 319.593 343.852V343.031C319.593 342.133 320.028 341.552 320.868 341.552C321.669 341.552 321.908 342.045 321.962 342.348H322.826C322.801 341.571 322.137 340.78 320.853 340.78C319.535 340.78 318.71 341.654 318.71 343.002V343.842ZM326.91 346.083C328.208 346.083 328.829 345.277 328.907 344.73H327.998C327.911 345.048 327.505 345.336 326.905 345.336C326.05 345.336 325.591 344.716 325.591 343.92V343.661H328.975V343.041C328.975 341.659 328.086 340.78 326.841 340.78C325.611 340.78 324.712 341.645 324.712 343.041V343.822C324.712 345.209 325.528 346.083 326.91 346.083ZM325.591 343.021V342.938C325.591 342.084 326.094 341.522 326.846 341.522C327.598 341.522 328.096 342.084 328.096 342.938V343.021H325.591ZM331.14 346H332.024V343.139C332.024 342.25 332.463 341.552 333.366 341.552C334.065 341.552 334.48 341.967 334.48 342.772V346H335.363V342.494C335.363 341.342 334.655 340.78 333.62 340.78C332.546 340.78 332.19 341.391 332.063 341.796H332.014V340.863H331.14V346ZM338.056 340.878H337.265V341.596H338.051V344.56C338.051 345.575 338.314 346.044 339.535 346.044C339.73 346.044 340.092 346.02 340.165 346V345.292C340.082 345.302 339.887 345.316 339.76 345.316C339.135 345.316 338.93 345.16 338.93 344.555V341.596H340.092V340.878H338.93V339.589H338.056V340.878ZM345.256 346H347.698C349.124 346 350.022 345.302 350.022 344.13C350.022 343.192 349.456 342.602 348.572 342.484V342.445C349.251 342.24 349.646 341.732 349.646 340.976C349.646 339.965 348.923 339.335 347.786 339.335H345.256V346ZM346.15 340.106H347.629C348.333 340.106 348.743 340.482 348.743 341.127C348.743 341.854 348.254 342.196 347.156 342.196H346.15V340.106ZM346.15 342.948H347.722C348.601 342.948 349.104 343.383 349.104 344.13C349.104 344.901 348.582 345.229 347.293 345.229H346.15V342.948ZM357.075 341.156C356.904 339.994 355.971 339.198 354.628 339.198C352.958 339.198 351.943 340.36 351.943 342.196V343.104C351.943 345.014 352.919 346.137 354.643 346.137C356.235 346.137 357.119 345.175 357.119 343.886V342.514H354.56V343.28H356.245V343.905C356.245 344.735 355.703 345.341 354.638 345.341C353.496 345.341 352.841 344.516 352.841 343.104V342.196C352.841 340.814 353.505 339.994 354.609 339.994C355.424 339.994 356 340.438 356.176 341.156H357.075ZM362.342 346H363.226V338.983H362.342V346ZM367.646 346.083C368.945 346.083 369.565 345.277 369.643 344.73H368.735C368.647 345.048 368.242 345.336 367.641 345.336C366.787 345.336 366.328 344.716 366.328 343.92V343.661H369.712V343.041C369.712 341.659 368.823 340.78 367.578 340.78C366.347 340.78 365.449 341.645 365.449 343.041V343.822C365.449 345.209 366.264 346.083 367.646 346.083ZM366.328 343.021V342.938C366.328 342.084 366.831 341.522 367.583 341.522C368.335 341.522 368.833 342.084 368.833 342.938V343.021H366.328ZM373.068 346H373.981L375.841 340.863H374.899L373.537 345.092H373.503L372.238 340.863H371.261L373.068 346ZM379.554 346.083C380.853 346.083 381.473 345.277 381.551 344.73H380.643C380.555 345.048 380.15 345.336 379.549 345.336C378.695 345.336 378.236 344.716 378.236 343.92V343.661H381.62V343.041C381.62 341.659 380.731 340.78 379.486 340.78C378.255 340.78 377.357 341.645 377.357 343.041V343.822C377.357 345.209 378.172 346.083 379.554 346.083ZM378.236 343.021V342.938C378.236 342.084 378.739 341.522 379.491 341.522C380.243 341.522 380.741 342.084 380.741 342.938V343.021H378.236ZM383.814 346H384.697V338.983H383.814V346ZM390.575 346H391.459V341.596H392.64V340.878H391.449V340.434C391.449 339.823 391.708 339.647 392.313 339.647C392.44 339.647 392.694 339.657 392.772 339.667V338.954C392.67 338.944 392.416 338.925 392.186 338.925C391.039 338.925 390.575 339.379 390.575 340.365V340.878H389.711V341.596H390.575V346ZM394.83 346H395.718V342.826C395.718 342.128 396.168 341.586 397.071 341.586C397.227 341.586 397.403 341.596 397.486 341.615V340.81C397.383 340.795 397.276 340.785 397.164 340.785C396.255 340.785 395.884 341.317 395.757 341.654H395.713V340.863H394.83V346ZM401.321 340.78C400.037 340.78 399.099 341.664 399.099 343.051V343.808C399.099 345.272 400.022 346.083 401.321 346.083C402.595 346.083 403.537 345.258 403.537 343.808V343.046C403.537 341.615 402.595 340.78 401.321 340.78ZM401.326 341.532C402.151 341.532 402.649 342.187 402.649 343.124V343.744C402.649 344.696 402.175 345.336 401.326 345.336C400.466 345.336 399.983 344.696 399.983 343.744V343.124C399.983 342.187 400.5 341.532 401.326 341.532ZM405.722 346H406.606V342.733C406.606 342.03 407.07 341.547 407.714 341.547C408.388 341.547 408.803 342.001 408.803 342.67V346H409.677V342.743C409.677 342.04 410.17 341.547 410.81 341.547C411.503 341.547 411.874 341.977 411.874 342.636V346H412.758V342.387C412.758 341.356 412.118 340.78 411.069 340.78C410.199 340.78 409.711 341.244 409.501 341.747H409.462C409.301 341.195 408.813 340.78 408.036 340.78C407.089 340.78 406.762 341.317 406.645 341.684H406.596V340.863H405.722V346ZM305.62 353.842C305.62 355.219 306.44 356.083 307.764 356.083C309.121 356.083 309.741 355.331 309.771 354.574H308.911C308.818 354.965 308.535 355.312 307.778 355.312C306.987 355.312 306.504 354.745 306.504 353.852V353.031C306.504 352.133 306.938 351.552 307.778 351.552C308.579 351.552 308.818 352.045 308.872 352.348H309.736C309.712 351.571 309.048 350.78 307.764 350.78C306.445 350.78 305.62 351.654 305.62 353.002V353.842ZM313.845 350.78C312.56 350.78 311.623 351.664 311.623 353.051V353.808C311.623 355.272 312.546 356.083 313.845 356.083C315.119 356.083 316.061 355.258 316.061 353.808V353.046C316.061 351.615 315.119 350.78 313.845 350.78ZM313.849 351.532C314.675 351.532 315.173 352.187 315.173 353.124V353.744C315.173 354.696 314.699 355.336 313.849 355.336C312.99 355.336 312.507 354.696 312.507 353.744V353.124C312.507 352.187 313.024 351.532 313.849 351.532ZM318.246 356H319.129V353.139C319.129 352.25 319.569 351.552 320.472 351.552C321.171 351.552 321.586 351.967 321.586 352.772V356H322.469V352.494C322.469 351.342 321.761 350.78 320.726 350.78C319.652 350.78 319.296 351.391 319.169 351.796H319.12V350.863H318.246V356ZM324.883 356H325.767V353.139C325.767 352.25 326.206 351.552 327.11 351.552C327.808 351.552 328.223 351.967 328.223 352.772V356H329.107V352.494C329.107 351.342 328.399 350.78 327.364 350.78C326.289 350.78 325.933 351.391 325.806 351.796H325.757V350.863H324.883V356ZM333.469 356.083C334.768 356.083 335.388 355.277 335.466 354.73H334.558C334.47 355.048 334.065 355.336 333.464 355.336C332.61 355.336 332.151 354.716 332.151 353.92V353.661H335.534V353.041C335.534 351.659 334.646 350.78 333.401 350.78C332.17 350.78 331.272 351.645 331.272 353.041V353.822C331.272 355.209 332.087 356.083 333.469 356.083ZM332.151 353.021V352.938C332.151 352.084 332.654 351.522 333.405 351.522C334.157 351.522 334.655 352.084 334.655 352.938V353.021H332.151ZM337.45 353.842C337.45 355.219 338.271 356.083 339.594 356.083C340.951 356.083 341.571 355.331 341.601 354.574H340.741C340.648 354.965 340.365 355.312 339.608 355.312C338.817 355.312 338.334 354.745 338.334 353.852V353.031C338.334 352.133 338.769 351.552 339.608 351.552C340.409 351.552 340.648 352.045 340.702 352.348H341.566C341.542 351.571 340.878 350.78 339.594 350.78C338.275 350.78 337.45 351.654 337.45 353.002V353.842ZM343.971 350.878H343.179V351.596H343.966V354.56C343.966 355.575 344.229 356.044 345.45 356.044C345.645 356.044 346.007 356.02 346.08 356V355.292C345.997 355.302 345.802 355.316 345.675 355.316C345.05 355.316 344.845 355.16 344.845 354.555V351.596H346.007V350.878H344.845V349.589H343.971V350.878ZM350.1 356.083C351.399 356.083 352.019 355.277 352.097 354.73H351.189C351.101 355.048 350.696 355.336 350.095 355.336C349.241 355.336 348.782 354.716 348.782 353.92V353.661H352.166V353.041C352.166 351.659 351.277 350.78 350.032 350.78C348.801 350.78 347.903 351.645 347.903 353.041V353.822C347.903 355.209 348.718 356.083 350.1 356.083ZM348.782 353.021V352.938C348.782 352.084 349.285 351.522 350.037 351.522C350.789 351.522 351.287 352.084 351.287 352.938V353.021H348.782ZM356.074 350.785C354.877 350.785 354.081 351.625 354.081 352.934V353.93C354.081 355.238 354.858 356.073 356.054 356.073C356.806 356.073 357.446 355.702 357.597 355.18H357.641V356H358.491V348.983H357.607V351.625H357.563C357.358 351.103 356.796 350.785 356.074 350.785ZM356.254 351.542C357.036 351.542 357.607 352.118 357.607 352.934V353.822C357.607 354.745 357.084 355.316 356.279 355.316C355.463 355.316 354.97 354.735 354.97 353.739V353.114C354.97 352.128 355.454 351.542 356.254 351.542ZM363.968 349.335V356H366.136C368.079 356 369.07 354.843 369.07 352.665C369.07 350.487 368.079 349.335 366.136 349.335H363.968ZM364.866 350.121H366.072C367.459 350.121 368.138 350.971 368.138 352.67C368.138 354.369 367.464 355.209 366.072 355.209H364.866V350.121ZM373.281 356.083C374.58 356.083 375.2 355.277 375.278 354.73H374.37C374.282 355.048 373.877 355.336 373.276 355.336C372.422 355.336 371.963 354.716 371.963 353.92V353.661H375.346V353.041C375.346 351.659 374.458 350.78 373.213 350.78C371.982 350.78 371.084 351.645 371.084 353.041V353.822C371.084 355.209 371.899 356.083 373.281 356.083ZM371.963 353.021V352.938C371.963 352.084 372.466 351.522 373.218 351.522C373.97 351.522 374.468 352.084 374.468 352.938V353.021H371.963ZM380.397 356H381.442L379.689 353.383L381.427 350.863H380.421L379.215 352.763H379.176L378.004 350.863H376.95L378.678 353.461L376.969 356H377.956L379.162 354.096H379.196L380.397 356ZM383.06 353.842C383.06 355.219 383.88 356.083 385.204 356.083C386.561 356.083 387.181 355.331 387.21 354.574H386.351C386.258 354.965 385.975 355.312 385.218 355.312C384.427 355.312 383.944 354.745 383.944 353.852V353.031C383.944 352.133 384.378 351.552 385.218 351.552C386.019 351.552 386.258 352.045 386.312 352.348H387.176C387.152 351.571 386.488 350.78 385.204 350.78C383.885 350.78 383.06 351.654 383.06 353.002V353.842ZM391.284 350.78C390 350.78 389.063 351.664 389.063 353.051V353.808C389.063 355.272 389.986 356.083 391.284 356.083C392.559 356.083 393.501 355.258 393.501 353.808V353.046C393.501 351.615 392.559 350.78 391.284 350.78ZM391.289 351.532C392.114 351.532 392.613 352.187 392.613 353.124V353.744C392.613 354.696 392.139 355.336 391.289 355.336C390.43 355.336 389.946 354.696 389.946 353.744V353.124C389.946 352.187 390.464 351.532 391.289 351.532ZM395.686 356H396.569V352.733C396.569 352.03 397.033 351.547 397.678 351.547C398.352 351.547 398.767 352.001 398.767 352.67V356H399.641V352.743C399.641 352.04 400.134 351.547 400.773 351.547C401.467 351.547 401.838 351.977 401.838 352.636V356H402.722V352.387C402.722 351.356 402.082 350.78 401.032 350.78C400.163 350.78 399.675 351.244 399.465 351.747H399.426C399.265 351.195 398.776 350.78 398 350.78C397.053 350.78 396.726 351.317 396.608 351.684H396.56V350.863H395.686V356ZM413.023 351.156C412.852 349.994 411.92 349.198 410.577 349.198C408.907 349.198 407.891 350.36 407.891 352.196V353.104C407.891 355.014 408.868 356.137 410.591 356.137C412.183 356.137 413.067 355.175 413.067 353.886V352.514H410.508V353.28H412.193V353.905C412.193 354.735 411.651 355.341 410.587 355.341C409.444 355.341 408.79 354.516 408.79 353.104V352.196C408.79 350.814 409.454 349.994 410.557 349.994C411.373 349.994 411.949 350.438 412.125 351.156H413.023ZM419.661 350.717C419.607 349.979 418.865 349.208 417.61 349.208C416.125 349.208 415.09 350.355 415.09 352.929C415.09 353.925 415.281 354.638 415.583 355.131C416.052 355.888 416.785 356.137 417.502 356.137C418.811 356.137 419.802 355.302 419.802 353.837C419.802 352.445 418.747 351.708 417.712 351.708C416.741 351.708 416.204 352.245 416.018 352.709H415.969C415.969 350.854 416.658 349.975 417.58 349.975C418.332 349.975 418.689 350.409 418.762 350.717H419.661ZM416.091 353.881C416.091 353.051 416.687 352.46 417.512 352.46C418.225 352.46 418.918 352.914 418.918 353.891C418.918 354.896 418.288 355.37 417.507 355.37C416.746 355.37 416.091 354.828 416.091 353.881ZM426.7 350.785C425.504 350.785 424.708 351.625 424.708 352.934V353.93C424.708 355.238 425.484 356.073 426.681 356.073C427.433 356.073 428.072 355.702 428.224 355.18H428.268V356H429.117V348.983H428.233V351.625H428.189C427.984 351.103 427.423 350.785 426.7 350.785ZM426.881 351.542C427.662 351.542 428.233 352.118 428.233 352.934V353.822C428.233 354.745 427.711 355.316 426.905 355.316C426.09 355.316 425.597 354.735 425.597 353.739V353.114C425.597 352.128 426.08 351.542 426.881 351.542ZM433.523 356.083C434.822 356.083 435.442 355.277 435.52 354.73H434.612C434.524 355.048 434.119 355.336 433.518 355.336C432.664 355.336 432.205 354.716 432.205 353.92V353.661H435.589V353.041C435.589 351.659 434.7 350.78 433.455 350.78C432.224 350.78 431.326 351.645 431.326 353.041V353.822C431.326 355.209 432.141 356.083 433.523 356.083ZM432.205 353.021V352.938C432.205 352.084 432.708 351.522 433.46 351.522C434.212 351.522 434.71 352.084 434.71 352.938V353.021H432.205ZM438.945 356H439.858L441.718 350.863H440.776L439.414 355.092H439.379L438.115 350.863H437.138L438.945 356ZM443.478 349.281C443.478 349.633 443.746 349.887 444.098 349.887C444.469 349.887 444.738 349.633 444.738 349.281C444.738 348.925 444.469 348.671 444.098 348.671C443.746 348.671 443.478 348.925 443.478 349.281ZM443.663 356H444.547V350.863H443.663V356ZM446.863 353.842C446.863 355.219 447.684 356.083 449.007 356.083C450.364 356.083 450.985 355.331 451.014 354.574H450.154C450.062 354.965 449.779 355.312 449.022 355.312C448.231 355.312 447.747 354.745 447.747 353.852V353.031C447.747 352.133 448.182 351.552 449.022 351.552C449.822 351.552 450.062 352.045 450.115 352.348H450.98C450.955 351.571 450.291 350.78 449.007 350.78C447.689 350.78 446.863 351.654 446.863 353.002V353.842ZM455.063 356.083C456.362 356.083 456.982 355.277 457.061 354.73H456.152C456.064 355.048 455.659 355.336 455.059 355.336C454.204 355.336 453.745 354.716 453.745 353.92V353.661H457.129V353.041C457.129 351.659 456.24 350.78 454.995 350.78C453.765 350.78 452.866 351.645 452.866 353.041V353.822C452.866 355.209 453.682 356.083 455.063 356.083ZM453.745 353.021V352.938C453.745 352.084 454.248 351.522 455 351.522C455.752 351.522 456.25 352.084 456.25 352.938V353.021H453.745Z" fill="#ACACAC"/>
<path fill-rule="evenodd" clip-rule="evenodd" d="M394.375 322.615C394.375 324.485 396.072 325.904 397.884 325.438C419.228 319.946 435 300.564 435 277.498C435 250.161 412.847 228 385.521 228C385.232 228 385 228.235 385 228.524V234.482C385 234.769 385.234 235 385.521 235C408.979 235 428 254.024 428 277.498C428 297.086 414.754 313.576 396.738 318.498C395.371 318.872 394.375 320.085 394.375 321.502V322.615Z" fill="#FF5468"/>
<path d="M392 256.258C392 259.982 389.09 263 385.5 263C381.91 263 379 259.982 379 256.258C379 252.535 384.5 244 385.5 244C386.5 244 392 252.535 392 256.258Z" fill="#FF5468"/>
<path d="M367.058 289V271.004H363.525L359.267 274.063V277.333L363.354 274.432H363.525V289H367.058ZM371.949 280.404C371.949 285.836 374.494 289.343 378.765 289.343C383.037 289.343 385.634 285.796 385.634 280.404V279.6C385.634 274.155 383.116 270.662 378.831 270.662C374.533 270.662 371.949 274.208 371.949 279.6V280.404ZM375.509 279.613C375.509 275.83 376.748 273.575 378.792 273.575C380.835 273.575 382.074 275.83 382.074 279.613V280.378C382.074 284.175 380.822 286.442 378.792 286.442C376.761 286.442 375.509 284.175 375.509 280.378V279.613ZM388.64 287.049C388.64 288.38 389.668 289.264 390.934 289.264C392.239 289.264 393.267 288.38 393.267 287.049C393.267 285.691 392.252 284.781 390.934 284.781C389.655 284.781 388.64 285.665 388.64 287.049ZM396.945 284.386C397.064 287.207 399.556 289.343 403.313 289.343C407.347 289.343 410.089 286.838 410.089 282.962C410.089 279.218 407.413 277.122 404.315 277.122C402.285 277.122 401.059 278.071 400.703 278.651H400.518L400.914 273.878H409.087V271.004H398.066L397.314 281.499H400.426C400.808 280.787 401.784 279.837 403.379 279.837C405.172 279.837 406.648 281.103 406.648 283.081C406.648 285.269 405.08 286.535 403.379 286.535C401.889 286.535 400.479 285.81 400.215 284.386H396.945Z" fill="#F5F4F4"/>
<path d="M367.897 303H368.781V299.733C368.781 299.03 369.245 298.547 369.89 298.547C370.563 298.547 370.979 299.001 370.979 299.67V303H371.853V299.743C371.853 299.04 372.346 298.547 372.985 298.547C373.679 298.547 374.05 298.977 374.05 299.636V303H374.934V299.387C374.934 298.356 374.294 297.78 373.244 297.78C372.375 297.78 371.887 298.244 371.677 298.747H371.638C371.477 298.195 370.988 297.78 370.212 297.78C369.265 297.78 368.938 298.317 368.82 298.684H368.771V297.863H367.897V303ZM377.347 303H378.231V299.733C378.231 299.03 378.695 298.547 379.34 298.547C380.013 298.547 380.429 299.001 380.429 299.67V303H381.303V299.743C381.303 299.04 381.796 298.547 382.435 298.547C383.129 298.547 383.5 298.977 383.5 299.636V303H384.384V299.387C384.384 298.356 383.744 297.78 382.694 297.78C381.825 297.78 381.337 298.244 381.127 298.747H381.088C380.927 298.195 380.438 297.78 379.662 297.78C378.715 297.78 378.387 298.317 378.27 298.684H378.221V297.863H377.347V303ZM388.77 297.78C387.486 297.78 386.548 298.664 386.548 300.051V300.808C386.548 302.272 387.471 303.083 388.77 303.083C390.045 303.083 390.987 302.258 390.987 300.808V300.046C390.987 298.615 390.045 297.78 388.77 297.78ZM388.775 298.532C389.6 298.532 390.098 299.187 390.098 300.124V300.744C390.098 301.696 389.625 302.336 388.775 302.336C387.916 302.336 387.432 301.696 387.432 300.744V300.124C387.432 299.187 387.95 298.532 388.775 298.532ZM393.201 303H394.084V295.983H393.201V303ZM396.63 304.509L399.037 295.983H398.217L395.815 304.509H396.63ZM404.732 302.199H401.686V296.335H400.787V303H404.732V302.199Z" fill="#F5F4F4"/>
<path d="M316.302 216.799H311.732V208.002H310.384V218H316.302V216.799ZM320.909 210.17C318.983 210.17 317.577 211.496 317.577 213.576V214.711C317.577 216.909 318.961 218.125 320.909 218.125C322.821 218.125 324.234 216.887 324.234 214.711V213.569C324.234 211.423 322.821 210.17 320.909 210.17ZM320.917 211.298C322.154 211.298 322.901 212.28 322.901 213.686V214.616C322.901 216.044 322.191 217.004 320.917 217.004C319.627 217.004 318.902 216.044 318.902 214.616V213.686C318.902 212.28 319.679 211.298 320.917 211.298ZM329.244 219.707C328.233 219.707 327.611 219.252 327.508 218.71H326.161C326.263 219.831 327.23 220.82 329.2 220.82C331.17 220.82 332.591 219.89 332.591 217.766V210.295H331.324V211.459H331.258C331.002 210.83 330.182 210.178 329.024 210.178C327.318 210.178 325.992 211.401 325.992 213.43V214.624C325.992 216.652 327.325 217.861 329.032 217.861C330.101 217.861 330.892 217.319 331.192 216.652H331.266V217.773C331.266 218.981 330.599 219.707 329.244 219.707ZM329.354 211.313C330.562 211.313 331.266 212.338 331.266 213.466V214.631C331.266 215.729 330.599 216.748 329.369 216.748C328.175 216.748 327.325 215.803 327.325 214.396V213.671C327.325 212.265 328.102 211.313 329.354 211.313ZM338.553 218H342.215C344.354 218 345.702 216.953 345.702 215.195C345.702 213.789 344.852 212.902 343.526 212.727V212.668C344.544 212.36 345.138 211.599 345.138 210.463C345.138 208.947 344.054 208.002 342.347 208.002H338.553V218ZM339.894 209.16H342.113C343.167 209.16 343.783 209.724 343.783 210.69C343.783 211.782 343.05 212.294 341.402 212.294H339.894V209.16ZM339.894 213.422H342.252C343.57 213.422 344.325 214.074 344.325 215.195C344.325 216.352 343.541 216.843 341.607 216.843H339.894V213.422ZM355.23 210.734C354.974 208.991 353.575 207.797 351.561 207.797C349.056 207.797 347.533 209.541 347.533 212.294V213.657C347.533 216.521 348.998 218.205 351.583 218.205C353.971 218.205 355.296 216.762 355.296 214.829V212.771H351.458V213.92H353.985V214.858C353.985 216.103 353.172 217.011 351.576 217.011C349.862 217.011 348.88 215.773 348.88 213.657V212.294C348.88 210.222 349.876 208.991 351.532 208.991C352.755 208.991 353.619 209.658 353.883 210.734H355.23Z" fill="#FF5468"/>
<path d="M410.32 208.002V209.174H415.352V209.255L411.213 218H412.627L416.721 209.218V208.002H410.32ZM418.369 210.595C418.369 211.188 418.845 211.628 419.417 211.628C420.024 211.628 420.493 211.188 420.493 210.595C420.493 209.973 420.024 209.533 419.417 209.533C418.838 209.533 418.369 209.973 418.369 210.595ZM418.369 215.576C418.369 216.169 418.845 216.608 419.417 216.608C420.024 216.608 420.493 216.169 420.493 215.576C420.493 214.96 420.024 214.514 419.417 214.514C418.838 214.514 418.369 214.953 418.369 215.576ZM424.053 210.786C424.053 210.778 424.053 210.742 424.053 210.734C424.053 209.782 424.727 208.947 425.891 208.947C426.917 208.947 427.686 209.599 427.686 210.632C427.686 211.547 427.092 212.243 426.543 212.866L422.778 217.15V218H429.238V216.828H424.69V216.748L427.349 213.701C428.286 212.631 429.048 211.789 429.048 210.537C429.048 208.969 427.81 207.797 425.92 207.797C423.84 207.797 422.742 209.218 422.742 210.734V210.786H424.053ZM433.201 213.422H434.292C435.515 213.422 436.365 214.14 436.379 215.217C436.394 216.293 435.544 217.077 434.226 217.07C433.069 217.062 432.241 216.44 432.153 215.656H430.894C430.967 217.077 432.205 218.212 434.197 218.212C436.27 218.212 437.778 216.975 437.742 215.224C437.712 213.605 436.401 212.91 435.559 212.814V212.741C436.313 212.609 437.449 211.767 437.405 210.354C437.368 208.903 436.145 207.783 434.241 207.797C432.234 207.805 431.179 209.042 431.135 210.324H432.417C432.483 209.584 433.179 208.933 434.233 208.933C435.303 208.933 436.05 209.599 436.05 210.566C436.057 211.555 435.281 212.272 434.233 212.272H433.201V213.422ZM442.07 218.125C443.206 218.125 443.901 217.597 444.275 216.975H444.333V218H445.608V212.741C445.608 210.852 444.297 210.17 442.708 210.17C440.986 210.17 439.961 210.903 439.844 212.207H441.125C441.279 211.672 441.689 211.291 442.664 211.291C443.652 211.291 444.275 211.745 444.275 212.734V213.496H442.261C440.488 213.496 439.551 214.411 439.551 215.759C439.551 217.187 440.576 218.125 442.07 218.125ZM442.437 217.011C441.638 217.011 440.906 216.608 440.906 215.715C440.906 215.026 441.331 214.506 442.371 214.506H444.275V215.363C444.275 216.308 443.477 217.011 442.437 217.011ZM448.179 218H449.504V213.1C449.504 212.045 450.2 211.32 451.167 211.32C452.178 211.32 452.8 212.001 452.8 213.005V218H454.111V213.115C454.111 212.06 454.851 211.32 455.811 211.32C456.851 211.32 457.407 211.965 457.407 212.954V218H458.733V212.58C458.733 211.035 457.773 210.17 456.199 210.17C454.895 210.17 454.163 210.866 453.848 211.621H453.789C453.547 210.793 452.815 210.17 451.65 210.17C450.229 210.17 449.739 210.976 449.563 211.525H449.49V210.295H448.179V218Z" fill="#F5F4F4"/>
<rect x="305" y="364" width="160" height="39" rx="19.5" fill="#3A3B3D"/>
<path d="M351.781 388.938C350.172 388.938 349.148 387.93 349.148 386.273V379.336H347.711V386.32C347.711 388.656 349.328 390.219 351.781 390.219C354.227 390.219 355.852 388.656 355.852 386.32V379.336H354.406V386.273C354.406 387.922 353.383 388.938 351.781 388.938ZM362.445 390.125C364.406 390.125 365.633 388.773 365.633 386.594V385.18C365.633 383.016 364.422 381.656 362.492 381.656C361.312 381.656 360.367 382.203 360.031 383.086H359.961V381.773H358.602V392.727H360.016V388.781H360.086C360.469 389.648 361.312 390.125 362.445 390.125ZM362.156 388.914C360.891 388.914 360.016 388.008 360.016 386.688V385.258C360.016 383.773 360.82 382.867 362.117 382.867C363.453 382.867 364.211 383.812 364.211 385.461V386.336C364.211 387.977 363.453 388.914 362.156 388.914ZM370.82 381.656C368.906 381.656 367.633 383 367.633 385.094V386.688C367.633 388.781 368.875 390.117 370.789 390.117C371.992 390.117 373.016 389.523 373.258 388.688H373.328V390H374.688V378.773H373.273V383H373.203C372.875 382.164 371.977 381.656 370.82 381.656ZM371.109 382.867C372.359 382.867 373.273 383.789 373.273 385.094V386.516C373.273 387.992 372.438 388.906 371.148 388.906C369.844 388.906 369.055 387.977 369.055 386.383V385.383C369.055 383.805 369.828 382.867 371.109 382.867ZM379.719 390.133C380.93 390.133 381.672 389.57 382.07 388.906H382.133V390H383.492V384.391C383.492 382.375 382.094 381.648 380.398 381.648C378.562 381.648 377.469 382.43 377.344 383.82H378.711C378.875 383.25 379.312 382.844 380.352 382.844C381.406 382.844 382.07 383.328 382.07 384.383V385.195H379.922C378.031 385.195 377.031 386.172 377.031 387.609C377.031 389.133 378.125 390.133 379.719 390.133ZM380.109 388.945C379.258 388.945 378.477 388.516 378.477 387.562C378.477 386.828 378.93 386.273 380.039 386.273H382.07V387.188C382.07 388.195 381.219 388.945 380.109 388.945ZM386.68 381.805H385.414V382.953H386.672V387.695C386.672 389.32 387.094 390.07 389.047 390.07C389.359 390.07 389.938 390.031 390.055 390V388.867C389.922 388.883 389.609 388.906 389.406 388.906C388.406 388.906 388.078 388.656 388.078 387.688V382.953H389.938V381.805H388.078V379.742H386.68V381.805ZM395.367 390.133C397.445 390.133 398.438 388.844 398.562 387.969H397.109C396.969 388.477 396.32 388.938 395.359 388.938C393.992 388.938 393.258 387.945 393.258 386.672V386.258H398.672V385.266C398.672 383.055 397.25 381.648 395.258 381.648C393.289 381.648 391.852 383.031 391.852 385.266V386.516C391.852 388.734 393.156 390.133 395.367 390.133ZM393.258 385.234V385.102C393.258 383.734 394.062 382.836 395.266 382.836C396.469 382.836 397.266 383.734 397.266 385.102V385.234H393.258ZM404.727 390H408.633C410.914 390 412.352 388.883 412.352 387.008C412.352 385.508 411.445 384.562 410.031 384.375V384.312C411.117 383.984 411.75 383.172 411.75 381.961C411.75 380.344 410.594 379.336 408.773 379.336H404.727V390ZM406.156 380.57H408.523C409.648 380.57 410.305 381.172 410.305 382.203C410.305 383.367 409.523 383.914 407.766 383.914H406.156V380.57ZM406.156 385.117H408.672C410.078 385.117 410.883 385.812 410.883 387.008C410.883 388.242 410.047 388.766 407.984 388.766H406.156V385.117ZM422.516 382.25C422.242 380.391 420.75 379.117 418.602 379.117C415.93 379.117 414.305 380.977 414.305 383.914V385.367C414.305 388.422 415.867 390.219 418.625 390.219C421.172 390.219 422.586 388.68 422.586 386.617V384.422H418.492V385.648H421.188V386.648C421.188 387.977 420.32 388.945 418.617 388.945C416.789 388.945 415.742 387.625 415.742 385.367V383.914C415.742 381.703 416.805 380.391 418.57 380.391C419.875 380.391 420.797 381.102 421.078 382.25H422.516Z" fill="#F5F4F4"/>
<defs>
<filter id="filter0_f" x="19.4038" y="108.003" width="190.611" height="247.058" filterUnits="userSpaceOnUse" color-interpolation-filters="sRGB">
<feFlood flood-opacity="0" result="BackgroundImageFix"/>
<feBlend mode="normal" in="SourceGraphic" in2="BackgroundImageFix" result="shape"/>
<feGaussianBlur stdDeviation="1" result="effect1_foregroundBlur"/>
</filter>
<filter id="filter1_f" x="293.404" y="193.003" width="190.611" height="247.058" filterUnits="userSpaceOnUse" color-interpolation-filters="sRGB">
<feFlood flood-opacity="0" result="BackgroundImageFix"/>
<feBlend mode="normal" in="SourceGraphic" in2="BackgroundImageFix" result="shape"/>
<feGaussianBlur stdDeviation="1" result="effect1_foregroundBlur"/>
</filter>
<linearGradient id="paint0_linear" x1="238.708" y1="356.51" x2="135.789" y2="74.7737" gradientUnits="userSpaceOnUse">
<stop/>
<stop offset="1" stop-color="#111213"/>
</linearGradient>
<radialGradient id="paint1_radial" cx="0" cy="0" r="1" gradientUnits="userSpaceOnUse" gradientTransform="translate(114.709 93.4497) rotate(90) scale(33.1922 125.315)">
<stop stop-color="white"/>
<stop offset="0.693332" stop-color="white" stop-opacity="0.1"/>
<stop offset="0.854167" stop-color="white" stop-opacity="0"/>
</radialGradient>
<radialGradient id="paint2_radial" cx="0" cy="0" r="1" gradientUnits="userSpaceOnUse" gradientTransform="translate(114.709 358.795) rotate(-90) scale(39.3611 148.605)">
<stop stop-color="white"/>
<stop offset="0.693332" stop-color="white" stop-opacity="0.1"/>
<stop offset="0.854167" stop-color="white" stop-opacity="0"/>
</radialGradient>
<radialGradient id="paint3_radial" cx="0" cy="0" r="1" gradientUnits="userSpaceOnUse" gradientTransform="translate(223.72 226.714) rotate(-177.739) scale(31.915 603.837)">
<stop stop-color="white"/>
<stop offset="0.328125" stop-color="white" stop-opacity="0.574068"/>
<stop offset="0.603763" stop-color="white" stop-opacity="0.1"/>
<stop offset="1" stop-color="white" stop-opacity="0"/>
</radialGradient>
<radialGradient id="paint4_radial" cx="0" cy="0" r="1" gradientUnits="userSpaceOnUse" gradientTransform="translate(3.90201 226.714) rotate(-3.48096) scale(36.8604 697.209)">
<stop stop-color="white"/>
<stop offset="0.328125" stop-color="white" stop-opacity="0.574068"/>
<stop offset="0.603763" stop-color="white" stop-opacity="0.1"/>
<stop offset="1" stop-color="white" stop-opacity="0"/>
</radialGradient>
<radialGradient id="paint5_radial" cx="0" cy="0" r="1" gradientUnits="userSpaceOnUse" gradientTransform="translate(114.709 95.9267) rotate(90) scale(3.46784 79.2074)">
<stop stop-color="white"/>
<stop offset="1" stop-color="white" stop-opacity="0"/>
</radialGradient>
<radialGradient id="paint6_radial" cx="0" cy="0" r="1" gradientUnits="userSpaceOnUse" gradientTransform="translate(114.709 356.51) rotate(-90) scale(0.932432 145.24)">
<stop stop-color="white"/>
<stop offset="1" stop-color="white" stop-opacity="0"/>
</radialGradient>
<radialGradient id="paint7_radial" cx="0" cy="0" r="1" gradientUnits="userSpaceOnUse" gradientTransform="translate(217.715 226.714) rotate(180) scale(1.90601 183.076)">
<stop stop-color="white"/>
<stop offset="1" stop-color="white" stop-opacity="0"/>
</radialGradient>
<radialGradient id="paint8_radial" cx="0" cy="0" r="1" gradientUnits="userSpaceOnUse" gradientTransform="translate(10.3029 226.714) scale(3.7333 358.591)">
<stop stop-color="white"/>
<stop offset="1" stop-color="white" stop-opacity="0"/>
</radialGradient>
<linearGradient id="paint9_linear" x1="227.031" y1="353.061" x2="128.222" y2="91.3775" gradientUnits="userSpaceOnUse">
<stop/>
<stop offset="1" stop-color="#111213"/>
</linearGradient>
<radialGradient id="paint10_radial" cx="0" cy="0" r="1" gradientUnits="userSpaceOnUse" gradientTransform="translate(114.709 93.4497) rotate(90) scale(31.4137 165.692)">
<stop stop-color="white"/>
<stop offset="0.536458" stop-color="white" stop-opacity="0.24"/>
<stop offset="0.536558" stop-color="white" stop-opacity="0.1"/>
<stop offset="0.619792" stop-color="white" stop-opacity="0"/>
</radialGradient>
<radialGradient id="paint11_radial" cx="0" cy="0" r="1" gradientUnits="userSpaceOnUse" gradientTransform="translate(114.709 362.183) rotate(-90) scale(36.3276 191.61)">
<stop stop-color="white"/>
<stop offset="0.536458" stop-color="white" stop-opacity="0.24"/>
<stop offset="0.536558" stop-color="white" stop-opacity="0.1"/>
<stop offset="0.619792" stop-color="white" stop-opacity="0"/>
</radialGradient>
<radialGradient id="paint12_radial" cx="0" cy="0" r="1" gradientUnits="userSpaceOnUse" gradientTransform="translate(223.72 226.714) rotate(-180) scale(19.558 163.781)">
<stop stop-color="white"/>
<stop offset="0.328125" stop-color="white" stop-opacity="0.574068"/>
<stop offset="0.885417" stop-color="white" stop-opacity="0.17"/>
<stop offset="0.90625" stop-color="white" stop-opacity="0.09"/>
<stop offset="1" stop-color="white" stop-opacity="0"/>
</radialGradient>
<radialGradient id="paint13_radial" cx="0" cy="0" r="1" gradientUnits="userSpaceOnUse" gradientTransform="translate(5.03399 226.714) scale(20.7701 173.931)">
<stop stop-color="white"/>
<stop offset="0.328125" stop-color="white" stop-opacity="0.574068"/>
<stop offset="0.885417" stop-color="white" stop-opacity="0.17"/>
<stop offset="0.90625" stop-color="white" stop-opacity="0.09"/>
<stop offset="1" stop-color="white" stop-opacity="0"/>
</radialGradient>
<radialGradient id="paint14_radial" cx="0" cy="0" r="1" gradientUnits="userSpaceOnUse" gradientTransform="translate(114.709 95.9267) rotate(90) scale(3.46784 79.2074)">
<stop stop-color="white"/>
<stop offset="0.973958" stop-color="white" stop-opacity="0.15"/>
<stop offset="1" stop-color="white" stop-opacity="0"/>
</radialGradient>
<radialGradient id="paint15_radial" cx="0" cy="0" r="1" gradientUnits="userSpaceOnUse" gradientTransform="translate(114.709 358.756) rotate(-90) scale(4.11255 93.933)">
<stop stop-color="white"/>
<stop offset="0.973958" stop-color="white" stop-opacity="0.15"/>
<stop offset="1" stop-color="white" stop-opacity="0"/>
</radialGradient>
<radialGradient id="paint16_radial" cx="0" cy="0" r="1" gradientUnits="userSpaceOnUse" gradientTransform="translate(217.715 226.714) rotate(180) scale(1.90601 183.076)">
<stop stop-color="white"/>
<stop offset="0.916667" stop-color="white" stop-opacity="0.04"/>
<stop offset="1" stop-color="white" stop-opacity="0"/>
</radialGradient>
<radialGradient id="paint17_radial" cx="0" cy="0" r="1" gradientUnits="userSpaceOnUse" gradientTransform="translate(10.9902 226.714) scale(2.37214 227.849)">
<stop stop-color="white"/>
<stop offset="0.916667" stop-color="white" stop-opacity="0.04"/>
<stop offset="1" stop-color="white" stop-opacity="0"/>
</radialGradient>
<linearGradient id="paint18_linear" x1="227.331" y1="353.06" x2="127.963" y2="88.3839" gradientUnits="userSpaceOnUse">
<stop/>
<stop offset="1" stop-color="#111213"/>
</linearGradient>
<linearGradient id="paint19_linear" x1="512.708" y1="441.51" x2="409.789" y2="159.774" gradientUnits="userSpaceOnUse">
<stop/>
<stop offset="1" stop-color="#111213"/>
</linearGradient>
<radialGradient id="paint20_radial" cx="0" cy="0" r="1" gradientUnits="userSpaceOnUse" gradientTransform="translate(388.709 178.45) rotate(90) scale(33.1922 125.315)">
<stop stop-color="white"/>
<stop offset="0.693332" stop-color="white" stop-opacity="0.1"/>
<stop offset="0.854167" stop-color="white" stop-opacity="0"/>
</radialGradient>
<radialGradient id="paint21_radial" cx="0" cy="0" r="1" gradientUnits="userSpaceOnUse" gradientTransform="translate(388.709 443.795) rotate(-90) scale(39.3611 148.605)">
<stop stop-color="white"/>
<stop offset="0.693332" stop-color="white" stop-opacity="0.1"/>
<stop offset="0.854167" stop-color="white" stop-opacity="0"/>
</radialGradient>
<radialGradient id="paint22_radial" cx="0" cy="0" r="1" gradientUnits="userSpaceOnUse" gradientTransform="translate(497.72 311.714) rotate(-177.739) scale(31.915 603.837)">
<stop stop-color="white"/>
<stop offset="0.328125" stop-color="white" stop-opacity="0.574068"/>
<stop offset="0.603763" stop-color="white" stop-opacity="0.1"/>
<stop offset="1" stop-color="white" stop-opacity="0"/>
</radialGradient>
<radialGradient id="paint23_radial" cx="0" cy="0" r="1" gradientUnits="userSpaceOnUse" gradientTransform="translate(277.902 311.714) rotate(-3.48096) scale(36.8604 697.209)">
<stop stop-color="white"/>
<stop offset="0.328125" stop-color="white" stop-opacity="0.574068"/>
<stop offset="0.603763" stop-color="white" stop-opacity="0.1"/>
<stop offset="1" stop-color="white" stop-opacity="0"/>
</radialGradient>
<radialGradient id="paint24_radial" cx="0" cy="0" r="1" gradientUnits="userSpaceOnUse" gradientTransform="translate(388.709 180.927) rotate(90) scale(3.46784 79.2074)">
<stop stop-color="white"/>
<stop offset="1" stop-color="white" stop-opacity="0"/>
</radialGradient>
<radialGradient id="paint25_radial" cx="0" cy="0" r="1" gradientUnits="userSpaceOnUse" gradientTransform="translate(388.709 441.51) rotate(-90) scale(0.932432 145.24)">
<stop stop-color="white"/>
<stop offset="1" stop-color="white" stop-opacity="0"/>
</radialGradient>
<radialGradient id="paint26_radial" cx="0" cy="0" r="1" gradientUnits="userSpaceOnUse" gradientTransform="translate(491.715 311.714) rotate(180) scale(1.90601 183.076)">
<stop stop-color="white"/>
<stop offset="1" stop-color="white" stop-opacity="0"/>
</radialGradient>
<radialGradient id="paint27_radial" cx="0" cy="0" r="1" gradientUnits="userSpaceOnUse" gradientTransform="translate(284.303 311.714) scale(3.7333 358.591)">
<stop stop-color="white"/>
<stop offset="1" stop-color="white" stop-opacity="0"/>
</radialGradient>
<linearGradient id="paint28_linear" x1="501.031" y1="438.061" x2="402.222" y2="176.378" gradientUnits="userSpaceOnUse">
<stop/>
<stop offset="1" stop-color="#111213"/>
</linearGradient>
<radialGradient id="paint29_radial" cx="0" cy="0" r="1" gradientUnits="userSpaceOnUse" gradientTransform="translate(388.709 178.45) rotate(90) scale(31.4137 165.692)">
<stop stop-color="white"/>
<stop offset="0.536458" stop-color="white" stop-opacity="0.24"/>
<stop offset="0.536558" stop-color="white" stop-opacity="0.1"/>
<stop offset="0.619792" stop-color="white" stop-opacity="0"/>
</radialGradient>
<radialGradient id="paint30_radial" cx="0" cy="0" r="1" gradientUnits="userSpaceOnUse" gradientTransform="translate(388.709 447.183) rotate(-90) scale(36.3276 191.61)">
<stop stop-color="white"/>
<stop offset="0.536458" stop-color="white" stop-opacity="0.24"/>
<stop offset="0.536558" stop-color="white" stop-opacity="0.1"/>
<stop offset="0.619792" stop-color="white" stop-opacity="0"/>
</radialGradient>
<radialGradient id="paint31_radial" cx="0" cy="0" r="1" gradientUnits="userSpaceOnUse" gradientTransform="translate(497.72 311.714) rotate(-180) scale(19.558 163.781)">
<stop stop-color="white"/>
<stop offset="0.328125" stop-color="white" stop-opacity="0.574068"/>
<stop offset="0.885417" stop-color="white" stop-opacity="0.17"/>
<stop offset="0.90625" stop-color="white" stop-opacity="0.09"/>
<stop offset="1" stop-color="white" stop-opacity="0"/>
</radialGradient>
<radialGradient id="paint32_radial" cx="0" cy="0" r="1" gradientUnits="userSpaceOnUse" gradientTransform="translate(279.034 311.714) scale(20.7701 173.931)">
<stop stop-color="white"/>
<stop offset="0.328125" stop-color="white" stop-opacity="0.574068"/>
<stop offset="0.885417" stop-color="white" stop-opacity="0.17"/>
<stop offset="0.90625" stop-color="white" stop-opacity="0.09"/>
<stop offset="1" stop-color="white" stop-opacity="0"/>
</radialGradient>
<radialGradient id="paint33_radial" cx="0" cy="0" r="1" gradientUnits="userSpaceOnUse" gradientTransform="translate(388.709 180.927) rotate(90) scale(3.46784 79.2074)">
<stop stop-color="white"/>
<stop offset="0.973958" stop-color="white" stop-opacity="0.15"/>
<stop offset="1" stop-color="white" stop-opacity="0"/>
</radialGradient>
<radialGradient id="paint34_radial" cx="0" cy="0" r="1" gradientUnits="userSpaceOnUse" gradientTransform="translate(388.709 443.756) rotate(-90) scale(4.11255 93.933)">
<stop stop-color="white"/>
<stop offset="0.973958" stop-color="white" stop-opacity="0.15"/>
<stop offset="1" stop-color="white" stop-opacity="0"/>
</radialGradient>
<radialGradient id="paint35_radial" cx="0" cy="0" r="1" gradientUnits="userSpaceOnUse" gradientTransform="translate(491.715 311.714) rotate(180) scale(1.90601 183.076)">
<stop stop-color="white"/>
<stop offset="0.916667" stop-color="white" stop-opacity="0.04"/>
<stop offset="1" stop-color="white" stop-opacity="0"/>
</radialGradient>
<radialGradient id="paint36_radial" cx="0" cy="0" r="1" gradientUnits="userSpaceOnUse" gradientTransform="translate(284.99 311.714) scale(2.37214 227.849)">
<stop stop-color="white"/>
<stop offset="0.916667" stop-color="white" stop-opacity="0.04"/>
<stop offset="1" stop-color="white" stop-opacity="0"/>
</radialGradient>
<linearGradient id="paint37_linear" x1="501.331" y1="438.06" x2="401.963" y2="173.384" gradientUnits="userSpaceOnUse">
<stop/>
<stop offset="1" stop-color="#111213"/>
</linearGradient>
</defs>
</svg>
