<svg width="544" height="549" viewBox="0 0 544 549" fill="none" xmlns="http://www.w3.org/2000/svg">
<rect y="0.0380859" width="530" height="480" fill="#FFD9D4"/>
<path d="M195.934 441.301C191.368 442.974 176.185 445.881 148.79 445.881C135.79 445.461 113.417 444.382 104.645 441.301C98.8415 438.787 92.8664 436.673 92.4305 421.491C92.0274 407.45 88.3198 395.21 83.3792 385.139C77.0014 369.789 60.9295 370.008 56.8579 354H244.579C240.078 369.131 223.086 372.431 216.935 385.139C209.979 399.51 208.885 414.386 208.371 421.386L208.363 421.491C207.113 435.015 204.946 438 195.934 441.301Z" fill="#F2F2F2"/>
<path d="M194.934 29.6987C190.368 28.0258 175.185 25.1187 147.79 25.1187C134.79 25.5393 112.417 26.6179 103.645 29.6987C97.8415 32.2133 91.8664 34.3272 91.4305 49.5093C91.0274 63.5498 87.3198 75.7898 82.3792 85.8613C76.0014 101.211 59.9295 100.992 55.8579 117H243.579C239.078 101.869 222.086 98.5688 215.935 85.8613C208.979 71.4905 207.885 56.6135 207.371 49.6138L207.363 49.5093C206.113 35.9853 203.946 33.0004 194.934 29.6987Z" fill="#F2F2F2"/>
<path d="M180.418 95H119C90.9974 95 76.9961 95 66.3005 100.45C56.8924 105.243 49.2433 112.892 44.4497 122.3C39 132.996 39 146.997 39 175V292.427C39 320.43 39 334.431 44.4497 345.127C49.2433 354.535 56.8924 362.184 66.3005 366.978C76.9961 372.427 90.9974 372.427 119 372.427H197.667C209.517 372.427 215.442 372.427 220.366 371.428C240.044 367.433 255.423 352.053 259.418 332.375C260.418 327.451 260.418 321.526 260.418 309.676V175C260.418 146.997 260.418 132.996 254.968 122.3C250.175 112.892 242.526 105.243 233.118 100.45C222.422 95 208.421 95 180.418 95Z" fill="#F2F2F2"/>
<rect x="45.2036" y="102.417" width="209.011" height="262.593" rx="46.5" stroke="white" stroke-width="3" style="mix-blend-mode:soft-light"/>
<rect x="45.7036" y="102.917" width="208.011" height="261.593" rx="46" fill="url(#paint0_linear)" stroke="#161616" stroke-width="2"/>
<rect x="46.7036" y="103.917" width="206.011" height="259.593" rx="45" fill="url(#paint1_radial)" fill-opacity="0.5"/>
<rect x="46.7036" y="103.917" width="206.011" height="259.593" rx="45" fill="url(#paint2_radial)" fill-opacity="0.5"/>
<rect x="46.7036" y="103.917" width="206.011" height="259.593" rx="45" fill="url(#paint3_radial)" fill-opacity="0.5"/>
<rect x="46.7036" y="103.917" width="206.011" height="259.593" rx="45" fill="url(#paint4_radial)" fill-opacity="0.5"/>
<rect x="46.7036" y="103.917" width="206.011" height="259.593" rx="45" fill="url(#paint5_radial)"/>
<rect x="46.7036" y="103.917" width="206.011" height="259.593" rx="45" fill="url(#paint6_radial)"/>
<rect x="46.7036" y="103.917" width="206.011" height="259.593" rx="45" fill="url(#paint7_radial)"/>
<rect x="46.7036" y="103.917" width="206.011" height="259.593" rx="45" fill="url(#paint8_radial)"/>
<g filter="url(#filter0_f)">
<rect x="56.4038" y="117.003" width="186.611" height="243.058" rx="45" fill="url(#paint9_linear)"/>
</g>
<rect x="46.7036" y="103.917" width="206.011" height="259.593" rx="45" fill="url(#paint10_radial)"/>
<rect x="46.7036" y="103.917" width="206.011" height="259.593" rx="45" fill="url(#paint11_radial)"/>
<rect x="46.7036" y="103.917" width="206.011" height="259.593" rx="45" fill="url(#paint12_radial)"/>
<rect x="46.7036" y="103.917" width="206.011" height="259.593" rx="45" fill="url(#paint13_radial)"/>
<rect x="46.7036" y="103.917" width="206.011" height="259.593" rx="45" fill="url(#paint14_radial)"/>
<rect x="46.7036" y="103.917" width="206.011" height="259.593" rx="45" fill="url(#paint15_radial)"/>
<rect x="46.7036" y="103.917" width="206.011" height="259.593" rx="45" fill="url(#paint16_radial)"/>
<rect x="46.7036" y="103.917" width="206.011" height="259.593" rx="45" fill="url(#paint17_radial)"/>
<rect x="53.4546" y="114.572" width="189.56" height="245.489" rx="45" fill="url(#paint18_linear)"/>
<rect x="256.778" y="150" width="13.2221" height="55.2454" rx="6.61103" fill="#F2F2F2"/>
<rect x="56" y="117" width="188" height="242" rx="40" fill="#18191B"/>
<circle cx="133.5" cy="347.5" r="2.5" fill="#F5F4F4"/>
<circle cx="147.5" cy="347.5" r="2.5" fill="#ACACAC"/>
<circle cx="161.5" cy="347.5" r="2.5" fill="#ACACAC"/>
<path d="M80.3545 211.335H77.9229V218H78.8164V215.363H80.3887L81.6143 218H82.6348L81.2773 215.192C82.0195 214.924 82.5176 214.245 82.5176 213.332C82.5176 212.121 81.6826 211.335 80.3545 211.335ZM78.8164 214.592V212.116H80.2373C81.0869 212.116 81.5898 212.575 81.5898 213.381C81.5898 214.177 81.0967 214.592 80.2031 214.592H78.8164ZM86.7283 218.083C88.0271 218.083 88.6473 217.277 88.7254 216.73H87.8172C87.7293 217.048 87.324 217.336 86.7234 217.336C85.8689 217.336 85.41 216.716 85.41 215.92V215.661H88.7937V215.041C88.7937 213.659 87.9051 212.78 86.66 212.78C85.4295 212.78 84.5311 213.645 84.5311 215.041V215.822C84.5311 217.209 85.3465 218.083 86.7283 218.083ZM85.41 215.021V214.938C85.41 214.084 85.9129 213.522 86.6648 213.522C87.4168 213.522 87.9148 214.084 87.9148 214.938V215.021H85.41ZM91.398 218H92.2818V213.596H93.4635V212.878H92.2721V212.434C92.2721 211.823 92.5309 211.647 93.1363 211.647C93.2633 211.647 93.5172 211.657 93.5953 211.667V210.954C93.4928 210.944 93.2389 210.925 93.0094 210.925C91.8619 210.925 91.398 211.379 91.398 212.365V212.878H90.5338V213.596H91.398V218ZM95.6527 218H96.5414V214.826C96.5414 214.128 96.9906 213.586 97.8939 213.586C98.0502 213.586 98.226 213.596 98.309 213.615V212.81C98.2064 212.795 98.099 212.785 97.9867 212.785C97.0785 212.785 96.7074 213.317 96.5805 213.654H96.5365V212.863H95.6527V218ZM102.119 218.083C103.418 218.083 104.038 217.277 104.116 216.73H103.208C103.12 217.048 102.715 217.336 102.114 217.336C101.26 217.336 100.801 216.716 100.801 215.92V215.661H104.185V215.041C104.185 213.659 103.296 212.78 102.051 212.78C100.821 212.78 99.9221 213.645 99.9221 215.041V215.822C99.9221 217.209 100.737 218.083 102.119 218.083ZM100.801 215.021V214.938C100.801 214.084 101.304 213.522 102.056 213.522C102.808 213.522 103.306 214.084 103.306 214.938V215.021H100.801ZM106.105 214.338C106.105 215.349 106.882 215.568 107.839 215.764C108.552 215.905 109.123 216.013 109.123 216.584C109.123 217.028 108.791 217.395 107.98 217.395C107.263 217.395 106.945 217.106 106.877 216.652H106.013C106.013 217.57 106.799 218.083 107.941 218.083C109.172 218.083 109.992 217.502 109.992 216.481C109.992 215.48 109.196 215.212 108.234 215.046C107.653 214.938 106.96 214.86 106.96 214.25C106.96 213.752 107.39 213.474 107.99 213.474C108.679 213.474 109.011 213.859 109.04 214.216H109.86C109.86 213.352 109.128 212.78 108.02 212.78C107.019 212.78 106.105 213.249 106.105 214.338ZM112.152 218H113.036V215.139C113.036 214.245 113.495 213.552 114.374 213.552C115.067 213.552 115.512 213.972 115.512 214.782V218H116.395V214.504C116.395 213.352 115.663 212.78 114.672 212.78C113.602 212.78 113.182 213.439 113.08 213.796H113.036V210.983H112.152V218ZM121.706 211.281C121.706 211.633 121.975 211.887 122.327 211.887C122.698 211.887 122.966 211.633 122.966 211.281C122.966 210.925 122.698 210.671 122.327 210.671C121.975 210.671 121.706 210.925 121.706 211.281ZM121.892 218H122.776V212.863H121.892V218ZM125.341 218H126.225V215.139C126.225 214.25 126.664 213.552 127.568 213.552C128.266 213.552 128.681 213.967 128.681 214.772V218H129.565V214.494C129.565 213.342 128.857 212.78 127.821 212.78C126.747 212.78 126.391 213.391 126.264 213.796H126.215V212.863H125.341V218ZM134.646 211.335V212.116H138.001V212.17L135.242 218H136.184L138.914 212.146V211.335H134.646ZM143.971 218H144.855V214.733C144.855 214.03 145.319 213.547 145.963 213.547C146.637 213.547 147.052 214.001 147.052 214.67V218H147.926V214.743C147.926 214.04 148.419 213.547 149.059 213.547C149.752 213.547 150.123 213.977 150.123 214.636V218H151.007V214.387C151.007 213.356 150.368 212.78 149.318 212.78C148.449 212.78 147.96 213.244 147.75 213.747H147.711C147.55 213.195 147.062 212.78 146.286 212.78C145.338 212.78 145.011 213.317 144.894 213.684H144.845V212.863H143.971V218ZM153.358 211.281C153.358 211.633 153.626 211.887 153.978 211.887C154.349 211.887 154.617 211.633 154.617 211.281C154.617 210.925 154.349 210.671 153.978 210.671C153.626 210.671 153.358 210.925 153.358 211.281ZM153.543 218H154.427V212.863H153.543V218ZM156.992 218H157.876V215.139C157.876 214.25 158.315 213.552 159.219 213.552C159.917 213.552 160.332 213.967 160.332 214.772V218H161.216V214.494C161.216 213.342 160.508 212.78 159.473 212.78C158.398 212.78 158.042 213.391 157.915 213.796H157.866V212.863H156.992V218Z" fill="#F5F4F4"/>
<rect x="68" y="154" width="160" height="53" rx="8" fill="#3A3B3D"/>
<path d="M78.4106 164.004V166.905H87.2305V167.063L79.7554 182H83.4995L90.8032 166.971V164.004H78.4106ZM91.2383 180.049C91.2383 181.38 92.2666 182.264 93.5322 182.264C94.8374 182.264 95.8657 181.38 95.8657 180.049C95.8657 178.691 94.8506 177.781 93.5322 177.781C92.2534 177.781 91.2383 178.665 91.2383 180.049ZM103.644 174.103H105.635C107.573 174.103 108.799 175.237 108.812 176.806C108.838 178.414 107.533 179.561 105.556 179.561C103.763 179.548 102.444 178.585 102.352 177.293H99.0825C99.1748 180.036 101.456 182.356 105.542 182.356C109.26 182.356 112.398 180.378 112.358 176.964C112.319 174.103 110.117 172.824 108.482 172.666V172.481C109.801 172.271 111.857 170.899 111.805 168.355C111.765 165.639 109.405 163.648 105.648 163.662C101.719 163.675 99.5176 165.863 99.4253 168.671H102.734C102.8 167.498 103.881 166.417 105.542 166.417C107.138 166.417 108.324 167.406 108.324 168.856C108.337 170.293 107.177 171.361 105.542 171.361H103.644V174.103Z" fill="#F5F4F4"/>
<path d="M78.8691 194H79.7529V190.733C79.7529 190.03 80.2168 189.547 80.8613 189.547C81.5352 189.547 81.9502 190.001 81.9502 190.67V194H82.8242V190.743C82.8242 190.04 83.3174 189.547 83.957 189.547C84.6504 189.547 85.0215 189.977 85.0215 190.636V194H85.9053V190.387C85.9053 189.356 85.2656 188.78 84.2158 188.78C83.3467 188.78 82.8584 189.244 82.6484 189.747H82.6094C82.4482 189.195 81.96 188.78 81.1836 188.78C80.2363 188.78 79.9092 189.317 79.792 189.684H79.7432V188.863H78.8691V194ZM88.3191 194H89.2029V190.733C89.2029 190.03 89.6668 189.547 90.3113 189.547C90.9852 189.547 91.4002 190.001 91.4002 190.67V194H92.2742V190.743C92.2742 190.04 92.7674 189.547 93.407 189.547C94.1004 189.547 94.4715 189.977 94.4715 190.636V194H95.3553V190.387C95.3553 189.356 94.7156 188.78 93.6658 188.78C92.7967 188.78 92.3084 189.244 92.0984 189.747H92.0594C91.8982 189.195 91.41 188.78 90.6336 188.78C89.6863 188.78 89.3592 189.317 89.242 189.684H89.1932V188.863H88.3191V194ZM99.7418 188.78C98.4576 188.78 97.5201 189.664 97.5201 191.051V191.808C97.5201 193.272 98.443 194.083 99.7418 194.083C101.016 194.083 101.959 193.258 101.959 191.808V191.046C101.959 189.615 101.016 188.78 99.7418 188.78ZM99.7467 189.532C100.572 189.532 101.07 190.187 101.07 191.124V191.744C101.07 192.696 100.596 193.336 99.7467 193.336C98.8873 193.336 98.4039 192.696 98.4039 191.744V191.124C98.4039 190.187 98.9215 189.532 99.7467 189.532ZM104.172 194H105.056V186.983H104.172V194ZM107.602 195.509L110.009 186.983H109.189L106.786 195.509H107.602ZM115.704 193.199H112.657V187.335H111.759V194H115.704V193.199Z" fill="#F5F4F4"/>
<path d="M173.868 166.199H170.821V160.335H169.923V167H173.868V166.199ZM177.2 167.083C177.957 167.083 178.421 166.731 178.67 166.316H178.709V167H179.558V163.494C179.558 162.234 178.684 161.78 177.625 161.78C176.477 161.78 175.794 162.269 175.716 163.138H176.57C176.673 162.781 176.946 162.527 177.596 162.527C178.255 162.527 178.67 162.83 178.67 163.489V163.997H177.327C176.145 163.997 175.52 164.607 175.52 165.506C175.52 166.458 176.204 167.083 177.2 167.083ZM177.444 166.341C176.912 166.341 176.424 166.072 176.424 165.477C176.424 165.018 176.707 164.671 177.4 164.671H178.67V165.242C178.67 165.872 178.137 166.341 177.444 166.341ZM181.728 163.338C181.728 164.349 182.504 164.568 183.462 164.764C184.174 164.905 184.746 165.013 184.746 165.584C184.746 166.028 184.414 166.395 183.603 166.395C182.885 166.395 182.568 166.106 182.5 165.652H181.635C181.635 166.57 182.421 167.083 183.564 167.083C184.795 167.083 185.615 166.502 185.615 165.481C185.615 164.48 184.819 164.212 183.857 164.046C183.276 163.938 182.583 163.86 182.583 163.25C182.583 162.752 183.012 162.474 183.613 162.474C184.301 162.474 184.633 162.859 184.663 163.216H185.483C185.483 162.352 184.751 161.78 183.642 161.78C182.641 161.78 181.728 162.249 181.728 163.338ZM188.038 161.878H187.247V162.596H188.034V165.56C188.034 166.575 188.297 167.044 189.518 167.044C189.713 167.044 190.075 167.02 190.148 167V166.292C190.065 166.302 189.87 166.316 189.743 166.316C189.118 166.316 188.913 166.16 188.913 165.555V162.596H190.075V161.878H188.913V160.589H188.038V161.878ZM174.039 171.863H173.155V175.101C173.155 175.76 172.584 176.312 171.832 176.312C171.222 176.312 170.714 176.043 170.714 175.188V171.863H169.83V175.428C169.83 176.619 170.558 177.083 171.588 177.083C172.486 177.083 172.97 176.565 173.116 176.146H173.165V177H174.039V171.863ZM178.885 177.078C180.11 177.078 180.877 176.233 180.877 174.871V173.987C180.877 172.635 180.12 171.785 178.914 171.785C178.177 171.785 177.586 172.127 177.376 172.679H177.332V171.858H176.482V178.704H177.366V176.238H177.41C177.649 176.78 178.177 177.078 178.885 177.078ZM178.704 176.321C177.913 176.321 177.366 175.755 177.366 174.93V174.036C177.366 173.108 177.869 172.542 178.679 172.542C179.514 172.542 179.988 173.133 179.988 174.163V174.71C179.988 175.735 179.514 176.321 178.704 176.321ZM184.819 171.785C183.623 171.785 182.827 172.625 182.827 173.934V174.93C182.827 176.238 183.603 177.073 184.799 177.073C185.551 177.073 186.191 176.702 186.342 176.18H186.386V177H187.236V169.983H186.352V172.625H186.308C186.103 172.103 185.542 171.785 184.819 171.785ZM185 172.542C185.781 172.542 186.352 173.118 186.352 173.934V174.822C186.352 175.745 185.83 176.316 185.024 176.316C184.209 176.316 183.715 175.735 183.715 174.739V174.114C183.715 173.128 184.199 172.542 185 172.542ZM191.08 177.083C191.837 177.083 192.301 176.731 192.55 176.316H192.589V177H193.439V173.494C193.439 172.234 192.565 171.78 191.505 171.78C190.358 171.78 189.674 172.269 189.596 173.138H190.451C190.553 172.781 190.827 172.527 191.476 172.527C192.135 172.527 192.55 172.83 192.55 173.489V173.997H191.207C190.026 173.997 189.401 174.607 189.401 175.506C189.401 176.458 190.084 177.083 191.08 177.083ZM191.325 176.341C190.792 176.341 190.304 176.072 190.304 175.477C190.304 175.018 190.587 174.671 191.281 174.671H192.55V175.242C192.55 175.872 192.018 176.341 191.325 176.341ZM196.131 171.878H195.34V172.596H196.126V175.56C196.126 176.575 196.39 177.044 197.611 177.044C197.806 177.044 198.167 177.02 198.24 177V176.292C198.157 176.302 197.962 176.316 197.835 176.316C197.21 176.316 197.005 176.16 197.005 175.555V172.596H198.167V171.878H197.005V170.589H196.131V171.878ZM202.261 177.083C203.56 177.083 204.18 176.277 204.258 175.73H203.35C203.262 176.048 202.856 176.336 202.256 176.336C201.401 176.336 200.942 175.716 200.942 174.92V174.661H204.326V174.041C204.326 172.659 203.438 171.78 202.192 171.78C200.962 171.78 200.063 172.645 200.063 174.041V174.822C200.063 176.209 200.879 177.083 202.261 177.083ZM200.942 174.021V173.938C200.942 173.084 201.445 172.522 202.197 172.522C202.949 172.522 203.447 173.084 203.447 173.938V174.021H200.942ZM208.234 171.785C207.038 171.785 206.242 172.625 206.242 173.934V174.93C206.242 176.238 207.018 177.073 208.215 177.073C208.967 177.073 209.606 176.702 209.758 176.18H209.802V177H210.651V169.983H209.767V172.625H209.723C209.518 172.103 208.957 171.785 208.234 171.785ZM208.415 172.542C209.196 172.542 209.767 173.118 209.767 173.934V174.822C209.767 175.745 209.245 176.316 208.439 176.316C207.624 176.316 207.131 175.735 207.131 174.739V174.114C207.131 173.128 207.614 172.542 208.415 172.542ZM213.08 173.089C213.08 173.484 213.397 173.777 213.778 173.777C214.183 173.777 214.496 173.484 214.496 173.089C214.496 172.679 214.183 172.381 213.778 172.381C213.392 172.381 213.08 172.674 213.08 173.089ZM213.08 176.399C213.08 176.795 213.397 177.088 213.778 177.088C214.183 177.088 214.496 176.795 214.496 176.399C214.496 175.984 214.183 175.691 213.778 175.691C213.392 175.691 213.08 175.984 213.08 176.399ZM172.604 187V181.648H174.42V180.335H169.186V181.648H171.002V187H172.604ZM177.693 181.692C176.175 181.692 175.218 182.684 175.218 184.153V184.607C175.218 186.204 176.17 187.098 177.693 187.098C179.207 187.098 180.164 186.199 180.164 184.603V184.144C180.164 182.654 179.207 181.692 177.693 181.692ZM177.693 182.854C178.333 182.854 178.587 183.465 178.587 184.148V184.632C178.587 185.291 178.357 185.931 177.693 185.931C177.029 185.931 176.79 185.286 176.79 184.632V184.148C176.79 183.47 177.054 182.854 177.693 182.854ZM183.73 181.727C182.563 181.727 181.806 182.581 181.806 184.075V184.7C181.806 186.194 182.558 187.054 183.72 187.054C184.462 187.054 185.048 186.697 185.219 186.165H185.293V187H186.84V179.983H185.278V182.591H185.205C185.014 182.063 184.458 181.727 183.73 181.727ZM184.331 182.938C184.878 182.938 185.278 183.362 185.278 184.114V184.632C185.278 185.423 184.892 185.853 184.34 185.853C183.784 185.853 183.413 185.423 183.413 184.603V184.183C183.413 183.367 183.779 182.938 184.331 182.938ZM190.426 187.078C191.193 187.078 191.613 186.717 191.788 186.36H191.862V187H193.322V183.533C193.322 182.186 192.326 181.707 191.09 181.707C189.489 181.707 188.932 182.522 188.893 183.362H190.353C190.392 183.064 190.621 182.845 191.066 182.845C191.505 182.845 191.788 183.06 191.788 183.484V183.919H190.573C189.362 183.919 188.703 184.539 188.703 185.486C188.703 186.482 189.406 187.078 190.426 187.078ZM190.963 185.989C190.587 185.989 190.236 185.779 190.236 185.369C190.236 185.018 190.495 184.773 190.983 184.773H191.788V185.281C191.788 185.696 191.403 185.989 190.963 185.989ZM200.12 181.785H198.47L197.508 185.73H197.445L196.517 181.785H194.798L196.531 186.976L196.512 187.068C196.453 187.527 196.175 187.718 195.589 187.718C195.433 187.718 195.233 187.703 195.145 187.688V188.763C195.311 188.802 195.672 188.826 195.95 188.826C197.2 188.826 197.899 188.328 198.377 187.073L198.499 186.751C198.514 186.707 199.573 183.572 200.12 181.785ZM169.493 190.335V191.604H172.696V191.673L169.928 197H171.612L174.298 191.629V190.335H169.493ZM175.965 192.137C175.965 192.698 176.394 193.045 176.922 193.045C177.459 193.045 177.884 192.698 177.884 192.137C177.884 191.57 177.464 191.214 176.922 191.214C176.389 191.214 175.965 191.561 175.965 192.137ZM175.965 195.389C175.965 195.955 176.394 196.297 176.922 196.297C177.459 196.297 177.884 195.955 177.884 195.389C177.884 194.822 177.464 194.466 176.922 194.466C176.389 194.466 175.965 194.812 175.965 195.389ZM181.289 192.415C181.289 192.391 181.289 192.347 181.289 192.312C181.289 191.868 181.606 191.468 182.143 191.468C182.631 191.468 182.998 191.819 182.998 192.269C182.998 192.776 182.612 193.182 182.265 193.538L179.873 196.014V197H184.677V195.73H182.041V195.657L183.383 194.227C183.93 193.65 184.575 193.079 184.575 192.107C184.575 191.033 183.632 190.218 182.172 190.218C180.517 190.218 179.78 191.307 179.78 192.327V192.415H181.289ZM186.447 193.826C186.447 195.838 187.443 197.122 189.069 197.122C190.695 197.122 191.725 195.809 191.725 193.826V193.499C191.725 191.482 190.744 190.218 189.103 190.218C187.462 190.218 186.447 191.512 186.447 193.499V193.826ZM188.053 193.504C188.053 192.234 188.439 191.497 189.083 191.497C189.733 191.497 190.119 192.239 190.119 193.504V193.821C190.119 195.091 189.728 195.843 189.083 195.843C188.439 195.843 188.053 195.096 188.053 193.821V193.504ZM195.159 197.078C195.926 197.078 196.346 196.717 196.522 196.36H196.595V197H198.055V193.533C198.055 192.186 197.059 191.707 195.823 191.707C194.222 191.707 193.665 192.522 193.626 193.362H195.086C195.125 193.064 195.355 192.845 195.799 192.845C196.238 192.845 196.522 193.06 196.522 193.484V193.919H195.306C194.095 193.919 193.436 194.539 193.436 195.486C193.436 196.482 194.139 197.078 195.159 197.078ZM195.696 195.989C195.321 195.989 194.969 195.779 194.969 195.369C194.969 195.018 195.228 194.773 195.716 194.773H196.522V195.281C196.522 195.696 196.136 195.989 195.696 195.989ZM200.107 197H201.665V193.914C201.665 193.26 202.012 192.967 202.451 192.967C202.861 192.967 203.228 193.211 203.228 193.89V197H204.712V193.924C204.712 193.289 205.059 192.967 205.508 192.967C205.938 192.967 206.279 193.216 206.279 193.875V197H207.832V193.382C207.832 192.371 207.227 191.707 206.182 191.707C205.278 191.707 204.761 192.225 204.604 192.688H204.541C204.39 192.122 203.911 191.707 203.125 191.707C202.192 191.707 201.807 192.269 201.694 192.669H201.621V191.785H200.107V197Z" fill="#ACACAC"/>
<rect x="133.993" y="176.343" width="3.58518" height="10.8366" rx="1.79259" transform="rotate(90 133.993 176.343)" fill="#F5F4F4"/>
<path d="M142.534 176.62C143.885 177.386 143.885 179.334 142.534 180.1L135.237 184.235C133.904 184.991 132.251 184.028 132.251 182.496L132.251 174.224C132.251 172.692 133.904 171.729 135.237 172.484L142.534 176.62Z" fill="#F5F4F4"/>
<line x1="228" y1="290.25" x2="68" y2="290.25" stroke="#FF5468" stroke-width="0.5"/>
<path d="M68 290.429H228V303C228 304.105 227.105 305 226 305H70C68.8954 305 68 304.105 68 303V290.429Z" fill="#FF5468" fill-opacity="0.15"/>
<line x1="228" y1="255.25" x2="68" y2="255.25" stroke="#3DAAA4" stroke-width="0.5"/>
<rect x="68" y="255.5" width="160" height="34.5" fill="#BEEBE8" fill-opacity="0.15"/>
<path d="M68 226.886C68 225.781 68.8954 224.886 70 224.886H226C227.105 224.886 228 225.781 228 226.886V255H68V226.886Z" fill="#F2DBB0" fill-opacity="0.15"/>
<path d="M217.622 248.91V242.245H216.733L215.146 243.421V244.325L216.689 243.207H216.733V248.91H217.622ZM219.594 245.707C219.594 247.728 220.468 249.046 221.977 249.046C223.491 249.046 224.36 247.723 224.36 245.707V245.458C224.36 243.436 223.496 242.108 221.987 242.108C220.468 242.108 219.594 243.441 219.594 245.458V245.707ZM220.488 245.462C220.488 243.861 221.064 242.884 221.977 242.884C222.895 242.884 223.466 243.861 223.466 245.462V245.697C223.466 247.298 222.895 248.27 221.977 248.27C221.064 248.27 220.488 247.298 220.488 245.697V245.462Z" fill="#F5F4F4"/>
<path d="M220.998 276.542C220.051 278.046 219.06 279.55 218.229 281.054V281.84H221.467V283.208H222.326V281.84H223.19V281.059H222.326V276.542H220.998ZM219.118 281.059V281.015C219.816 279.79 220.642 278.476 221.418 277.314H221.467V281.059H219.118Z" fill="#F5F4F4"/>
<path d="M68 269.258C71.5664 269.93 78.0346 273.645 86.4802 283.371C95.234 293.451 111.283 290.428 120.036 284.883C129.763 278.722 147.005 250.915 161.374 253.125C174.505 255.144 176.936 268.75 186.176 275.307C195.055 281.607 214.869 271.774 228 271.774" stroke="#F3A617" stroke-width="1.5"/>
<path d="M76.6865 134.734C76.4302 132.991 75.0312 131.797 73.0171 131.797C70.5122 131.797 68.9888 133.541 68.9888 136.294V137.657C68.9888 140.521 70.4536 142.205 73.0391 142.205C75.4268 142.205 76.7524 140.762 76.7524 138.829V136.771H72.9146V137.92H75.4414V138.858C75.4414 140.103 74.6284 141.011 73.0317 141.011C71.3179 141.011 70.3364 139.773 70.3364 137.657V136.294C70.3364 134.222 71.3325 132.991 72.9878 132.991C74.2109 132.991 75.0752 133.658 75.3389 134.734H76.6865ZM79.0889 142H80.4146V131.475H79.0889V142ZM89.3281 134.295H88.0024V139.151C88.0024 140.14 87.1455 140.967 86.0176 140.967C85.1021 140.967 84.3403 140.564 84.3403 139.283V134.295H83.0146V139.642C83.0146 141.429 84.106 142.125 85.6514 142.125C86.999 142.125 87.7241 141.348 87.9438 140.718H88.0171V142H89.3281V134.295ZM91.562 138.763C91.562 140.828 92.7925 142.125 94.7773 142.125C96.8135 142.125 97.7437 140.997 97.7876 139.861H96.4985C96.3594 140.447 95.9346 140.967 94.7993 140.967C93.6128 140.967 92.8877 140.118 92.8877 138.777V137.547C92.8877 136.199 93.5396 135.328 94.7993 135.328C96.0005 135.328 96.3594 136.067 96.4399 136.521H97.7363C97.6997 135.357 96.7036 134.17 94.7773 134.17C92.7998 134.17 91.562 135.481 91.562 137.503V138.763ZM102.849 134.17C100.922 134.17 99.5161 135.496 99.5161 137.576V138.711C99.5161 140.909 100.9 142.125 102.849 142.125C104.76 142.125 106.174 140.887 106.174 138.711V137.569C106.174 135.423 104.76 134.17 102.849 134.17ZM102.856 135.298C104.094 135.298 104.841 136.28 104.841 137.686V138.616C104.841 140.044 104.13 141.004 102.856 141.004C101.567 141.004 100.842 140.044 100.842 138.616V137.686C100.842 136.28 101.618 135.298 102.856 135.298ZM109.572 136.324C109.572 134.236 110.546 132.991 112.194 132.991C113.461 132.991 114.392 133.804 114.523 134.939H115.856V134.896C115.717 133.086 114.201 131.797 112.187 131.797C109.689 131.797 108.217 133.489 108.217 136.309V137.752C108.217 140.579 109.653 142.205 112.187 142.205C114.187 142.205 115.71 140.967 115.856 139.261V139.217H114.523C114.392 140.286 113.483 141.011 112.194 141.011C110.524 141.011 109.572 139.825 109.572 137.737V136.324ZM118.12 142H119.445V137.708C119.445 136.368 120.134 135.328 121.452 135.328C122.492 135.328 123.159 135.958 123.159 137.173V142H124.484V136.756C124.484 135.027 123.386 134.17 121.899 134.17C120.295 134.17 119.665 135.159 119.511 135.694H119.445V131.475H118.12V142ZM129.97 142.125C131.918 142.125 132.849 140.916 132.966 140.096H131.604C131.472 140.572 130.864 141.004 129.963 141.004C128.681 141.004 127.993 140.074 127.993 138.88V138.492H133.068V137.562C133.068 135.489 131.735 134.17 129.868 134.17C128.022 134.17 126.674 135.467 126.674 137.562V138.733C126.674 140.813 127.897 142.125 129.97 142.125ZM127.993 137.532V137.408C127.993 136.126 128.747 135.284 129.875 135.284C131.003 135.284 131.75 136.126 131.75 137.408V137.532H127.993ZM134.892 138.763C134.892 140.828 136.123 142.125 138.107 142.125C140.144 142.125 141.074 140.997 141.118 139.861H139.829C139.689 140.447 139.265 140.967 138.129 140.967C136.943 140.967 136.218 140.118 136.218 138.777V137.547C136.218 136.199 136.87 135.328 138.129 135.328C139.331 135.328 139.689 136.067 139.77 136.521H141.066C141.03 135.357 140.034 134.17 138.107 134.17C136.13 134.17 134.892 135.481 134.892 137.503V138.763ZM144.567 139.166L145.263 138.455L147.871 142H149.453L146.237 137.642L149.255 134.295H147.724L144.619 137.759H144.567V131.475H143.242V142H144.567V139.166Z" fill="#FF5468"/>
<path d="M169.32 132.002V133.174H174.352V133.255L170.213 142H171.627L175.721 133.218V132.002H169.32ZM177.369 134.595C177.369 135.188 177.845 135.628 178.417 135.628C179.024 135.628 179.493 135.188 179.493 134.595C179.493 133.973 179.024 133.533 178.417 133.533C177.838 133.533 177.369 133.973 177.369 134.595ZM177.369 139.576C177.369 140.169 177.845 140.608 178.417 140.608C179.024 140.608 179.493 140.169 179.493 139.576C179.493 138.96 179.024 138.514 178.417 138.514C177.838 138.514 177.369 138.953 177.369 139.576ZM183.053 134.786C183.053 134.778 183.053 134.742 183.053 134.734C183.053 133.782 183.727 132.947 184.891 132.947C185.917 132.947 186.686 133.599 186.686 134.632C186.686 135.547 186.092 136.243 185.543 136.866L181.778 141.15V142H188.238V140.828H183.69V140.748L186.349 137.701C187.286 136.631 188.048 135.789 188.048 134.537C188.048 132.969 186.81 131.797 184.92 131.797C182.84 131.797 181.742 133.218 181.742 134.734V134.786H183.053ZM192.201 137.422H193.292C194.515 137.422 195.365 138.14 195.379 139.217C195.394 140.293 194.544 141.077 193.226 141.07C192.069 141.062 191.241 140.44 191.153 139.656H189.894C189.967 141.077 191.205 142.212 193.197 142.212C195.27 142.212 196.778 140.975 196.742 139.224C196.712 137.605 195.401 136.91 194.559 136.814V136.741C195.313 136.609 196.449 135.767 196.405 134.354C196.368 132.903 195.145 131.783 193.241 131.797C191.234 131.805 190.179 133.042 190.135 134.324H191.417C191.483 133.584 192.179 132.933 193.233 132.933C194.303 132.933 195.05 133.599 195.05 134.566C195.057 135.555 194.281 136.272 193.233 136.272H192.201V137.422ZM201.07 142.125C202.206 142.125 202.901 141.597 203.275 140.975H203.333V142H204.608V136.741C204.608 134.852 203.297 134.17 201.708 134.17C199.986 134.17 198.961 134.903 198.844 136.207H200.125C200.279 135.672 200.689 135.291 201.664 135.291C202.652 135.291 203.275 135.745 203.275 136.734V137.496H201.261C199.488 137.496 198.551 138.411 198.551 139.759C198.551 141.187 199.576 142.125 201.07 142.125ZM201.437 141.011C200.638 141.011 199.906 140.608 199.906 139.715C199.906 139.026 200.331 138.506 201.371 138.506H203.275V139.363C203.275 140.308 202.477 141.011 201.437 141.011ZM207.179 142H208.504V137.1C208.504 136.045 209.2 135.32 210.167 135.32C211.178 135.32 211.8 136.001 211.8 137.005V142H213.111V137.115C213.111 136.06 213.851 135.32 214.811 135.32C215.851 135.32 216.407 135.965 216.407 136.954V142H217.733V136.58C217.733 135.035 216.773 134.17 215.199 134.17C213.895 134.17 213.163 134.866 212.848 135.621H212.789C212.547 134.793 211.815 134.17 210.65 134.17C209.229 134.17 208.739 134.976 208.563 135.525H208.49V134.295H207.179V142Z" fill="#F5F4F4"/>
<rect x="68" y="313" width="160" height="39" rx="19.5" fill="#3A3B3D"/>
<path d="M114.781 337.938C113.172 337.938 112.148 336.93 112.148 335.273V328.336H110.711V335.32C110.711 337.656 112.328 339.219 114.781 339.219C117.227 339.219 118.852 337.656 118.852 335.32V328.336H117.406V335.273C117.406 336.922 116.383 337.938 114.781 337.938ZM125.445 339.125C127.406 339.125 128.633 337.773 128.633 335.594V334.18C128.633 332.016 127.422 330.656 125.492 330.656C124.312 330.656 123.367 331.203 123.031 332.086H122.961V330.773H121.602V341.727H123.016V337.781H123.086C123.469 338.648 124.312 339.125 125.445 339.125ZM125.156 337.914C123.891 337.914 123.016 337.008 123.016 335.688V334.258C123.016 332.773 123.82 331.867 125.117 331.867C126.453 331.867 127.211 332.812 127.211 334.461V335.336C127.211 336.977 126.453 337.914 125.156 337.914ZM133.82 330.656C131.906 330.656 130.633 332 130.633 334.094V335.688C130.633 337.781 131.875 339.117 133.789 339.117C134.992 339.117 136.016 338.523 136.258 337.688H136.328V339H137.688V327.773H136.273V332H136.203C135.875 331.164 134.977 330.656 133.82 330.656ZM134.109 331.867C135.359 331.867 136.273 332.789 136.273 334.094V335.516C136.273 336.992 135.438 337.906 134.148 337.906C132.844 337.906 132.055 336.977 132.055 335.383V334.383C132.055 332.805 132.828 331.867 134.109 331.867ZM142.719 339.133C143.93 339.133 144.672 338.57 145.07 337.906H145.133V339H146.492V333.391C146.492 331.375 145.094 330.648 143.398 330.648C141.562 330.648 140.469 331.43 140.344 332.82H141.711C141.875 332.25 142.312 331.844 143.352 331.844C144.406 331.844 145.07 332.328 145.07 333.383V334.195H142.922C141.031 334.195 140.031 335.172 140.031 336.609C140.031 338.133 141.125 339.133 142.719 339.133ZM143.109 337.945C142.258 337.945 141.477 337.516 141.477 336.562C141.477 335.828 141.93 335.273 143.039 335.273H145.07V336.188C145.07 337.195 144.219 337.945 143.109 337.945ZM149.68 330.805H148.414V331.953H149.672V336.695C149.672 338.32 150.094 339.07 152.047 339.07C152.359 339.07 152.938 339.031 153.055 339V337.867C152.922 337.883 152.609 337.906 152.406 337.906C151.406 337.906 151.078 337.656 151.078 336.688V331.953H152.938V330.805H151.078V328.742H149.68V330.805ZM158.367 339.133C160.445 339.133 161.438 337.844 161.562 336.969H160.109C159.969 337.477 159.32 337.938 158.359 337.938C156.992 337.938 156.258 336.945 156.258 335.672V335.258H161.672V334.266C161.672 332.055 160.25 330.648 158.258 330.648C156.289 330.648 154.852 332.031 154.852 334.266V335.516C154.852 337.734 156.156 339.133 158.367 339.133ZM156.258 334.234V334.102C156.258 332.734 157.062 331.836 158.266 331.836C159.469 331.836 160.266 332.734 160.266 334.102V334.234H156.258ZM167.727 339H171.633C173.914 339 175.352 337.883 175.352 336.008C175.352 334.508 174.445 333.562 173.031 333.375V333.312C174.117 332.984 174.75 332.172 174.75 330.961C174.75 329.344 173.594 328.336 171.773 328.336H167.727V339ZM169.156 329.57H171.523C172.648 329.57 173.305 330.172 173.305 331.203C173.305 332.367 172.523 332.914 170.766 332.914H169.156V329.57ZM169.156 334.117H171.672C173.078 334.117 173.883 334.812 173.883 336.008C173.883 337.242 173.047 337.766 170.984 337.766H169.156V334.117ZM185.516 331.25C185.242 329.391 183.75 328.117 181.602 328.117C178.93 328.117 177.305 329.977 177.305 332.914V334.367C177.305 337.422 178.867 339.219 181.625 339.219C184.172 339.219 185.586 337.68 185.586 335.617V333.422H181.492V334.648H184.188V335.648C184.188 336.977 183.32 337.945 181.617 337.945C179.789 337.945 178.742 336.625 178.742 334.367V332.914C178.742 330.703 179.805 329.391 181.57 329.391C182.875 329.391 183.797 330.102 184.078 331.25H185.516Z" fill="#F5F4F4"/>
<path d="M469.934 526.301C465.368 527.974 450.185 530.881 422.79 530.881C409.79 530.461 387.417 529.382 378.645 526.301C372.841 523.787 366.866 521.673 366.431 506.491C366.027 492.45 362.32 480.21 357.379 470.139C351.001 454.789 334.929 455.008 330.858 439H518.579C514.078 454.131 497.086 457.431 490.935 470.139C483.979 484.51 482.885 499.386 482.371 506.386L482.363 506.491C481.113 520.015 478.946 523 469.934 526.301Z" fill="#F2F2F2"/>
<path d="M468.934 114.699C464.368 113.026 449.185 110.119 421.79 110.119C408.79 110.539 386.417 111.618 377.645 114.699C371.841 117.213 365.866 119.327 365.431 134.509C365.027 148.55 361.32 160.79 356.379 170.861C350.001 186.211 333.929 185.992 329.858 202H517.579C513.078 186.869 496.086 183.569 489.935 170.861C482.979 156.49 481.885 141.614 481.371 134.614L481.363 134.509C480.113 120.985 477.946 118 468.934 114.699Z" fill="#F2F2F2"/>
<path d="M454.418 180H393C364.997 180 350.996 180 340.3 185.45C330.892 190.243 323.243 197.892 318.45 207.3C313 217.996 313 231.997 313 260V377.427C313 405.43 313 419.431 318.45 430.127C323.243 439.535 330.892 447.184 340.3 451.978C350.996 457.427 364.997 457.427 393 457.427H471.667C483.517 457.427 489.442 457.427 494.366 456.428C514.044 452.433 529.423 437.053 533.418 417.375C534.418 412.451 534.418 406.526 534.418 394.676V260C534.418 231.997 534.418 217.996 528.968 207.3C524.175 197.892 516.526 190.243 507.118 185.45C496.422 180 482.421 180 454.418 180Z" fill="#F2F2F2"/>
<rect x="319.204" y="187.417" width="209.011" height="262.593" rx="46.5" stroke="white" stroke-width="3" style="mix-blend-mode:soft-light"/>
<rect x="319.704" y="187.917" width="208.011" height="261.593" rx="46" fill="url(#paint19_linear)" stroke="#161616" stroke-width="2"/>
<rect x="320.704" y="188.917" width="206.011" height="259.593" rx="45" fill="url(#paint20_radial)" fill-opacity="0.5"/>
<rect x="320.704" y="188.917" width="206.011" height="259.593" rx="45" fill="url(#paint21_radial)" fill-opacity="0.5"/>
<rect x="320.704" y="188.917" width="206.011" height="259.593" rx="45" fill="url(#paint22_radial)" fill-opacity="0.5"/>
<rect x="320.704" y="188.917" width="206.011" height="259.593" rx="45" fill="url(#paint23_radial)" fill-opacity="0.5"/>
<rect x="320.704" y="188.917" width="206.011" height="259.593" rx="45" fill="url(#paint24_radial)"/>
<rect x="320.704" y="188.917" width="206.011" height="259.593" rx="45" fill="url(#paint25_radial)"/>
<rect x="320.704" y="188.917" width="206.011" height="259.593" rx="45" fill="url(#paint26_radial)"/>
<rect x="320.704" y="188.917" width="206.011" height="259.593" rx="45" fill="url(#paint27_radial)"/>
<g filter="url(#filter1_f)">
<rect x="330.404" y="202.003" width="186.611" height="243.058" rx="45" fill="url(#paint28_linear)"/>
</g>
<rect x="320.704" y="188.917" width="206.011" height="259.593" rx="45" fill="url(#paint29_radial)"/>
<rect x="320.704" y="188.917" width="206.011" height="259.593" rx="45" fill="url(#paint30_radial)"/>
<rect x="320.704" y="188.917" width="206.011" height="259.593" rx="45" fill="url(#paint31_radial)"/>
<rect x="320.704" y="188.917" width="206.011" height="259.593" rx="45" fill="url(#paint32_radial)"/>
<rect x="320.704" y="188.917" width="206.011" height="259.593" rx="45" fill="url(#paint33_radial)"/>
<rect x="320.704" y="188.917" width="206.011" height="259.593" rx="45" fill="url(#paint34_radial)"/>
<rect x="320.704" y="188.917" width="206.011" height="259.593" rx="45" fill="url(#paint35_radial)"/>
<rect x="320.704" y="188.917" width="206.011" height="259.593" rx="45" fill="url(#paint36_radial)"/>
<rect x="327.455" y="199.572" width="189.56" height="245.489" rx="45" fill="url(#paint37_linear)"/>
<rect x="530.778" y="235" width="13.2221" height="55.2454" rx="6.61103" fill="#F2F2F2"/>
<rect x="327" y="200" width="190" height="245" rx="45" fill="#18191B"/>
<rect x="374.5" y="238.5" width="92" height="92" rx="46" stroke="#FF5468" stroke-opacity="0.15" stroke-width="3"/>
<path d="M343.354 346.335H340.923V353H341.816V350.363H343.389L344.614 353H345.635L344.277 350.192C345.02 349.924 345.518 349.245 345.518 348.332C345.518 347.121 344.683 346.335 343.354 346.335ZM341.816 349.592V347.116H343.237C344.087 347.116 344.59 347.575 344.59 348.381C344.59 349.177 344.097 349.592 343.203 349.592H341.816ZM349.728 353.083C351.027 353.083 351.647 352.277 351.725 351.73H350.817C350.729 352.048 350.324 352.336 349.723 352.336C348.869 352.336 348.41 351.716 348.41 350.92V350.661H351.794V350.041C351.794 348.659 350.905 347.78 349.66 347.78C348.429 347.78 347.531 348.645 347.531 350.041V350.822C347.531 352.209 348.346 353.083 349.728 353.083ZM348.41 350.021V349.938C348.41 349.084 348.913 348.522 349.665 348.522C350.417 348.522 350.915 349.084 350.915 349.938V350.021H348.41ZM353.71 350.842C353.71 352.219 354.53 353.083 355.853 353.083C357.211 353.083 357.831 352.331 357.86 351.574H357.001C356.908 351.965 356.625 352.312 355.868 352.312C355.077 352.312 354.593 351.745 354.593 350.852V350.031C354.593 349.133 355.028 348.552 355.868 348.552C356.669 348.552 356.908 349.045 356.962 349.348H357.826C357.801 348.571 357.137 347.78 355.853 347.78C354.535 347.78 353.71 348.654 353.71 350.002V350.842ZM361.91 353.083C363.208 353.083 363.829 352.277 363.907 351.73H362.998C362.911 352.048 362.505 352.336 361.905 352.336C361.05 352.336 360.591 351.716 360.591 350.92V350.661H363.975V350.041C363.975 348.659 363.086 347.78 361.841 347.78C360.611 347.78 359.712 348.645 359.712 350.041V350.822C359.712 352.209 360.528 353.083 361.91 353.083ZM360.591 350.021V349.938C360.591 349.084 361.094 348.522 361.846 348.522C362.598 348.522 363.096 349.084 363.096 349.938V350.021H360.591ZM366.14 353H367.024V350.139C367.024 349.25 367.463 348.552 368.366 348.552C369.065 348.552 369.48 348.967 369.48 349.772V353H370.363V349.494C370.363 348.342 369.655 347.78 368.62 347.78C367.546 347.78 367.19 348.391 367.063 348.796H367.014V347.863H366.14V353ZM373.056 347.878H372.265V348.596H373.051V351.56C373.051 352.575 373.314 353.044 374.535 353.044C374.73 353.044 375.092 353.02 375.165 353V352.292C375.082 352.302 374.887 352.316 374.76 352.316C374.135 352.316 373.93 352.16 373.93 351.555V348.596H375.092V347.878H373.93V346.589H373.056V347.878ZM380.256 353H382.698C384.124 353 385.022 352.302 385.022 351.13C385.022 350.192 384.456 349.602 383.572 349.484V349.445C384.251 349.24 384.646 348.732 384.646 347.976C384.646 346.965 383.923 346.335 382.786 346.335H380.256V353ZM381.15 347.106H382.629C383.333 347.106 383.743 347.482 383.743 348.127C383.743 348.854 383.254 349.196 382.156 349.196H381.15V347.106ZM381.15 349.948H382.722C383.601 349.948 384.104 350.383 384.104 351.13C384.104 351.901 383.582 352.229 382.293 352.229H381.15V349.948ZM392.075 348.156C391.904 346.994 390.971 346.198 389.628 346.198C387.958 346.198 386.943 347.36 386.943 349.196V350.104C386.943 352.014 387.919 353.137 389.643 353.137C391.235 353.137 392.119 352.175 392.119 350.886V349.514H389.56V350.28H391.245V350.905C391.245 351.735 390.703 352.341 389.638 352.341C388.496 352.341 387.841 351.516 387.841 350.104V349.196C387.841 347.814 388.505 346.994 389.609 346.994C390.424 346.994 391 347.438 391.176 348.156H392.075ZM397.342 353H398.226V345.983H397.342V353ZM402.646 353.083C403.945 353.083 404.565 352.277 404.643 351.73H403.735C403.647 352.048 403.242 352.336 402.641 352.336C401.787 352.336 401.328 351.716 401.328 350.92V350.661H404.712V350.041C404.712 348.659 403.823 347.78 402.578 347.78C401.347 347.78 400.449 348.645 400.449 350.041V350.822C400.449 352.209 401.264 353.083 402.646 353.083ZM401.328 350.021V349.938C401.328 349.084 401.831 348.522 402.583 348.522C403.335 348.522 403.833 349.084 403.833 349.938V350.021H401.328ZM408.068 353H408.981L410.841 347.863H409.899L408.537 352.092H408.503L407.238 347.863H406.261L408.068 353ZM414.554 353.083C415.853 353.083 416.473 352.277 416.551 351.73H415.643C415.555 352.048 415.15 352.336 414.549 352.336C413.695 352.336 413.236 351.716 413.236 350.92V350.661H416.62V350.041C416.62 348.659 415.731 347.78 414.486 347.78C413.255 347.78 412.357 348.645 412.357 350.041V350.822C412.357 352.209 413.172 353.083 414.554 353.083ZM413.236 350.021V349.938C413.236 349.084 413.739 348.522 414.491 348.522C415.243 348.522 415.741 349.084 415.741 349.938V350.021H413.236ZM418.814 353H419.697V345.983H418.814V353ZM425.575 353H426.459V348.596H427.64V347.878H426.449V347.434C426.449 346.823 426.708 346.647 427.313 346.647C427.44 346.647 427.694 346.657 427.772 346.667V345.954C427.67 345.944 427.416 345.925 427.186 345.925C426.039 345.925 425.575 346.379 425.575 347.365V347.878H424.711V348.596H425.575V353ZM429.83 353H430.718V349.826C430.718 349.128 431.168 348.586 432.071 348.586C432.227 348.586 432.403 348.596 432.486 348.615V347.81C432.383 347.795 432.276 347.785 432.164 347.785C431.255 347.785 430.884 348.317 430.757 348.654H430.713V347.863H429.83V353ZM436.321 347.78C435.037 347.78 434.099 348.664 434.099 350.051V350.808C434.099 352.272 435.022 353.083 436.321 353.083C437.595 353.083 438.537 352.258 438.537 350.808V350.046C438.537 348.615 437.595 347.78 436.321 347.78ZM436.326 348.532C437.151 348.532 437.649 349.187 437.649 350.124V350.744C437.649 351.696 437.175 352.336 436.326 352.336C435.466 352.336 434.983 351.696 434.983 350.744V350.124C434.983 349.187 435.5 348.532 436.326 348.532ZM440.722 353H441.606V349.733C441.606 349.03 442.07 348.547 442.714 348.547C443.388 348.547 443.803 349.001 443.803 349.67V353H444.677V349.743C444.677 349.04 445.17 348.547 445.81 348.547C446.503 348.547 446.874 348.977 446.874 349.636V353H447.758V349.387C447.758 348.356 447.118 347.78 446.069 347.78C445.199 347.78 444.711 348.244 444.501 348.747H444.462C444.301 348.195 443.813 347.78 443.036 347.78C442.089 347.78 441.762 348.317 441.645 348.684H441.596V347.863H440.722V353ZM340.62 360.842C340.62 362.219 341.44 363.083 342.764 363.083C344.121 363.083 344.741 362.331 344.771 361.574H343.911C343.818 361.965 343.535 362.312 342.778 362.312C341.987 362.312 341.504 361.745 341.504 360.852V360.031C341.504 359.133 341.938 358.552 342.778 358.552C343.579 358.552 343.818 359.045 343.872 359.348H344.736C344.712 358.571 344.048 357.78 342.764 357.78C341.445 357.78 340.62 358.654 340.62 360.002V360.842ZM348.845 357.78C347.56 357.78 346.623 358.664 346.623 360.051V360.808C346.623 362.272 347.546 363.083 348.845 363.083C350.119 363.083 351.061 362.258 351.061 360.808V360.046C351.061 358.615 350.119 357.78 348.845 357.78ZM348.849 358.532C349.675 358.532 350.173 359.187 350.173 360.124V360.744C350.173 361.696 349.699 362.336 348.849 362.336C347.99 362.336 347.507 361.696 347.507 360.744V360.124C347.507 359.187 348.024 358.532 348.849 358.532ZM353.246 363H354.129V360.139C354.129 359.25 354.569 358.552 355.472 358.552C356.171 358.552 356.586 358.967 356.586 359.772V363H357.469V359.494C357.469 358.342 356.761 357.78 355.726 357.78C354.652 357.78 354.296 358.391 354.169 358.796H354.12V357.863H353.246V363ZM359.883 363H360.767V360.139C360.767 359.25 361.206 358.552 362.11 358.552C362.808 358.552 363.223 358.967 363.223 359.772V363H364.107V359.494C364.107 358.342 363.399 357.78 362.364 357.78C361.289 357.78 360.933 358.391 360.806 358.796H360.757V357.863H359.883V363ZM368.469 363.083C369.768 363.083 370.388 362.277 370.466 361.73H369.558C369.47 362.048 369.065 362.336 368.464 362.336C367.61 362.336 367.151 361.716 367.151 360.92V360.661H370.534V360.041C370.534 358.659 369.646 357.78 368.401 357.78C367.17 357.78 366.272 358.645 366.272 360.041V360.822C366.272 362.209 367.087 363.083 368.469 363.083ZM367.151 360.021V359.938C367.151 359.084 367.654 358.522 368.405 358.522C369.157 358.522 369.655 359.084 369.655 359.938V360.021H367.151ZM372.45 360.842C372.45 362.219 373.271 363.083 374.594 363.083C375.951 363.083 376.571 362.331 376.601 361.574H375.741C375.648 361.965 375.365 362.312 374.608 362.312C373.817 362.312 373.334 361.745 373.334 360.852V360.031C373.334 359.133 373.769 358.552 374.608 358.552C375.409 358.552 375.648 359.045 375.702 359.348H376.566C376.542 358.571 375.878 357.78 374.594 357.78C373.275 357.78 372.45 358.654 372.45 360.002V360.842ZM378.971 357.878H378.179V358.596H378.966V361.56C378.966 362.575 379.229 363.044 380.45 363.044C380.645 363.044 381.007 363.02 381.08 363V362.292C380.997 362.302 380.802 362.316 380.675 362.316C380.05 362.316 379.845 362.16 379.845 361.555V358.596H381.007V357.878H379.845V356.589H378.971V357.878ZM385.1 363.083C386.399 363.083 387.019 362.277 387.097 361.73H386.189C386.101 362.048 385.696 362.336 385.095 362.336C384.241 362.336 383.782 361.716 383.782 360.92V360.661H387.166V360.041C387.166 358.659 386.277 357.78 385.032 357.78C383.801 357.78 382.903 358.645 382.903 360.041V360.822C382.903 362.209 383.718 363.083 385.1 363.083ZM383.782 360.021V359.938C383.782 359.084 384.285 358.522 385.037 358.522C385.789 358.522 386.287 359.084 386.287 359.938V360.021H383.782ZM391.074 357.785C389.877 357.785 389.081 358.625 389.081 359.934V360.93C389.081 362.238 389.858 363.073 391.054 363.073C391.806 363.073 392.446 362.702 392.597 362.18H392.641V363H393.491V355.983H392.607V358.625H392.563C392.358 358.103 391.796 357.785 391.074 357.785ZM391.254 358.542C392.036 358.542 392.607 359.118 392.607 359.934V360.822C392.607 361.745 392.084 362.316 391.279 362.316C390.463 362.316 389.97 361.735 389.97 360.739V360.114C389.97 359.128 390.454 358.542 391.254 358.542ZM398.968 356.335V363H401.136C403.079 363 404.07 361.843 404.07 359.665C404.07 357.487 403.079 356.335 401.136 356.335H398.968ZM399.866 357.121H401.072C402.459 357.121 403.138 357.971 403.138 359.67C403.138 361.369 402.464 362.209 401.072 362.209H399.866V357.121ZM408.281 363.083C409.58 363.083 410.2 362.277 410.278 361.73H409.37C409.282 362.048 408.877 362.336 408.276 362.336C407.422 362.336 406.963 361.716 406.963 360.92V360.661H410.346V360.041C410.346 358.659 409.458 357.78 408.213 357.78C406.982 357.78 406.084 358.645 406.084 360.041V360.822C406.084 362.209 406.899 363.083 408.281 363.083ZM406.963 360.021V359.938C406.963 359.084 407.466 358.522 408.218 358.522C408.97 358.522 409.468 359.084 409.468 359.938V360.021H406.963ZM415.397 363H416.442L414.689 360.383L416.427 357.863H415.421L414.215 359.763H414.176L413.004 357.863H411.95L413.678 360.461L411.969 363H412.956L414.162 361.096H414.196L415.397 363ZM418.06 360.842C418.06 362.219 418.88 363.083 420.204 363.083C421.561 363.083 422.181 362.331 422.21 361.574H421.351C421.258 361.965 420.975 362.312 420.218 362.312C419.427 362.312 418.944 361.745 418.944 360.852V360.031C418.944 359.133 419.378 358.552 420.218 358.552C421.019 358.552 421.258 359.045 421.312 359.348H422.176C422.152 358.571 421.488 357.78 420.204 357.78C418.885 357.78 418.06 358.654 418.06 360.002V360.842ZM426.284 357.78C425 357.78 424.063 358.664 424.063 360.051V360.808C424.063 362.272 424.986 363.083 426.284 363.083C427.559 363.083 428.501 362.258 428.501 360.808V360.046C428.501 358.615 427.559 357.78 426.284 357.78ZM426.289 358.532C427.114 358.532 427.613 359.187 427.613 360.124V360.744C427.613 361.696 427.139 362.336 426.289 362.336C425.43 362.336 424.946 361.696 424.946 360.744V360.124C424.946 359.187 425.464 358.532 426.289 358.532ZM430.686 363H431.569V359.733C431.569 359.03 432.033 358.547 432.678 358.547C433.352 358.547 433.767 359.001 433.767 359.67V363H434.641V359.743C434.641 359.04 435.134 358.547 435.773 358.547C436.467 358.547 436.838 358.977 436.838 359.636V363H437.722V359.387C437.722 358.356 437.082 357.78 436.032 357.78C435.163 357.78 434.675 358.244 434.465 358.747H434.426C434.265 358.195 433.776 357.78 433 357.78C432.053 357.78 431.726 358.317 431.608 358.684H431.56V357.863H430.686V363ZM448.023 358.156C447.852 356.994 446.92 356.198 445.577 356.198C443.907 356.198 442.891 357.36 442.891 359.196V360.104C442.891 362.014 443.868 363.137 445.591 363.137C447.183 363.137 448.067 362.175 448.067 360.886V359.514H445.508V360.28H447.193V360.905C447.193 361.735 446.651 362.341 445.587 362.341C444.444 362.341 443.79 361.516 443.79 360.104V359.196C443.79 357.814 444.454 356.994 445.557 356.994C446.373 356.994 446.949 357.438 447.125 358.156H448.023ZM454.661 357.717C454.607 356.979 453.865 356.208 452.61 356.208C451.125 356.208 450.09 357.355 450.09 359.929C450.09 360.925 450.281 361.638 450.583 362.131C451.052 362.888 451.785 363.137 452.502 363.137C453.811 363.137 454.802 362.302 454.802 360.837C454.802 359.445 453.747 358.708 452.712 358.708C451.741 358.708 451.204 359.245 451.018 359.709H450.969C450.969 357.854 451.658 356.975 452.58 356.975C453.332 356.975 453.689 357.409 453.762 357.717H454.661ZM451.091 360.881C451.091 360.051 451.687 359.46 452.512 359.46C453.225 359.46 453.918 359.914 453.918 360.891C453.918 361.896 453.288 362.37 452.507 362.37C451.746 362.37 451.091 361.828 451.091 360.881ZM461.7 357.785C460.504 357.785 459.708 358.625 459.708 359.934V360.93C459.708 362.238 460.484 363.073 461.681 363.073C462.433 363.073 463.072 362.702 463.224 362.18H463.268V363H464.117V355.983H463.233V358.625H463.189C462.984 358.103 462.423 357.785 461.7 357.785ZM461.881 358.542C462.662 358.542 463.233 359.118 463.233 359.934V360.822C463.233 361.745 462.711 362.316 461.905 362.316C461.09 362.316 460.597 361.735 460.597 360.739V360.114C460.597 359.128 461.08 358.542 461.881 358.542ZM468.523 363.083C469.822 363.083 470.442 362.277 470.52 361.73H469.612C469.524 362.048 469.119 362.336 468.518 362.336C467.664 362.336 467.205 361.716 467.205 360.92V360.661H470.589V360.041C470.589 358.659 469.7 357.78 468.455 357.78C467.224 357.78 466.326 358.645 466.326 360.041V360.822C466.326 362.209 467.141 363.083 468.523 363.083ZM467.205 360.021V359.938C467.205 359.084 467.708 358.522 468.46 358.522C469.212 358.522 469.71 359.084 469.71 359.938V360.021H467.205ZM473.945 363H474.858L476.718 357.863H475.776L474.414 362.092H474.379L473.115 357.863H472.138L473.945 363ZM478.478 356.281C478.478 356.633 478.746 356.887 479.098 356.887C479.469 356.887 479.738 356.633 479.738 356.281C479.738 355.925 479.469 355.671 479.098 355.671C478.746 355.671 478.478 355.925 478.478 356.281ZM478.663 363H479.547V357.863H478.663V363ZM481.863 360.842C481.863 362.219 482.684 363.083 484.007 363.083C485.364 363.083 485.985 362.331 486.014 361.574H485.154C485.062 361.965 484.779 362.312 484.022 362.312C483.231 362.312 482.747 361.745 482.747 360.852V360.031C482.747 359.133 483.182 358.552 484.022 358.552C484.822 358.552 485.062 359.045 485.115 359.348H485.98C485.955 358.571 485.291 357.78 484.007 357.78C482.689 357.78 481.863 358.654 481.863 360.002V360.842ZM490.063 363.083C491.362 363.083 491.982 362.277 492.061 361.73H491.152C491.064 362.048 490.659 362.336 490.059 362.336C489.204 362.336 488.745 361.716 488.745 360.92V360.661H492.129V360.041C492.129 358.659 491.24 357.78 489.995 357.78C488.765 357.78 487.866 358.645 487.866 360.041V360.822C487.866 362.209 488.682 363.083 490.063 363.083ZM488.745 360.021V359.938C488.745 359.084 489.248 358.522 490 358.522C490.752 358.522 491.25 359.084 491.25 359.938V360.021H488.745Z" fill="#ACACAC"/>
<path fill-rule="evenodd" clip-rule="evenodd" d="M429.375 329.615C429.375 331.485 431.072 332.904 432.884 332.438C454.228 326.946 470 307.564 470 284.498C470 257.161 447.847 235 420.521 235C420.232 235 420 235.235 420 235.524V241.482C420 241.769 420.234 242 420.521 242C443.979 242 463 261.024 463 284.498C463 304.086 449.754 320.576 431.738 325.498C430.371 325.872 429.375 327.085 429.375 328.502V329.615Z" fill="#FF5468"/>
<path d="M427 263.258C427 266.982 424.09 270 420.5 270C416.91 270 414 266.982 414 263.258C414 259.535 419.5 251 420.5 251C421.5 251 427 259.535 427 263.258Z" fill="#FF5468"/>
<path d="M402.058 296V278.004H398.525L394.267 281.063V284.333L398.354 281.432H398.525V296H402.058ZM406.949 287.404C406.949 292.836 409.494 296.343 413.765 296.343C418.037 296.343 420.634 292.796 420.634 287.404V286.6C420.634 281.155 418.116 277.662 413.831 277.662C409.533 277.662 406.949 281.208 406.949 286.6V287.404ZM410.509 286.613C410.509 282.83 411.748 280.575 413.792 280.575C415.835 280.575 417.074 282.83 417.074 286.613V287.378C417.074 291.175 415.822 293.442 413.792 293.442C411.761 293.442 410.509 291.175 410.509 287.378V286.613ZM423.64 294.049C423.64 295.38 424.668 296.264 425.934 296.264C427.239 296.264 428.267 295.38 428.267 294.049C428.267 292.691 427.252 291.781 425.934 291.781C424.655 291.781 423.64 292.665 423.64 294.049ZM431.945 291.386C432.064 294.207 434.556 296.343 438.313 296.343C442.347 296.343 445.089 293.838 445.089 289.962C445.089 286.218 442.413 284.122 439.315 284.122C437.285 284.122 436.059 285.071 435.703 285.651H435.518L435.914 280.878H444.087V278.004H433.066L432.314 288.499H435.426C435.808 287.787 436.784 286.837 438.379 286.837C440.172 286.837 441.648 288.103 441.648 290.081C441.648 292.269 440.08 293.535 438.379 293.535C436.889 293.535 435.479 292.81 435.215 291.386H431.945Z" fill="#F5F4F4"/>
<path d="M402.897 310H403.781V306.733C403.781 306.03 404.245 305.547 404.89 305.547C405.563 305.547 405.979 306.001 405.979 306.67V310H406.853V306.743C406.853 306.04 407.346 305.547 407.985 305.547C408.679 305.547 409.05 305.977 409.05 306.636V310H409.934V306.387C409.934 305.356 409.294 304.78 408.244 304.78C407.375 304.78 406.887 305.244 406.677 305.747H406.638C406.477 305.195 405.988 304.78 405.212 304.78C404.265 304.78 403.938 305.317 403.82 305.684H403.771V304.863H402.897V310ZM412.347 310H413.231V306.733C413.231 306.03 413.695 305.547 414.34 305.547C415.013 305.547 415.429 306.001 415.429 306.67V310H416.303V306.743C416.303 306.04 416.796 305.547 417.435 305.547C418.129 305.547 418.5 305.977 418.5 306.636V310H419.384V306.387C419.384 305.356 418.744 304.78 417.694 304.78C416.825 304.78 416.337 305.244 416.127 305.747H416.088C415.927 305.195 415.438 304.78 414.662 304.78C413.715 304.78 413.387 305.317 413.27 305.684H413.221V304.863H412.347V310ZM423.77 304.78C422.486 304.78 421.548 305.664 421.548 307.051V307.808C421.548 309.272 422.471 310.083 423.77 310.083C425.045 310.083 425.987 309.258 425.987 307.808V307.046C425.987 305.615 425.045 304.78 423.77 304.78ZM423.775 305.532C424.6 305.532 425.098 306.187 425.098 307.124V307.744C425.098 308.696 424.625 309.336 423.775 309.336C422.916 309.336 422.432 308.696 422.432 307.744V307.124C422.432 306.187 422.95 305.532 423.775 305.532ZM428.201 310H429.084V302.983H428.201V310ZM431.63 311.509L434.037 302.983H433.217L430.815 311.509H431.63ZM439.732 309.199H436.686V303.335H435.787V310H439.732V309.199Z" fill="#F5F4F4"/>
<path d="M351.302 223.799H346.732V215.002H345.384V225H351.302V223.799ZM355.909 217.17C353.983 217.17 352.577 218.496 352.577 220.576V221.711C352.577 223.909 353.961 225.125 355.909 225.125C357.821 225.125 359.234 223.887 359.234 221.711V220.569C359.234 218.423 357.821 217.17 355.909 217.17ZM355.917 218.298C357.154 218.298 357.901 219.28 357.901 220.686V221.616C357.901 223.044 357.191 224.004 355.917 224.004C354.627 224.004 353.902 223.044 353.902 221.616V220.686C353.902 219.28 354.679 218.298 355.917 218.298ZM364.244 226.707C363.233 226.707 362.611 226.252 362.508 225.71H361.161C361.263 226.831 362.23 227.82 364.2 227.82C366.17 227.82 367.591 226.89 367.591 224.766V217.295H366.324V218.459H366.258C366.002 217.83 365.182 217.178 364.024 217.178C362.318 217.178 360.992 218.401 360.992 220.43V221.624C360.992 223.652 362.325 224.861 364.032 224.861C365.101 224.861 365.892 224.319 366.192 223.652H366.266V224.773C366.266 225.981 365.599 226.707 364.244 226.707ZM364.354 218.313C365.562 218.313 366.266 219.338 366.266 220.466V221.631C366.266 222.729 365.599 223.748 364.369 223.748C363.175 223.748 362.325 222.803 362.325 221.396V220.671C362.325 219.265 363.102 218.313 364.354 218.313ZM373.553 225H377.215C379.354 225 380.702 223.953 380.702 222.195C380.702 220.789 379.852 219.902 378.526 219.727V219.668C379.544 219.36 380.138 218.599 380.138 217.463C380.138 215.947 379.054 215.002 377.347 215.002H373.553V225ZM374.894 216.16H377.113C378.167 216.16 378.783 216.724 378.783 217.69C378.783 218.782 378.05 219.294 376.402 219.294H374.894V216.16ZM374.894 220.422H377.252C378.57 220.422 379.325 221.074 379.325 222.195C379.325 223.352 378.541 223.843 376.607 223.843H374.894V220.422ZM390.23 217.734C389.974 215.991 388.575 214.797 386.561 214.797C384.056 214.797 382.533 216.541 382.533 219.294V220.657C382.533 223.521 383.998 225.205 386.583 225.205C388.971 225.205 390.296 223.762 390.296 221.829V219.771H386.458V220.92H388.985V221.858C388.985 223.103 388.172 224.011 386.576 224.011C384.862 224.011 383.88 222.773 383.88 220.657V219.294C383.88 217.222 384.876 215.991 386.532 215.991C387.755 215.991 388.619 216.658 388.883 217.734H390.23Z" fill="#FF5468"/>
<path d="M445.32 215.002V216.174H450.352V216.255L446.213 225H447.627L451.721 216.218V215.002H445.32ZM453.369 217.595C453.369 218.188 453.845 218.628 454.417 218.628C455.024 218.628 455.493 218.188 455.493 217.595C455.493 216.973 455.024 216.533 454.417 216.533C453.838 216.533 453.369 216.973 453.369 217.595ZM453.369 222.576C453.369 223.169 453.845 223.608 454.417 223.608C455.024 223.608 455.493 223.169 455.493 222.576C455.493 221.96 455.024 221.514 454.417 221.514C453.838 221.514 453.369 221.953 453.369 222.576ZM459.053 217.786C459.053 217.778 459.053 217.742 459.053 217.734C459.053 216.782 459.727 215.947 460.891 215.947C461.917 215.947 462.686 216.599 462.686 217.632C462.686 218.547 462.092 219.243 461.543 219.866L457.778 224.15V225H464.238V223.828H459.69V223.748L462.349 220.701C463.286 219.631 464.048 218.789 464.048 217.537C464.048 215.969 462.81 214.797 460.92 214.797C458.84 214.797 457.742 216.218 457.742 217.734V217.786H459.053ZM468.201 220.422H469.292C470.515 220.422 471.365 221.14 471.379 222.217C471.394 223.293 470.544 224.077 469.226 224.07C468.069 224.062 467.241 223.44 467.153 222.656H465.894C465.967 224.077 467.205 225.212 469.197 225.212C471.27 225.212 472.778 223.975 472.742 222.224C472.712 220.605 471.401 219.91 470.559 219.814V219.741C471.313 219.609 472.449 218.767 472.405 217.354C472.368 215.903 471.145 214.783 469.241 214.797C467.234 214.805 466.179 216.042 466.135 217.324H467.417C467.483 216.584 468.179 215.933 469.233 215.933C470.303 215.933 471.05 216.599 471.05 217.566C471.057 218.555 470.281 219.272 469.233 219.272H468.201V220.422ZM477.07 225.125C478.206 225.125 478.901 224.597 479.275 223.975H479.333V225H480.608V219.741C480.608 217.852 479.297 217.17 477.708 217.17C475.986 217.17 474.961 217.903 474.844 219.207H476.125C476.279 218.672 476.689 218.291 477.664 218.291C478.652 218.291 479.275 218.745 479.275 219.734V220.496H477.261C475.488 220.496 474.551 221.411 474.551 222.759C474.551 224.187 475.576 225.125 477.07 225.125ZM477.437 224.011C476.638 224.011 475.906 223.608 475.906 222.715C475.906 222.026 476.331 221.506 477.371 221.506H479.275V222.363C479.275 223.308 478.477 224.011 477.437 224.011ZM483.179 225H484.504V220.1C484.504 219.045 485.2 218.32 486.167 218.32C487.178 218.32 487.8 219.001 487.8 220.005V225H489.111V220.115C489.111 219.06 489.851 218.32 490.811 218.32C491.851 218.32 492.407 218.965 492.407 219.954V225H493.733V219.58C493.733 218.035 492.773 217.17 491.199 217.17C489.895 217.17 489.163 217.866 488.848 218.621H488.789C488.547 217.793 487.815 217.17 486.65 217.17C485.229 217.17 484.739 217.976 484.563 218.525H484.49V217.295H483.179V225Z" fill="#F5F4F4"/>
<rect x="340" y="371" width="160" height="39" rx="19.5" fill="#3A3B3D"/>
<path d="M386.781 395.938C385.172 395.938 384.148 394.93 384.148 393.273V386.336H382.711V393.32C382.711 395.656 384.328 397.219 386.781 397.219C389.227 397.219 390.852 395.656 390.852 393.32V386.336H389.406V393.273C389.406 394.922 388.383 395.938 386.781 395.938ZM397.445 397.125C399.406 397.125 400.633 395.773 400.633 393.594V392.18C400.633 390.016 399.422 388.656 397.492 388.656C396.312 388.656 395.367 389.203 395.031 390.086H394.961V388.773H393.602V399.727H395.016V395.781H395.086C395.469 396.648 396.312 397.125 397.445 397.125ZM397.156 395.914C395.891 395.914 395.016 395.008 395.016 393.688V392.258C395.016 390.773 395.82 389.867 397.117 389.867C398.453 389.867 399.211 390.812 399.211 392.461V393.336C399.211 394.977 398.453 395.914 397.156 395.914ZM405.82 388.656C403.906 388.656 402.633 390 402.633 392.094V393.688C402.633 395.781 403.875 397.117 405.789 397.117C406.992 397.117 408.016 396.523 408.258 395.688H408.328V397H409.688V385.773H408.273V390H408.203C407.875 389.164 406.977 388.656 405.82 388.656ZM406.109 389.867C407.359 389.867 408.273 390.789 408.273 392.094V393.516C408.273 394.992 407.438 395.906 406.148 395.906C404.844 395.906 404.055 394.977 404.055 393.383V392.383C404.055 390.805 404.828 389.867 406.109 389.867ZM414.719 397.133C415.93 397.133 416.672 396.57 417.07 395.906H417.133V397H418.492V391.391C418.492 389.375 417.094 388.648 415.398 388.648C413.562 388.648 412.469 389.43 412.344 390.82H413.711C413.875 390.25 414.312 389.844 415.352 389.844C416.406 389.844 417.07 390.328 417.07 391.383V392.195H414.922C413.031 392.195 412.031 393.172 412.031 394.609C412.031 396.133 413.125 397.133 414.719 397.133ZM415.109 395.945C414.258 395.945 413.477 395.516 413.477 394.562C413.477 393.828 413.93 393.273 415.039 393.273H417.07V394.188C417.07 395.195 416.219 395.945 415.109 395.945ZM421.68 388.805H420.414V389.953H421.672V394.695C421.672 396.32 422.094 397.07 424.047 397.07C424.359 397.07 424.938 397.031 425.055 397V395.867C424.922 395.883 424.609 395.906 424.406 395.906C423.406 395.906 423.078 395.656 423.078 394.688V389.953H424.938V388.805H423.078V386.742H421.68V388.805ZM430.367 397.133C432.445 397.133 433.438 395.844 433.562 394.969H432.109C431.969 395.477 431.32 395.938 430.359 395.938C428.992 395.938 428.258 394.945 428.258 393.672V393.258H433.672V392.266C433.672 390.055 432.25 388.648 430.258 388.648C428.289 388.648 426.852 390.031 426.852 392.266V393.516C426.852 395.734 428.156 397.133 430.367 397.133ZM428.258 392.234V392.102C428.258 390.734 429.062 389.836 430.266 389.836C431.469 389.836 432.266 390.734 432.266 392.102V392.234H428.258ZM439.727 397H443.633C445.914 397 447.352 395.883 447.352 394.008C447.352 392.508 446.445 391.562 445.031 391.375V391.312C446.117 390.984 446.75 390.172 446.75 388.961C446.75 387.344 445.594 386.336 443.773 386.336H439.727V397ZM441.156 387.57H443.523C444.648 387.57 445.305 388.172 445.305 389.203C445.305 390.367 444.523 390.914 442.766 390.914H441.156V387.57ZM441.156 392.117H443.672C445.078 392.117 445.883 392.812 445.883 394.008C445.883 395.242 445.047 395.766 442.984 395.766H441.156V392.117ZM457.516 389.25C457.242 387.391 455.75 386.117 453.602 386.117C450.93 386.117 449.305 387.977 449.305 390.914V392.367C449.305 395.422 450.867 397.219 453.625 397.219C456.172 397.219 457.586 395.68 457.586 393.617V391.422H453.492V392.648H456.188V393.648C456.188 394.977 455.32 395.945 453.617 395.945C451.789 395.945 450.742 394.625 450.742 392.367V390.914C450.742 388.703 451.805 387.391 453.57 387.391C454.875 387.391 455.797 388.102 456.078 389.25H457.516Z" fill="#F5F4F4"/>
<defs>
<filter id="filter0_f" x="54.4038" y="115.003" width="190.611" height="247.058" filterUnits="userSpaceOnUse" color-interpolation-filters="sRGB">
<feFlood flood-opacity="0" result="BackgroundImageFix"/>
<feBlend mode="normal" in="SourceGraphic" in2="BackgroundImageFix" result="shape"/>
<feGaussianBlur stdDeviation="1" result="effect1_foregroundBlur"/>
</filter>
<filter id="filter1_f" x="328.404" y="200.003" width="190.611" height="247.058" filterUnits="userSpaceOnUse" color-interpolation-filters="sRGB">
<feFlood flood-opacity="0" result="BackgroundImageFix"/>
<feBlend mode="normal" in="SourceGraphic" in2="BackgroundImageFix" result="shape"/>
<feGaussianBlur stdDeviation="1" result="effect1_foregroundBlur"/>
</filter>
<linearGradient id="paint0_linear" x1="273.708" y1="363.51" x2="170.789" y2="81.7737" gradientUnits="userSpaceOnUse">
<stop/>
<stop offset="1" stop-color="#111213"/>
</linearGradient>
<radialGradient id="paint1_radial" cx="0" cy="0" r="1" gradientUnits="userSpaceOnUse" gradientTransform="translate(149.709 100.45) rotate(90) scale(33.1922 125.315)">
<stop stop-color="white"/>
<stop offset="0.693332" stop-color="white" stop-opacity="0.1"/>
<stop offset="0.854167" stop-color="white" stop-opacity="0"/>
</radialGradient>
<radialGradient id="paint2_radial" cx="0" cy="0" r="1" gradientUnits="userSpaceOnUse" gradientTransform="translate(149.709 365.795) rotate(-90) scale(39.3611 148.605)">
<stop stop-color="white"/>
<stop offset="0.693332" stop-color="white" stop-opacity="0.1"/>
<stop offset="0.854167" stop-color="white" stop-opacity="0"/>
</radialGradient>
<radialGradient id="paint3_radial" cx="0" cy="0" r="1" gradientUnits="userSpaceOnUse" gradientTransform="translate(258.72 233.714) rotate(-177.739) scale(31.915 603.837)">
<stop stop-color="white"/>
<stop offset="0.328125" stop-color="white" stop-opacity="0.574068"/>
<stop offset="0.603763" stop-color="white" stop-opacity="0.1"/>
<stop offset="1" stop-color="white" stop-opacity="0"/>
</radialGradient>
<radialGradient id="paint4_radial" cx="0" cy="0" r="1" gradientUnits="userSpaceOnUse" gradientTransform="translate(38.902 233.714) rotate(-3.48096) scale(36.8604 697.209)">
<stop stop-color="white"/>
<stop offset="0.328125" stop-color="white" stop-opacity="0.574068"/>
<stop offset="0.603763" stop-color="white" stop-opacity="0.1"/>
<stop offset="1" stop-color="white" stop-opacity="0"/>
</radialGradient>
<radialGradient id="paint5_radial" cx="0" cy="0" r="1" gradientUnits="userSpaceOnUse" gradientTransform="translate(149.709 102.927) rotate(90) scale(3.46784 79.2074)">
<stop stop-color="white"/>
<stop offset="1" stop-color="white" stop-opacity="0"/>
</radialGradient>
<radialGradient id="paint6_radial" cx="0" cy="0" r="1" gradientUnits="userSpaceOnUse" gradientTransform="translate(149.709 363.51) rotate(-90) scale(0.932432 145.24)">
<stop stop-color="white"/>
<stop offset="1" stop-color="white" stop-opacity="0"/>
</radialGradient>
<radialGradient id="paint7_radial" cx="0" cy="0" r="1" gradientUnits="userSpaceOnUse" gradientTransform="translate(252.715 233.714) rotate(180) scale(1.90601 183.076)">
<stop stop-color="white"/>
<stop offset="1" stop-color="white" stop-opacity="0"/>
</radialGradient>
<radialGradient id="paint8_radial" cx="0" cy="0" r="1" gradientUnits="userSpaceOnUse" gradientTransform="translate(45.3029 233.714) scale(3.7333 358.591)">
<stop stop-color="white"/>
<stop offset="1" stop-color="white" stop-opacity="0"/>
</radialGradient>
<linearGradient id="paint9_linear" x1="262.031" y1="360.061" x2="163.222" y2="98.3775" gradientUnits="userSpaceOnUse">
<stop/>
<stop offset="1" stop-color="#111213"/>
</linearGradient>
<radialGradient id="paint10_radial" cx="0" cy="0" r="1" gradientUnits="userSpaceOnUse" gradientTransform="translate(149.709 100.45) rotate(90) scale(31.4137 165.692)">
<stop stop-color="white"/>
<stop offset="0.536458" stop-color="white" stop-opacity="0.24"/>
<stop offset="0.536558" stop-color="white" stop-opacity="0.1"/>
<stop offset="0.619792" stop-color="white" stop-opacity="0"/>
</radialGradient>
<radialGradient id="paint11_radial" cx="0" cy="0" r="1" gradientUnits="userSpaceOnUse" gradientTransform="translate(149.709 369.183) rotate(-90) scale(36.3276 191.61)">
<stop stop-color="white"/>
<stop offset="0.536458" stop-color="white" stop-opacity="0.24"/>
<stop offset="0.536558" stop-color="white" stop-opacity="0.1"/>
<stop offset="0.619792" stop-color="white" stop-opacity="0"/>
</radialGradient>
<radialGradient id="paint12_radial" cx="0" cy="0" r="1" gradientUnits="userSpaceOnUse" gradientTransform="translate(258.72 233.714) rotate(-180) scale(19.558 163.781)">
<stop stop-color="white"/>
<stop offset="0.328125" stop-color="white" stop-opacity="0.574068"/>
<stop offset="0.885417" stop-color="white" stop-opacity="0.17"/>
<stop offset="0.90625" stop-color="white" stop-opacity="0.09"/>
<stop offset="1" stop-color="white" stop-opacity="0"/>
</radialGradient>
<radialGradient id="paint13_radial" cx="0" cy="0" r="1" gradientUnits="userSpaceOnUse" gradientTransform="translate(40.034 233.714) scale(20.7701 173.931)">
<stop stop-color="white"/>
<stop offset="0.328125" stop-color="white" stop-opacity="0.574068"/>
<stop offset="0.885417" stop-color="white" stop-opacity="0.17"/>
<stop offset="0.90625" stop-color="white" stop-opacity="0.09"/>
<stop offset="1" stop-color="white" stop-opacity="0"/>
</radialGradient>
<radialGradient id="paint14_radial" cx="0" cy="0" r="1" gradientUnits="userSpaceOnUse" gradientTransform="translate(149.709 102.927) rotate(90) scale(3.46784 79.2074)">
<stop stop-color="white"/>
<stop offset="0.973958" stop-color="white" stop-opacity="0.15"/>
<stop offset="1" stop-color="white" stop-opacity="0"/>
</radialGradient>
<radialGradient id="paint15_radial" cx="0" cy="0" r="1" gradientUnits="userSpaceOnUse" gradientTransform="translate(149.709 365.756) rotate(-90) scale(4.11255 93.933)">
<stop stop-color="white"/>
<stop offset="0.973958" stop-color="white" stop-opacity="0.15"/>
<stop offset="1" stop-color="white" stop-opacity="0"/>
</radialGradient>
<radialGradient id="paint16_radial" cx="0" cy="0" r="1" gradientUnits="userSpaceOnUse" gradientTransform="translate(252.715 233.714) rotate(180) scale(1.90601 183.076)">
<stop stop-color="white"/>
<stop offset="0.916667" stop-color="white" stop-opacity="0.04"/>
<stop offset="1" stop-color="white" stop-opacity="0"/>
</radialGradient>
<radialGradient id="paint17_radial" cx="0" cy="0" r="1" gradientUnits="userSpaceOnUse" gradientTransform="translate(45.9902 233.714) scale(2.37214 227.849)">
<stop stop-color="white"/>
<stop offset="0.916667" stop-color="white" stop-opacity="0.04"/>
<stop offset="1" stop-color="white" stop-opacity="0"/>
</radialGradient>
<linearGradient id="paint18_linear" x1="262.331" y1="360.06" x2="162.963" y2="95.3839" gradientUnits="userSpaceOnUse">
<stop/>
<stop offset="1" stop-color="#111213"/>
</linearGradient>
<linearGradient id="paint19_linear" x1="547.708" y1="448.51" x2="444.789" y2="166.774" gradientUnits="userSpaceOnUse">
<stop/>
<stop offset="1" stop-color="#111213"/>
</linearGradient>
<radialGradient id="paint20_radial" cx="0" cy="0" r="1" gradientUnits="userSpaceOnUse" gradientTransform="translate(423.709 185.45) rotate(90) scale(33.1922 125.315)">
<stop stop-color="white"/>
<stop offset="0.693332" stop-color="white" stop-opacity="0.1"/>
<stop offset="0.854167" stop-color="white" stop-opacity="0"/>
</radialGradient>
<radialGradient id="paint21_radial" cx="0" cy="0" r="1" gradientUnits="userSpaceOnUse" gradientTransform="translate(423.709 450.795) rotate(-90) scale(39.3611 148.605)">
<stop stop-color="white"/>
<stop offset="0.693332" stop-color="white" stop-opacity="0.1"/>
<stop offset="0.854167" stop-color="white" stop-opacity="0"/>
</radialGradient>
<radialGradient id="paint22_radial" cx="0" cy="0" r="1" gradientUnits="userSpaceOnUse" gradientTransform="translate(532.72 318.714) rotate(-177.739) scale(31.915 603.837)">
<stop stop-color="white"/>
<stop offset="0.328125" stop-color="white" stop-opacity="0.574068"/>
<stop offset="0.603763" stop-color="white" stop-opacity="0.1"/>
<stop offset="1" stop-color="white" stop-opacity="0"/>
</radialGradient>
<radialGradient id="paint23_radial" cx="0" cy="0" r="1" gradientUnits="userSpaceOnUse" gradientTransform="translate(312.902 318.714) rotate(-3.48096) scale(36.8604 697.209)">
<stop stop-color="white"/>
<stop offset="0.328125" stop-color="white" stop-opacity="0.574068"/>
<stop offset="0.603763" stop-color="white" stop-opacity="0.1"/>
<stop offset="1" stop-color="white" stop-opacity="0"/>
</radialGradient>
<radialGradient id="paint24_radial" cx="0" cy="0" r="1" gradientUnits="userSpaceOnUse" gradientTransform="translate(423.709 187.927) rotate(90) scale(3.46784 79.2074)">
<stop stop-color="white"/>
<stop offset="1" stop-color="white" stop-opacity="0"/>
</radialGradient>
<radialGradient id="paint25_radial" cx="0" cy="0" r="1" gradientUnits="userSpaceOnUse" gradientTransform="translate(423.709 448.51) rotate(-90) scale(0.932432 145.24)">
<stop stop-color="white"/>
<stop offset="1" stop-color="white" stop-opacity="0"/>
</radialGradient>
<radialGradient id="paint26_radial" cx="0" cy="0" r="1" gradientUnits="userSpaceOnUse" gradientTransform="translate(526.715 318.714) rotate(180) scale(1.90601 183.076)">
<stop stop-color="white"/>
<stop offset="1" stop-color="white" stop-opacity="0"/>
</radialGradient>
<radialGradient id="paint27_radial" cx="0" cy="0" r="1" gradientUnits="userSpaceOnUse" gradientTransform="translate(319.303 318.714) scale(3.7333 358.591)">
<stop stop-color="white"/>
<stop offset="1" stop-color="white" stop-opacity="0"/>
</radialGradient>
<linearGradient id="paint28_linear" x1="536.031" y1="445.061" x2="437.222" y2="183.378" gradientUnits="userSpaceOnUse">
<stop/>
<stop offset="1" stop-color="#111213"/>
</linearGradient>
<radialGradient id="paint29_radial" cx="0" cy="0" r="1" gradientUnits="userSpaceOnUse" gradientTransform="translate(423.709 185.45) rotate(90) scale(31.4137 165.692)">
<stop stop-color="white"/>
<stop offset="0.536458" stop-color="white" stop-opacity="0.24"/>
<stop offset="0.536558" stop-color="white" stop-opacity="0.1"/>
<stop offset="0.619792" stop-color="white" stop-opacity="0"/>
</radialGradient>
<radialGradient id="paint30_radial" cx="0" cy="0" r="1" gradientUnits="userSpaceOnUse" gradientTransform="translate(423.709 454.183) rotate(-90) scale(36.3276 191.61)">
<stop stop-color="white"/>
<stop offset="0.536458" stop-color="white" stop-opacity="0.24"/>
<stop offset="0.536558" stop-color="white" stop-opacity="0.1"/>
<stop offset="0.619792" stop-color="white" stop-opacity="0"/>
</radialGradient>
<radialGradient id="paint31_radial" cx="0" cy="0" r="1" gradientUnits="userSpaceOnUse" gradientTransform="translate(532.72 318.714) rotate(-180) scale(19.558 163.781)">
<stop stop-color="white"/>
<stop offset="0.328125" stop-color="white" stop-opacity="0.574068"/>
<stop offset="0.885417" stop-color="white" stop-opacity="0.17"/>
<stop offset="0.90625" stop-color="white" stop-opacity="0.09"/>
<stop offset="1" stop-color="white" stop-opacity="0"/>
</radialGradient>
<radialGradient id="paint32_radial" cx="0" cy="0" r="1" gradientUnits="userSpaceOnUse" gradientTransform="translate(314.034 318.714) scale(20.7701 173.931)">
<stop stop-color="white"/>
<stop offset="0.328125" stop-color="white" stop-opacity="0.574068"/>
<stop offset="0.885417" stop-color="white" stop-opacity="0.17"/>
<stop offset="0.90625" stop-color="white" stop-opacity="0.09"/>
<stop offset="1" stop-color="white" stop-opacity="0"/>
</radialGradient>
<radialGradient id="paint33_radial" cx="0" cy="0" r="1" gradientUnits="userSpaceOnUse" gradientTransform="translate(423.709 187.927) rotate(90) scale(3.46784 79.2074)">
<stop stop-color="white"/>
<stop offset="0.973958" stop-color="white" stop-opacity="0.15"/>
<stop offset="1" stop-color="white" stop-opacity="0"/>
</radialGradient>
<radialGradient id="paint34_radial" cx="0" cy="0" r="1" gradientUnits="userSpaceOnUse" gradientTransform="translate(423.709 450.756) rotate(-90) scale(4.11255 93.933)">
<stop stop-color="white"/>
<stop offset="0.973958" stop-color="white" stop-opacity="0.15"/>
<stop offset="1" stop-color="white" stop-opacity="0"/>
</radialGradient>
<radialGradient id="paint35_radial" cx="0" cy="0" r="1" gradientUnits="userSpaceOnUse" gradientTransform="translate(526.715 318.714) rotate(180) scale(1.90601 183.076)">
<stop stop-color="white"/>
<stop offset="0.916667" stop-color="white" stop-opacity="0.04"/>
<stop offset="1" stop-color="white" stop-opacity="0"/>
</radialGradient>
<radialGradient id="paint36_radial" cx="0" cy="0" r="1" gradientUnits="userSpaceOnUse" gradientTransform="translate(319.99 318.714) scale(2.37214 227.849)">
<stop stop-color="white"/>
<stop offset="0.916667" stop-color="white" stop-opacity="0.04"/>
<stop offset="1" stop-color="white" stop-opacity="0"/>
</radialGradient>
<linearGradient id="paint37_linear" x1="536.331" y1="445.06" x2="436.963" y2="180.384" gradientUnits="userSpaceOnUse">
<stop/>
<stop offset="1" stop-color="#111213"/>
</linearGradient>
</defs>
</svg>
