<svg width="210" height="28" viewBox="0 0 210 28" fill="none" xmlns="http://www.w3.org/2000/svg">
<path d="M97 18.4839C97 23.1872 93.1944 27 88.5 27C83.8056 27 80 23.1872 80 18.4839C80 13.7805 87.998 3 88.5 3C89.002 3 97 13.7805 97 18.4839Z" fill="#FF5468"/>
<path d="M82.1821 16.8487C81.6991 18.7678 81.4457 22.778 84.2962 23.467C87.1467 24.1559 84.0745 19.3419 82.1821 16.8487Z" fill="#F74257"/>
<path d="M21.7461 9.70703C21.4863 5.29102 17.998 1.22754 11.374 1.22754C4.1377 1.22754 0.148438 5.95898 0.148438 12.7314V15.7744C0.148438 22.3799 3.58105 27.4639 11.3555 27.4639C18.6289 27.4639 21.8018 22.9551 21.8018 18.0195V13.084H11.6338V17.3701H16.0498V18.4834C16.0498 20.5986 14.5469 22.4727 11.4854 22.4727C7.7002 22.4727 6.30859 19.5781 6.30859 15.7559V12.7871C6.30859 8.6123 8.08984 6.21875 11.3184 6.21875C13.8789 6.21875 15.4561 7.74023 15.8086 9.70703H21.7461ZM26.5518 27H32.4707V0.336914H26.5518V27ZM56.1836 7.18359H50.2832V18.7061C50.2832 21.0439 48.6689 22.417 46.832 22.417C45.3662 22.417 43.7334 21.7305 43.7334 18.873V7.18359H37.8145V20.3945C37.8145 25.1445 40.4121 27.2969 44.3643 27.2969C47.834 27.2969 49.6338 25.2373 50.1533 23.6787H50.4502V27H56.1836V7.18359ZM60.5996 17.9824C60.5996 23.8271 64.0322 27.3711 69.7471 27.3711C75.2764 27.3711 78.2822 24.3652 78.3564 20.0234H73.0127C72.8457 21.7305 71.9736 22.8066 69.9512 22.8066C67.7988 22.8066 66.5371 21.0068 66.5371 17.9268V16.0527C66.5371 13.2139 67.7803 11.3955 69.9512 11.3955C71.918 11.3955 72.8457 12.8428 72.957 14.29H78.3008C78.2451 10.0039 75.0723 6.83105 69.7656 6.83105C64.1621 6.83105 60.5996 10.4121 60.5996 16.0156V17.9824ZM104.815 12.9541C104.815 8.66797 106.597 6.25586 109.64 6.25586C112.293 6.25586 113.944 8.18555 114.074 10.7646H119.882V10.0596C119.752 4.75293 115.484 1.22754 109.603 1.22754C102.552 1.22754 98.5996 5.73633 98.5996 12.9541V15.7744C98.5996 22.9736 102.515 27.4639 109.603 27.4639C115.466 27.4639 119.752 23.9756 119.882 18.7803V18.0566H114.074C113.944 20.5801 112.33 22.417 109.64 22.417C106.578 22.417 104.815 20.0605 104.815 15.793V12.9541ZM124.446 27H130.347V16.0527C130.347 13.3623 131.812 11.7852 133.854 11.7852C135.486 11.7852 137.008 12.6943 137.008 15.4775V27H142.927V13.9189C142.927 9.22461 140.255 6.88672 136.396 6.88672C132.722 6.88672 131.07 9.16895 130.644 10.6162H130.347V0.336914H124.446V27ZM156.62 27.3711C162.688 27.3711 165.174 23.5674 165.304 20.877H159.886C159.737 22.1201 158.383 22.9922 156.602 22.9922C154.505 22.9922 152.965 21.5264 152.965 19.2256V18.3164H165.434V16.127C165.434 10.3564 161.723 6.83105 156.36 6.83105C151.313 6.83105 147.213 9.92969 147.213 16.127V18.0195C147.213 24.1982 150.998 27.3711 156.62 27.3711ZM152.965 14.9951V14.8652C152.965 12.583 154.375 11.0615 156.416 11.0615C158.457 11.0615 159.774 12.583 159.774 14.8652V14.9951H152.965ZM168.959 17.9824C168.959 23.8271 172.392 27.3711 178.106 27.3711C183.636 27.3711 186.642 24.3652 186.716 20.0234H181.372C181.205 21.7305 180.333 22.8066 178.311 22.8066C176.158 22.8066 174.896 21.0068 174.896 17.9268V16.0527C174.896 13.2139 176.14 11.3955 178.311 11.3955C180.277 11.3955 181.205 12.8428 181.316 14.29H186.66C186.604 10.0039 183.432 6.83105 178.125 6.83105C172.521 6.83105 168.959 10.4121 168.959 16.0156V17.9824ZM196.902 20.3574L198.071 18.9844L203.118 27H209.983L202.617 15.7002L209.501 7.18359H202.877L197.181 15.0322H196.902V0.336914H190.983V27H196.902V20.3574Z" fill="#FF5468"/>
</svg>
