<svg width="231" height="147" viewBox="0 0 231 147" fill="none" xmlns="http://www.w3.org/2000/svg">
<g filter="url(#filter0_d)">
<path fill-rule="evenodd" clip-rule="evenodd" d="M4 13.0884C4 7.56553 8.47715 3.08838 14 3.08838H213.188C218.711 3.08838 223.188 7.56553 223.188 13.0884V27.7998H4V13.0884ZM4 49.4221H223.188V129C223.188 134.523 218.711 139 213.188 139H14C8.47716 139 4 134.523 4 129V49.4221ZM38.4017 108.111C37.2972 108.111 36.4017 109.006 36.4017 110.111V114.348C36.4017 115.453 37.2972 116.348 38.4017 116.348H189.739C190.844 116.348 191.739 115.453 191.739 114.348V110.111C191.739 109.006 190.844 108.111 189.739 108.111H38.4017Z" fill="#F2F2F2"/>
<rect x="20.3456" y="67.7456" width="32.6911" height="25.7308" rx="3" fill="#2E8B81"/>
<mask id="path-4-inside-1" fill="white">
<path fill-rule="evenodd" clip-rule="evenodd" d="M7.81189 10C7.81189 4.47715 12.289 0 17.8119 0H217C222.523 0 227 4.47715 227 10V24.7109H7.81189V46.3332H227V125.912C227 131.434 222.523 135.912 217 135.912H17.8119C12.289 135.912 7.81189 131.434 7.81189 125.912V10ZM42.2137 105.022C41.1091 105.022 40.2137 105.917 40.2137 107.022V111.259C40.2137 112.364 41.1091 113.259 42.2137 113.259H193.551C194.656 113.259 195.551 112.364 195.551 111.259V107.022C195.551 105.917 194.656 105.022 193.551 105.022H42.2137Z"/>
</mask>
<path d="M227 24.7109V25.0109H227.3V24.7109H227ZM7.81189 24.7109V24.4109H7.51189V24.7109H7.81189ZM7.81189 46.3332H7.51189V46.6332H7.81189V46.3332ZM227 46.3332H227.3V46.0332H227V46.3332ZM17.8119 -0.3C12.1234 -0.3 7.51189 4.31146 7.51189 10H8.11189C8.11189 4.64283 12.4547 0.3 17.8119 0.3V-0.3ZM217 -0.3H17.8119V0.3H217V-0.3ZM227.3 10C227.3 4.31147 222.689 -0.3 217 -0.3V0.3C222.357 0.3 226.7 4.64284 226.7 10H227.3ZM227.3 24.7109V10H226.7V24.7109H227.3ZM7.81189 25.0109H227V24.4109H7.81189V25.0109ZM8.11189 46.3332V24.7109H7.51189V46.3332H8.11189ZM227 46.0332H7.81189V46.6332H227V46.0332ZM227.3 125.912V46.3332H226.7V125.912H227.3ZM217 136.212C222.689 136.212 227.3 131.6 227.3 125.912H226.7C226.7 131.269 222.357 135.612 217 135.612V136.212ZM17.8119 136.212H217V135.612H17.8119V136.212ZM7.51189 125.912C7.51189 131.6 12.1234 136.212 17.8119 136.212V135.612C12.4547 135.612 8.11189 131.269 8.11189 125.912H7.51189ZM7.51189 10V125.912H8.11189V10H7.51189ZM40.5137 107.022C40.5137 106.083 41.2748 105.322 42.2137 105.322V104.722C40.9434 104.722 39.9137 105.752 39.9137 107.022H40.5137ZM40.5137 111.259V107.022H39.9137V111.259H40.5137ZM42.2137 112.959C41.2748 112.959 40.5137 112.198 40.5137 111.259H39.9137C39.9137 112.529 40.9434 113.559 42.2137 113.559V112.959ZM193.551 112.959H42.2137V113.559H193.551V112.959ZM195.251 111.259C195.251 112.198 194.49 112.959 193.551 112.959V113.559C194.822 113.559 195.851 112.529 195.851 111.259H195.251ZM195.251 107.022V111.259H195.851V107.022H195.251ZM193.551 105.322C194.49 105.322 195.251 106.083 195.251 107.022H195.851C195.851 105.752 194.822 104.722 193.551 104.722V105.322ZM42.2137 105.322H193.551V104.722H42.2137V105.322Z" fill="#282F36" mask="url(#path-4-inside-1)"/>
<rect x="23.9981" y="65.5563" width="32.3911" height="24.2612" rx="2.85" stroke="#282F36" stroke-width="0.3"/>
<rect x="8.00291" y="24.711" width="218.847" height="21.9221" stroke="black" stroke-width="0.3"/>
</g>
<defs>
<filter id="filter0_d" x="0" y="0" width="231" height="147" filterUnits="userSpaceOnUse" color-interpolation-filters="sRGB">
<feFlood flood-opacity="0" result="BackgroundImageFix"/>
<feColorMatrix in="SourceAlpha" type="matrix" values="0 0 0 0 0 0 0 0 0 0 0 0 0 0 0 0 0 0 127 0"/>
<feOffset dy="4"/>
<feGaussianBlur stdDeviation="2"/>
<feColorMatrix type="matrix" values="0 0 0 0 0 0 0 0 0 0 0 0 0 0 0 0 0 0 0.25 0"/>
<feBlend mode="normal" in2="BackgroundImageFix" result="effect1_dropShadow"/>
<feBlend mode="normal" in="SourceGraphic" in2="effect1_dropShadow" result="shape"/>
</filter>
</defs>
</svg>
