<svg width="113" height="48" viewBox="0 0 113 48" fill="none" xmlns="http://www.w3.org/2000/svg">
<path d="M12.389 3.84065C11.8201 3.78962 11.2476 3.88185 10.7236 4.10893C10.1995 4.33601 9.74071 4.69071 9.38897 5.14065C8.71897 6.14065 8.61897 7.14065 8.61897 9.36065V9.94065C8.6216 10.2837 8.75973 10.6118 9.00325 10.8534C9.24676 11.0951 9.57591 11.2307 9.91897 11.2307H9.99897C11.018 11.2415 12.0367 11.188 13.049 11.0707C13.2317 11.0415 13.4186 11.0526 13.5966 11.1033C13.7745 11.1539 13.9393 11.2428 14.0793 11.3638C14.2194 11.4847 14.3313 11.6348 14.4072 11.8036C14.4831 11.9723 14.5213 12.1556 14.519 12.3407C14.519 12.5907 14.519 12.8807 14.519 13.2007C14.519 13.5207 14.519 13.7807 14.519 14.0207C14.5201 14.2012 14.4829 14.3799 14.41 14.5451C14.3371 14.7103 14.2301 14.8582 14.096 14.9791C13.9619 15.1 13.8037 15.1911 13.6319 15.2465C13.4601 15.302 13.2784 15.3204 13.099 15.3007C12.0712 15.1675 11.0353 15.1074 9.99897 15.1207H8.69897V24.5807C8.69897 33.8407 9.47897 35.2707 10.019 36.1607C10.559 37.0507 10.019 37.3507 9.32897 37.5207C8.00459 37.7101 6.6659 37.7804 5.32897 37.7307C1.72897 37.7307 1.32897 37.3407 1.32897 37.3407C1.23939 37.2991 1.15918 37.2398 1.09318 37.1664C1.02718 37.0929 0.976764 37.0069 0.94498 36.9134C0.913197 36.8199 0.900707 36.721 0.908268 36.6225C0.915828 36.5241 0.943281 36.4282 0.988966 36.3407C1.63897 35.0007 1.84897 33.2507 1.84897 24.7307V15.6107C1.84897 15.5148 1.83008 15.4199 1.7934 15.3313C1.75671 15.2427 1.70294 15.1623 1.63515 15.0945C1.56737 15.0267 1.48689 14.9729 1.39832 14.9362C1.30976 14.8995 1.21483 14.8807 1.11897 14.8807H0.718966C0.578609 14.8785 0.44184 14.836 0.325045 14.7581C0.20825 14.6802 0.116384 14.5704 0.060452 14.4416C0.00452011 14.3129 -0.013105 14.1707 0.00968831 14.0322C0.0324816 13.8937 0.0947267 13.7647 0.188966 13.6607C1.22757 12.5622 1.81327 11.1123 1.82897 9.60065V8.88065C2.21897 4.08065 3.99897 0.000651595 12.149 0.000651595C13.1516 -0.00681953 14.1536 0.0499635 15.149 0.170652C15.4689 0.205957 15.7633 0.362395 15.9715 0.60786C16.1798 0.853325 16.2862 1.1692 16.269 1.49065C16.269 1.96065 16.269 2.54065 16.269 3.12065V3.25065C16.2732 3.48552 16.2132 3.71708 16.0954 3.92034C15.9777 4.12361 15.8067 4.29087 15.6008 4.40407C15.395 4.51728 15.1622 4.57213 14.9275 4.56272C14.6928 4.5533 14.4651 4.47998 14.269 4.35065C13.6939 4.02833 13.0481 3.85313 12.389 3.84065Z" fill="#2E8B81"/>
<path d="M28.2389 15.3106C25.0489 15.3106 24.0289 16.9806 23.7889 17.5006C23.7498 17.5958 23.7294 17.6977 23.7289 17.8006V24.7206C23.7289 33.0606 23.3089 34.3606 23.9689 34.9806C25.0389 35.9806 25.3089 36.4406 25.2389 36.8606C25.1389 37.4906 24.6089 37.6206 23.8089 37.6406C23.5226 37.6597 23.2353 37.6597 22.9489 37.6406H20.3689C16.7689 37.6406 17.8889 37.6406 16.7989 37.6406C16.6418 37.6403 16.4874 37.5993 16.3508 37.5215C16.2143 37.4438 16.1001 37.332 16.0196 37.1971C15.939 37.0622 15.8948 36.9087 15.8912 36.7516C15.8876 36.5945 15.9247 36.4391 15.9989 36.3006C16.7689 34.7906 16.9989 35.1806 16.9989 24.7206V23.0006C16.9989 14.7006 16.8389 13.4206 16.2489 12.7706C15.2489 11.6506 15.6289 10.9706 17.2489 10.7706L22.8289 10.0806C22.9344 10.0645 23.0422 10.0717 23.1446 10.1018C23.247 10.1318 23.3416 10.184 23.4217 10.2545C23.5018 10.3251 23.5655 10.4123 23.6082 10.5101C23.6509 10.6079 23.6716 10.7139 23.6689 10.8206V12.5006C23.6622 12.6652 23.7113 12.8273 23.8083 12.9604C23.9053 13.0936 24.0445 13.19 24.2032 13.2341C24.362 13.2781 24.5309 13.2671 24.6827 13.203C24.8344 13.1388 24.9599 13.0252 25.0389 12.8806C25.5494 11.9295 26.3103 11.1361 27.2391 10.5862C28.168 10.0363 29.2295 9.75081 30.3089 9.76064C31.3209 9.70567 32.33 9.91231 33.2389 10.3606C33.3539 10.4217 33.4489 10.5144 33.5127 10.6279C33.5766 10.7413 33.6065 10.8707 33.5989 11.0006C33.5989 11.5206 33.5289 12.5906 33.5289 14.2706C33.5289 15.0306 33.5289 15.6606 33.5289 16.1806C33.5287 16.3218 33.4876 16.46 33.4104 16.5782C33.3333 16.6965 33.2235 16.7899 33.0944 16.8471C32.9653 16.9042 32.8223 16.9227 32.6829 16.9003C32.5435 16.8778 32.4136 16.8154 32.3089 16.7206C31.1836 15.7456 29.7263 15.2408 28.2389 15.3106Z" fill="#2E8B81"/>
<path d="M41.109 24.5107C40.9291 24.5086 40.7507 24.5442 40.5854 24.6152C40.42 24.6862 40.2714 24.791 40.149 24.9228C40.0265 25.0546 39.933 25.2106 39.8745 25.3808C39.8159 25.5509 39.7936 25.7314 39.809 25.9107C40.189 30.1107 42.379 33.5807 47.619 33.5807C49.4126 33.6286 51.1986 33.3298 52.879 32.7007C53.1484 32.6034 53.4424 32.5972 53.7157 32.6829C53.9891 32.7687 54.2268 32.9417 54.3924 33.1754C54.5581 33.4091 54.6426 33.6907 54.6329 33.977C54.6232 34.2634 54.52 34.5386 54.339 34.7607C52.809 36.6107 49.999 38.0007 45.459 38.0007C39.169 38.0007 32.689 34.6407 32.689 23.8807C32.689 14.1407 37.779 9.43066 45.169 9.43066C56.259 9.43066 56.879 18.6007 56.879 24.0307V24.5107H41.109ZM45.109 13.0307C42.319 13.0307 40.109 14.4207 39.789 20.0307C39.7778 20.2174 39.8074 20.4043 39.8757 20.5784C39.944 20.7525 40.0493 20.9097 40.1844 21.0391C40.3195 21.1685 40.4811 21.2669 40.658 21.3276C40.8349 21.3883 41.0229 21.4098 41.209 21.3907L48.809 20.6807C49.1387 20.6551 49.4461 20.5039 49.6675 20.2583C49.889 20.0126 50.0076 19.6913 49.999 19.3607C49.899 16.1707 49.209 13.0007 45.119 13.0007L45.109 13.0307Z" fill="#2E8B81"/>
<path d="M62.069 24.5107C61.8891 24.5086 61.7107 24.5442 61.5454 24.6152C61.3801 24.6862 61.2314 24.791 61.109 24.9228C60.9865 25.0546 60.8931 25.2106 60.8345 25.3808C60.7759 25.5509 60.7536 25.7314 60.769 25.9107C61.149 30.1107 63.349 33.5807 68.579 33.5807C70.3725 33.6271 72.1582 33.3283 73.839 32.7007C74.1085 32.6034 74.4024 32.5972 74.6757 32.6829C74.9491 32.7687 75.1868 32.9417 75.3525 33.1754C75.5181 33.4091 75.6026 33.6907 75.5929 33.977C75.5833 34.2634 75.48 34.5386 75.299 34.7607C73.769 36.6107 70.999 38.0007 66.419 38.0007C60.129 38.0007 53.649 34.6407 53.649 23.8807C53.649 14.1407 58.739 9.43066 66.129 9.43066C77.219 9.43066 77.589 17.0607 77.829 22.0607C77.829 22.0607 77.979 24.5907 74.949 24.5507L62.069 24.5107ZM66.069 13.0307C63.279 13.0307 61.069 14.4207 60.749 20.0307C60.7378 20.2174 60.7674 20.4043 60.8357 20.5784C60.904 20.7525 61.0093 20.9097 61.1444 21.0391C61.2795 21.1685 61.4411 21.2669 61.618 21.3276C61.7949 21.3883 61.9829 21.4098 62.169 21.3907L69.769 20.6807C70.1076 20.6651 70.4265 20.5168 70.6567 20.2679C70.8869 20.019 71.0099 19.6895 70.999 19.3507C70.859 16.1707 70.169 13.0007 66.079 13.0007L66.069 13.0307Z" fill="#2E8B81"/>
<path d="M82.529 38.0008C80.929 38.0008 80.059 38.0008 79.599 38.0008C79.2242 37.9916 78.8571 37.8921 78.529 37.7108C78.2663 37.5647 78.059 37.3363 77.939 37.0608C77.399 35.3508 79.129 34.8608 79.129 25.0608V13.9308C79.129 6.69079 78.749 4.71079 78.129 3.25079C77.939 2.75079 77.689 2.10079 78.129 1.69079C78.569 1.28079 78.749 1.36079 80.559 1.04079L84.569 0.460791C84.755 0.434754 84.9445 0.449341 85.1243 0.503549C85.3042 0.557756 85.4701 0.650296 85.6108 0.774798C85.7514 0.899299 85.8635 1.0528 85.9391 1.22474C86.0147 1.39669 86.0522 1.58298 86.049 1.77079C86.049 3.62079 85.939 6.87079 85.939 9.95079V25.0008C85.939 34.6508 88.139 35.1408 87.399 37.0708C87.059 37.9708 85.499 37.9808 85.499 37.9808L82.529 38.0008Z" fill="#2E8B81"/>
<path d="M109.099 21.0007L102.529 40.6807C100.699 46.1107 97.819 47.6807 93.449 47.6807C92.1594 47.7053 90.8703 47.6082 89.599 47.3907C89.3089 47.3316 89.0492 47.1716 88.8661 46.939C88.683 46.7065 88.5883 46.4165 88.599 46.1207C88.599 45.5807 88.599 44.8207 88.599 43.8807C88.6026 43.65 88.6694 43.4248 88.7922 43.2296C88.915 43.0343 89.089 42.8765 89.2953 42.7734C89.5016 42.6702 89.7323 42.6257 89.9622 42.6446C90.1921 42.6635 90.4123 42.7452 90.599 42.8807C91.2389 43.388 92.0439 43.6409 92.859 43.5907C95.259 43.5907 96.269 42.3007 96.989 40.1407L97.319 39.2307L90.569 21.0507C89.5362 17.915 88.3037 14.8488 86.879 11.8707C86.7688 11.678 86.7119 11.4595 86.7142 11.2375C86.7164 11.0156 86.7777 10.7983 86.8917 10.6079C87.0058 10.4175 87.1685 10.2609 87.363 10.1542C87.5576 10.0475 87.7771 9.99447 87.999 10.0007C88.829 10.0007 89.859 10.0007 91.099 10.0007C92.339 10.0007 93.489 10.0007 94.319 10.0007C94.5116 9.99514 94.7028 10.035 94.8773 10.1169C95.0517 10.1988 95.2044 10.3206 95.3231 10.4724C95.4418 10.6242 95.5232 10.8018 95.5607 10.9908C95.5982 11.1798 95.5908 11.375 95.539 11.5607C95.4238 11.9672 95.3666 12.3881 95.369 12.8107C95.369 14.3507 95.899 16.4607 97.199 20.5907L99.889 29.0007C100.196 30.041 100.437 31.0998 100.609 32.1707C100.768 31.1574 100.992 30.1553 101.279 29.1707L103.679 20.9207C104.929 16.6007 105.549 14.2907 105.549 12.8507C105.556 12.4377 105.498 12.0261 105.379 11.6307C105.316 11.44 105.3 11.2368 105.332 11.0386C105.365 10.8403 105.445 10.653 105.566 10.4926C105.687 10.3322 105.845 10.2037 106.027 10.118C106.208 10.0323 106.408 9.99202 106.609 10.0007H109.099H111.409C111.629 9.99679 111.846 10.0507 112.039 10.1569C112.232 10.2632 112.394 10.4181 112.508 10.6062C112.622 10.7944 112.685 11.0092 112.691 11.2293C112.696 11.4494 112.644 11.6671 112.539 11.8607C111.14 14.8065 109.99 17.8637 109.099 21.0007Z" fill="#2E8B81"/>
</svg>
