<svg width="34" height="58" viewBox="0 0 34 58" fill="none" xmlns="http://www.w3.org/2000/svg">
<g clip-path="url(#clip0)">
<path d="M33.9999 10.5953V22.9599C34.0029 23.4106 33.8335 23.8458 33.5254 24.1791L27.5055 30.5852C26.4936 31.6599 24.7749 30.8925 24.7749 29.3674V4.14432C24.7749 2.61505 26.5008 1.84901 27.5098 2.93072L33.5311 9.38452C33.8343 9.71704 34.0013 10.1485 33.9999 10.5953Z" fill="url(#paint0_linear)"/>
<path d="M31.1196 9.88413H3.11668C2.01075 9.88413 1.45637 8.45167 2.23878 7.61268L8.97835 0.390034C9.08921 0.268275 9.2247 0.170678 9.37613 0.103509C9.52756 0.0363404 9.69158 0.00108298 9.85767 0L24.3786 0C24.5444 0.00144991 24.7081 0.0368787 24.8593 0.10403C25.0104 0.171182 25.1457 0.268584 25.2565 0.390034L33.5723 9.42255C33.6068 9.4627 33.6291 9.51158 33.6368 9.56363C33.6444 9.61567 33.637 9.66879 33.6155 9.71691C33.5939 9.76503 33.5591 9.80622 33.5149 9.83578C33.4708 9.86535 33.419 9.8821 33.3657 9.88413H31.1196Z" fill="url(#paint1_linear)"/>
<path d="M23.5764 33.4842L2.93298 33.5515C1.31543 33.5557 4.1326e-06 32.1527 4.1326e-06 30.4186V26.8087C4.1326e-06 26.4243 4.1326e-06 26.117 4.1326e-06 25.8575C-0.000558027 25.5711 0.0562382 25.2875 0.167142 25.0229C0.278046 24.7582 0.44088 24.5177 0.646325 24.315C0.85177 24.1124 1.09579 23.9516 1.36442 23.8419C1.63306 23.7322 1.92103 23.6758 2.21185 23.6758H33.1634C33.2346 23.6754 33.3042 23.6956 33.3639 23.7337C33.4235 23.7719 33.4706 23.8263 33.4992 23.8904C33.5278 23.9545 33.5368 24.0255 33.525 24.0945C33.5132 24.1636 33.4811 24.2277 33.4328 24.2791L28.9606 29.0324L25.6258 32.5764C25.3664 32.8588 25.0504 33.0853 24.6976 33.2415C24.3449 33.3978 23.9632 33.4804 23.5764 33.4842Z" fill="url(#paint2_linear)"/>
<path d="M10.0528 0.385869V55.6192C10.0528 56.2517 9.79756 56.8584 9.3432 57.3057C8.88885 57.753 8.2726 58.0042 7.63005 58.0042H2.43107C1.78851 58.0042 1.17227 57.753 0.717913 57.3057C0.263556 56.8584 0.00830078 56.2517 0.00830078 55.6192V10.4973C0.00982346 9.87355 0.259486 9.27521 0.703778 8.83052L9.18062 0.216106C9.73501 -0.12342 10.0528 4.36604e-05 10.0528 0.385869Z" fill="#EDEDED"/>
<path d="M34 10.5984V22.9662C34.0029 23.417 33.8335 23.8523 33.5254 24.1857L27.5055 30.5935C26.4936 31.6684 24.7749 30.9008 24.7749 29.3754V4.14574C24.7749 2.61607 26.5008 1.84984 27.5098 2.93183L33.5311 9.38729C33.8343 9.71989 34.0014 10.1514 34 10.5984Z" fill="url(#paint3_linear)"/>
<path d="M31.1196 9.88668H3.11668C2.01075 9.88668 1.45637 8.45385 2.23878 7.61464L8.97836 0.390134C9.08922 0.268344 9.22471 0.170722 9.37614 0.103536C9.52757 0.0363498 9.69159 0.00108326 9.85768 0L24.3786 0C24.5445 0.00145029 24.7081 0.0368882 24.8593 0.104057C25.0104 0.171226 25.1457 0.268653 25.2565 0.390134L33.5723 9.42497C33.6068 9.46514 33.6292 9.51403 33.6368 9.56609C33.6444 9.61815 33.6371 9.67128 33.6155 9.71941C33.594 9.76754 33.5591 9.80874 33.515 9.83832C33.4708 9.86789 33.4191 9.88465 33.3657 9.88668H31.1196Z" fill="url(#paint4_linear)"/>
<path d="M23.5764 33.4927L2.93298 33.5601C1.31543 33.5643 4.13261e-06 32.1609 4.13261e-06 30.4264V26.8155C4.13261e-06 26.431 4.13261e-06 26.1236 4.13261e-06 25.864C-0.000558027 25.5777 0.0562383 25.294 0.167142 25.0292C0.278046 24.7645 0.440881 24.5239 0.646326 24.3212C0.851771 24.1185 1.09579 23.9577 1.36443 23.848C1.63306 23.7383 1.92103 23.6818 2.21185 23.6818H33.1635C33.2346 23.6815 33.3049 23.6818 33.6209 23.6818C33.6841 23.6818 33.7818 23.6756 33.8104 23.7398C33.8391 23.8039 33.7472 23.8886 33.6841 23.9518C33.6841 24.015 33.4812 24.2339 33.4328 24.2852L28.9607 29.0398L25.6258 32.5847C25.3664 32.8672 25.0504 33.0937 24.6977 33.25C24.3449 33.4063 23.9632 33.4889 23.5764 33.4927Z" fill="url(#paint5_linear)"/>
<path d="M10.0523 0.384498V55.632C10.0523 56.2647 9.79709 56.8716 9.34273 57.319C8.88837 57.7664 8.27213 58.0177 7.62957 58.0177H2.43058C1.78803 58.0177 1.17178 57.7664 0.717426 57.319C0.263068 56.8716 0.0078125 56.2647 0.0078125 55.632V10.4985C0.00933518 9.87462 0.258998 9.27613 0.703291 8.83133L9.18014 0.214692C9.73453 -0.124922 10.0523 -0.00142583 10.0523 0.384498Z" fill="#E79C88"/>
</g>
<defs>
<linearGradient id="paint0_linear" x1="29.3867" y1="28.0795" x2="29.3867" y2="10.6963" gradientUnits="userSpaceOnUse">
<stop offset="0.401042" stop-color="#EDEDED"/>
<stop offset="1" stop-color="#9F9D9D"/>
</linearGradient>
<linearGradient id="paint1_linear" x1="1.87251" y1="4.94277" x2="33.6464" y2="4.94277" gradientUnits="userSpaceOnUse">
<stop offset="0.14" stop-color="#9F9D9D"/>
<stop offset="0.53" stop-color="#EDEDED"/>
</linearGradient>
<linearGradient id="paint2_linear" x1="4.1326e-06" y1="28.6129" x2="16.1356" y2="28.6129" gradientUnits="userSpaceOnUse">
<stop offset="0.348958" stop-color="#9F9D9D"/>
<stop offset="0.74" stop-color="#EDEDED"/>
</linearGradient>
<linearGradient id="paint3_linear" x1="29.3867" y1="28.0871" x2="29.4498" y2="6.76219" gradientUnits="userSpaceOnUse">
<stop offset="0.34375" stop-color="#E2856B"/>
</linearGradient>
<linearGradient id="paint4_linear" x1="1.87251" y1="4.94404" x2="33.6465" y2="4.94404" gradientUnits="userSpaceOnUse">
<stop offset="0.25" stop-color="#E2856B"/>
<stop offset="0.6875" stop-color="#E79C88"/>
</linearGradient>
<linearGradient id="paint5_linear" x1="4.13162e-06" y1="28.6202" x2="27.3643" y2="28.5652" gradientUnits="userSpaceOnUse">
<stop offset="0.25" stop-color="#E2856B"/>
<stop offset="0.765625" stop-color="#E79C88"/>
</linearGradient>
<clipPath id="clip0">
<rect width="34" height="58" fill="white"/>
</clipPath>
</defs>
</svg>
