<svg width="216" height="58" viewBox="0 0 216 58" fill="none" xmlns="http://www.w3.org/2000/svg">
<path d="M58.332 21.296L56.232 20.932V19.196H60.46C60.852 19.196 61.4587 19.1773 62.28 19.14C63.3627 19.0653 64.3427 19.028 65.22 19.028C67.1613 19.028 68.692 19.2707 69.812 19.756C70.9507 20.2227 71.7533 20.904 72.22 21.8C72.7053 22.6773 72.948 23.7973 72.948 25.16C72.948 27.512 72.2107 29.3413 70.736 30.648C69.28 31.9547 67.2547 32.608 64.66 32.608C63.6333 32.608 62.896 32.58 62.448 32.524V38.04L66.2 38.32V40H56.12V38.32L58.332 38.04V21.296ZM62.42 30.732C62.8493 30.8253 63.5773 30.872 64.604 30.872C65.8547 30.872 66.8533 30.4427 67.6 29.584C68.3653 28.7067 68.748 27.26 68.748 25.244C68.748 23.676 68.4027 22.5373 67.712 21.828C67.04 21.1 66.004 20.736 64.604 20.736C64.0813 20.736 63.54 20.7733 62.98 20.848C62.7187 20.8853 62.532 20.904 62.42 20.904V30.732ZM74.3637 35.632C74.3637 33.9333 75.2131 32.6547 76.9117 31.796C78.6291 30.9373 80.8411 30.4987 83.5477 30.48V29.836C83.5477 29.0707 83.4637 28.4733 83.2957 28.044C83.1464 27.6147 82.8571 27.2973 82.4277 27.092C82.0171 26.868 81.4104 26.756 80.6077 26.756C79.6931 26.756 78.8717 26.8773 78.1437 27.12C77.4157 27.344 76.6597 27.6427 75.8757 28.016L75.0077 26.224C75.2877 25.9813 75.7544 25.692 76.4077 25.356C77.0797 25.02 77.8731 24.7307 78.7877 24.488C79.7024 24.2267 80.6451 24.096 81.6157 24.096C83.0531 24.096 84.1731 24.2827 84.9757 24.656C85.7971 25.0293 86.3851 25.6267 86.7397 26.448C87.0944 27.2693 87.2717 28.3707 87.2717 29.752V38.32H88.7837V39.888C88.4104 39.9813 87.8784 40.0747 87.1877 40.168C86.4971 40.2613 85.8904 40.308 85.3677 40.308C84.7331 40.308 84.3037 40.2147 84.0797 40.028C83.8744 39.8413 83.7717 39.4587 83.7717 38.88V38.124C83.2677 38.684 82.6144 39.188 81.8117 39.636C81.0091 40.084 80.1037 40.308 79.0957 40.308C78.2371 40.308 77.4437 40.1307 76.7157 39.776C76.0064 39.4027 75.4371 38.8707 75.0077 38.18C74.5784 37.4707 74.3637 36.6213 74.3637 35.632ZM80.8877 37.984C81.2797 37.984 81.7277 37.872 82.2317 37.648C82.7357 37.4053 83.1744 37.116 83.5477 36.78V32.188C81.8677 32.188 80.6077 32.4773 79.7677 33.056C78.9464 33.616 78.5357 34.344 78.5357 35.24C78.5357 36.136 78.7411 36.8173 79.1517 37.284C79.5811 37.7507 80.1597 37.984 80.8877 37.984ZM105.915 31.712C105.915 33.28 105.588 34.7173 104.935 36.024C104.3 37.3307 103.358 38.376 102.107 39.16C100.875 39.9253 99.4004 40.308 97.6831 40.308C97.3098 40.308 96.9178 40.2707 96.5071 40.196C96.1151 40.14 95.7978 40.0653 95.5551 39.972L95.6391 42.296V44.844L98.2431 45.18V46.776H89.9271V45.18L91.7471 44.844V27.092L89.9271 26.588V24.656L94.5471 24.068H94.6031L95.3031 24.628V26.196C95.7698 25.6173 96.4044 25.1133 97.2071 24.684C98.0098 24.2547 98.8871 24.04 99.8391 24.04C101.612 24.04 103.068 24.6747 104.207 25.944C105.346 27.1947 105.915 29.1173 105.915 31.712ZM98.3831 26.364C97.8231 26.364 97.2911 26.4853 96.7871 26.728C96.2831 26.9707 95.9004 27.2413 95.6391 27.54V37.928C95.7698 38.1147 96.0311 38.2733 96.4231 38.404C96.8338 38.5347 97.2818 38.6 97.7671 38.6C98.9804 38.6 99.9418 38.0773 100.651 37.032C101.379 35.968 101.743 34.3067 101.743 32.048C101.743 30.144 101.435 28.7253 100.819 27.792C100.203 26.84 99.3911 26.364 98.3831 26.364ZM115.161 40.308C112.697 40.308 110.858 39.5893 109.645 38.152C108.45 36.696 107.853 34.7173 107.853 32.216C107.853 30.536 108.161 29.08 108.777 27.848C109.411 26.616 110.298 25.6733 111.437 25.02C112.575 24.3667 113.891 24.04 115.385 24.04C117.251 24.04 118.689 24.5347 119.697 25.524C120.705 26.4947 121.227 27.8853 121.265 29.696C121.265 30.928 121.19 31.8427 121.041 32.44H111.941C112.015 34.1387 112.417 35.464 113.145 36.416C113.873 37.3493 114.909 37.816 116.253 37.816C116.981 37.816 117.727 37.6947 118.493 37.452C119.277 37.2093 119.893 36.92 120.341 36.584L121.041 38.124C120.537 38.6653 119.715 39.1693 118.577 39.636C117.457 40.084 116.318 40.308 115.161 40.308ZM117.345 30.76C117.382 30.2373 117.401 29.836 117.401 29.556C117.401 27.0733 116.57 25.832 114.909 25.832C113.994 25.832 113.285 26.196 112.781 26.924C112.277 27.652 111.997 28.9307 111.941 30.76H117.345ZM123.399 38.348L125.247 38.124V27.092L123.455 26.588V24.656L127.795 24.068H127.879L128.579 24.628V25.244L128.495 27.512H128.579C128.71 27.1387 129.018 26.6813 129.503 26.14C129.988 25.58 130.595 25.0947 131.323 24.684C132.07 24.2547 132.872 24.04 133.731 24.04C134.142 24.04 134.496 24.096 134.795 24.208V28.408C134.235 28.016 133.554 27.82 132.751 27.82C131.388 27.82 130.203 28.184 129.195 28.912V38.096L132.443 38.348V40H123.399V38.348ZM143.535 40.308C142.527 40.308 141.621 40.224 140.819 40.056C140.016 39.888 139.12 39.664 138.131 39.384C137.477 39.1973 137.039 39.0947 136.815 39.076L137.067 33.896H139.335L139.951 37.508C140.193 37.7693 140.623 38.0027 141.239 38.208C141.873 38.4133 142.592 38.516 143.395 38.516C144.645 38.516 145.579 38.2453 146.195 37.704C146.829 37.144 147.147 36.3693 147.147 35.38C147.147 34.7267 146.96 34.1667 146.587 33.7C146.213 33.2147 145.7 32.7853 145.047 32.412C144.393 32.02 143.497 31.572 142.359 31.068C140.809 30.3587 139.521 29.5187 138.495 28.548C137.487 27.5587 136.983 26.224 136.983 24.544C136.983 23.4987 137.253 22.556 137.795 21.716C138.336 20.8573 139.139 20.1853 140.203 19.7C141.285 19.196 142.601 18.944 144.151 18.944C145.065 18.944 145.868 19.0093 146.559 19.14C147.268 19.2707 148.033 19.448 148.855 19.672C149.34 19.8027 149.704 19.8867 149.947 19.924L149.779 24.824H147.539L146.951 21.38C146.783 21.212 146.447 21.0533 145.943 20.904C145.439 20.736 144.879 20.652 144.263 20.652C143.143 20.652 142.293 20.9133 141.715 21.436C141.155 21.94 140.875 22.6213 140.875 23.48C140.875 24.1707 141.08 24.768 141.491 25.272C141.92 25.776 142.433 26.2053 143.031 26.56C143.628 26.896 144.571 27.3813 145.859 28.016C146.904 28.52 147.8 29.0147 148.547 29.5C149.293 29.9853 149.937 30.62 150.479 31.404C151.02 32.1693 151.291 33.0747 151.291 34.12C151.291 35.1467 151.029 36.1267 150.507 37.06C150.003 37.9933 149.163 38.768 147.987 39.384C146.829 40 145.345 40.308 143.535 40.308ZM168.734 31.712C168.734 33.28 168.407 34.7173 167.754 36.024C167.119 37.3307 166.177 38.376 164.926 39.16C163.694 39.9253 162.219 40.308 160.502 40.308C160.129 40.308 159.737 40.2707 159.326 40.196C158.934 40.14 158.617 40.0653 158.374 39.972L158.458 42.296V44.844L161.062 45.18V46.776H152.746V45.18L154.566 44.844V27.092L152.746 26.588V24.656L157.366 24.068H157.422L158.122 24.628V26.196C158.589 25.6173 159.223 25.1133 160.026 24.684C160.829 24.2547 161.706 24.04 162.658 24.04C164.431 24.04 165.887 24.6747 167.026 25.944C168.165 27.1947 168.734 29.1173 168.734 31.712ZM161.202 26.364C160.642 26.364 160.11 26.4853 159.606 26.728C159.102 26.9707 158.719 27.2413 158.458 27.54V37.928C158.589 38.1147 158.85 38.2733 159.242 38.404C159.653 38.5347 160.101 38.6 160.586 38.6C161.799 38.6 162.761 38.0773 163.47 37.032C164.198 35.968 164.562 34.3067 164.562 32.048C164.562 30.144 164.254 28.7253 163.638 27.792C163.022 26.84 162.21 26.364 161.202 26.364ZM170.615 35.632C170.615 33.9333 171.465 32.6547 173.163 31.796C174.881 30.9373 177.093 30.4987 179.799 30.48V29.836C179.799 29.0707 179.715 28.4733 179.547 28.044C179.398 27.6147 179.109 27.2973 178.679 27.092C178.269 26.868 177.662 26.756 176.859 26.756C175.945 26.756 175.123 26.8773 174.395 27.12C173.667 27.344 172.911 27.6427 172.127 28.016L171.259 26.224C171.539 25.9813 172.006 25.692 172.659 25.356C173.331 25.02 174.125 24.7307 175.039 24.488C175.954 24.2267 176.897 24.096 177.867 24.096C179.305 24.096 180.425 24.2827 181.227 24.656C182.049 25.0293 182.637 25.6267 182.991 26.448C183.346 27.2693 183.523 28.3707 183.523 29.752V38.32H185.035V39.888C184.662 39.9813 184.13 40.0747 183.439 40.168C182.749 40.2613 182.142 40.308 181.619 40.308C180.985 40.308 180.555 40.2147 180.331 40.028C180.126 39.8413 180.023 39.4587 180.023 38.88V38.124C179.519 38.684 178.866 39.188 178.063 39.636C177.261 40.084 176.355 40.308 175.347 40.308C174.489 40.308 173.695 40.1307 172.967 39.776C172.258 39.4027 171.689 38.8707 171.259 38.18C170.83 37.4707 170.615 36.6213 170.615 35.632ZM177.139 37.984C177.531 37.984 177.979 37.872 178.483 37.648C178.987 37.4053 179.426 37.116 179.799 36.78V32.188C178.119 32.188 176.859 32.4773 176.019 33.056C175.198 33.616 174.787 34.344 174.787 35.24C174.787 36.136 174.993 36.8173 175.403 37.284C175.833 37.7507 176.411 37.984 177.139 37.984ZM186.319 32.3C186.319 30.6947 186.636 29.2667 187.271 28.016C187.924 26.7653 188.848 25.7947 190.043 25.104C191.256 24.3947 192.665 24.04 194.271 24.04C195.017 24.04 195.661 24.096 196.203 24.208C196.744 24.32 197.351 24.4693 198.023 24.656L198.835 24.88L198.667 29.668H196.231L195.531 26.588C195.419 26.1027 194.868 25.86 193.879 25.86C192.833 25.86 192.012 26.3173 191.415 27.232C190.836 28.1467 190.537 29.5747 190.519 31.516C190.519 33.5693 190.873 35.1467 191.583 36.248C192.292 37.3307 193.235 37.872 194.411 37.872C195.829 37.872 197.136 37.4893 198.331 36.724L198.975 38.18C198.489 38.7027 197.743 39.188 196.735 39.636C195.745 40.084 194.672 40.308 193.515 40.308C191.125 40.308 189.324 39.5707 188.111 38.096C186.916 36.6213 186.319 34.6893 186.319 32.3ZM208.158 40.308C205.694 40.308 203.856 39.5893 202.642 38.152C201.448 36.696 200.85 34.7173 200.85 32.216C200.85 30.536 201.158 29.08 201.774 27.848C202.409 26.616 203.296 25.6733 204.434 25.02C205.573 24.3667 206.889 24.04 208.382 24.04C210.249 24.04 211.686 24.5347 212.694 25.524C213.702 26.4947 214.225 27.8853 214.262 29.696C214.262 30.928 214.188 31.8427 214.038 32.44H204.938C205.013 34.1387 205.414 35.464 206.142 36.416C206.87 37.3493 207.906 37.816 209.25 37.816C209.978 37.816 210.725 37.6947 211.49 37.452C212.274 37.2093 212.89 36.92 213.338 36.584L214.038 38.124C213.534 38.6653 212.713 39.1693 211.574 39.636C210.454 40.084 209.316 40.308 208.158 40.308ZM210.342 30.76C210.38 30.2373 210.398 29.836 210.398 29.556C210.398 27.0733 209.568 25.832 207.906 25.832C206.992 25.832 206.282 26.196 205.778 26.924C205.274 27.652 204.994 28.9307 204.938 30.76H210.342Z" fill="#625B5B"/>
<g clip-path="url(#clip0)">
<path d="M33.9999 10.5953V22.9599C34.0029 23.4106 33.8335 23.8458 33.5254 24.1791L27.5055 30.5852C26.4936 31.6599 24.7749 30.8925 24.7749 29.3674V4.14432C24.7749 2.61505 26.5008 1.84901 27.5098 2.93072L33.5311 9.38452C33.8343 9.71704 34.0013 10.1485 33.9999 10.5953Z" fill="url(#paint0_linear)"/>
<path d="M31.1196 9.88413H3.11668C2.01075 9.88413 1.45637 8.45167 2.23878 7.61268L8.97835 0.390034C9.08921 0.268275 9.2247 0.170678 9.37613 0.103509C9.52756 0.0363404 9.69158 0.00108298 9.85767 0L24.3786 0C24.5444 0.00144991 24.7081 0.0368787 24.8593 0.10403C25.0104 0.171182 25.1457 0.268584 25.2565 0.390034L33.5723 9.42255C33.6068 9.4627 33.6291 9.51158 33.6368 9.56363C33.6444 9.61567 33.637 9.66879 33.6155 9.71691C33.5939 9.76503 33.5591 9.80622 33.5149 9.83578C33.4708 9.86535 33.419 9.8821 33.3657 9.88413H31.1196Z" fill="url(#paint1_linear)"/>
<path d="M23.5764 33.4842L2.93298 33.5515C1.31543 33.5557 4.1326e-06 32.1527 4.1326e-06 30.4186V26.8087C4.1326e-06 26.4243 4.1326e-06 26.117 4.1326e-06 25.8575C-0.000558027 25.5711 0.0562382 25.2875 0.167142 25.0229C0.278046 24.7582 0.44088 24.5177 0.646325 24.315C0.85177 24.1124 1.09579 23.9516 1.36442 23.8419C1.63306 23.7322 1.92103 23.6758 2.21185 23.6758H33.1634C33.2346 23.6754 33.3042 23.6956 33.3639 23.7337C33.4235 23.7719 33.4706 23.8263 33.4992 23.8904C33.5278 23.9545 33.5368 24.0255 33.525 24.0945C33.5132 24.1636 33.4811 24.2277 33.4328 24.2791L28.9606 29.0324L25.6258 32.5764C25.3664 32.8588 25.0504 33.0853 24.6976 33.2415C24.3449 33.3978 23.9632 33.4804 23.5764 33.4842Z" fill="url(#paint2_linear)"/>
<path d="M10.0528 0.385869V55.6192C10.0528 56.2517 9.79756 56.8584 9.3432 57.3057C8.88885 57.753 8.2726 58.0042 7.63005 58.0042H2.43107C1.78851 58.0042 1.17227 57.753 0.717913 57.3057C0.263556 56.8584 0.00830078 56.2517 0.00830078 55.6192V10.4973C0.00982346 9.87355 0.259486 9.27521 0.703778 8.83052L9.18062 0.216106C9.73501 -0.12342 10.0528 4.36604e-05 10.0528 0.385869Z" fill="#EDEDED"/>
<path d="M34 10.5984V22.9662C34.0029 23.417 33.8335 23.8523 33.5254 24.1857L27.5055 30.5935C26.4936 31.6684 24.7749 30.9008 24.7749 29.3754V4.14574C24.7749 2.61607 26.5008 1.84984 27.5098 2.93183L33.5311 9.38729C33.8343 9.71989 34.0014 10.1514 34 10.5984Z" fill="url(#paint3_linear)"/>
<path d="M31.1196 9.88668H3.11668C2.01075 9.88668 1.45637 8.45385 2.23878 7.61464L8.97836 0.390134C9.08922 0.268344 9.22471 0.170722 9.37614 0.103536C9.52757 0.0363498 9.69159 0.00108326 9.85768 0L24.3786 0C24.5445 0.00145029 24.7081 0.0368882 24.8593 0.104057C25.0104 0.171226 25.1457 0.268653 25.2565 0.390134L33.5723 9.42497C33.6068 9.46514 33.6292 9.51403 33.6368 9.56609C33.6444 9.61815 33.6371 9.67128 33.6155 9.71941C33.594 9.76754 33.5591 9.80874 33.515 9.83832C33.4708 9.86789 33.4191 9.88465 33.3657 9.88668H31.1196Z" fill="url(#paint4_linear)"/>
<path d="M23.5764 33.4927L2.93298 33.5601C1.31543 33.5643 4.13261e-06 32.1609 4.13261e-06 30.4264V26.8155C4.13261e-06 26.431 4.13261e-06 26.1236 4.13261e-06 25.864C-0.000558027 25.5777 0.0562383 25.294 0.167142 25.0292C0.278046 24.7645 0.440881 24.5239 0.646326 24.3212C0.851771 24.1185 1.09579 23.9577 1.36443 23.848C1.63306 23.7383 1.92103 23.6818 2.21185 23.6818H33.1635C33.2346 23.6815 33.3049 23.6818 33.6209 23.6818C33.6841 23.6818 33.7818 23.6756 33.8104 23.7398C33.8391 23.8039 33.7472 23.8886 33.6841 23.9518C33.6841 24.015 33.4812 24.2339 33.4328 24.2852L28.9607 29.0398L25.6258 32.5847C25.3664 32.8672 25.0504 33.0937 24.6977 33.25C24.3449 33.4063 23.9632 33.4889 23.5764 33.4927Z" fill="url(#paint5_linear)"/>
<path d="M10.0523 0.384498V55.632C10.0523 56.2647 9.79709 56.8716 9.34273 57.319C8.88837 57.7664 8.27213 58.0177 7.62957 58.0177H2.43058C1.78803 58.0177 1.17178 57.7664 0.717426 57.319C0.263068 56.8716 0.0078125 56.2647 0.0078125 55.632V10.4985C0.00933518 9.87462 0.258998 9.27613 0.703291 8.83133L9.18014 0.214692C9.73453 -0.124922 10.0523 -0.00142583 10.0523 0.384498Z" fill="#E79C88"/>
</g>
<defs>
<linearGradient id="paint0_linear" x1="29.3867" y1="28.0795" x2="29.3867" y2="10.6963" gradientUnits="userSpaceOnUse">
<stop offset="0.401042" stop-color="#EDEDED"/>
<stop offset="1" stop-color="#9F9D9D"/>
</linearGradient>
<linearGradient id="paint1_linear" x1="1.87251" y1="4.94277" x2="33.6464" y2="4.94277" gradientUnits="userSpaceOnUse">
<stop offset="0.14" stop-color="#9F9D9D"/>
<stop offset="0.53" stop-color="#EDEDED"/>
</linearGradient>
<linearGradient id="paint2_linear" x1="4.1326e-06" y1="28.6129" x2="16.1356" y2="28.6129" gradientUnits="userSpaceOnUse">
<stop offset="0.348958" stop-color="#9F9D9D"/>
<stop offset="0.74" stop-color="#EDEDED"/>
</linearGradient>
<linearGradient id="paint3_linear" x1="29.3867" y1="28.0871" x2="29.4498" y2="6.76219" gradientUnits="userSpaceOnUse">
<stop offset="0.34375" stop-color="#E2856B"/>
</linearGradient>
<linearGradient id="paint4_linear" x1="1.87251" y1="4.94404" x2="33.6465" y2="4.94404" gradientUnits="userSpaceOnUse">
<stop offset="0.25" stop-color="#E2856B"/>
<stop offset="0.6875" stop-color="#E79C88"/>
</linearGradient>
<linearGradient id="paint5_linear" x1="4.13162e-06" y1="28.6202" x2="27.3643" y2="28.5652" gradientUnits="userSpaceOnUse">
<stop offset="0.25" stop-color="#E2856B"/>
<stop offset="0.765625" stop-color="#E79C88"/>
</linearGradient>
<clipPath id="clip0">
<rect width="34" height="58" fill="white"/>
</clipPath>
</defs>
</svg>
