<svg xmlns="http://www.w3.org/2000/svg" width="335.001" height="104" viewBox="0 0 335.001 104">
  <g id="YODAE-logo-small" transform="translate(-54.999 -146)">
    <g id="Logo" transform="translate(-166.484 899.042)">
      <path id="Path_50" data-name="Path 50" d="M423.974-544.909l-6.528-6.442a29.387,29.387,0,0,0-2.644-41.111,33.6,33.6,0,0,1-32.28,42.763c-.428,0,2.156.015-8.022-.048a29.271,29.271,0,0,0,20.721,8.561l27.292-.14A2.1,2.1,0,0,0,423.974-544.909Z" transform="translate(-131.662 -124.403)" fill="#624ce0"/>
      <path id="Path_51" data-name="Path 51" d="M280.236-707.665a29.409,29.409,0,0,0-29.375-29.377,29.409,29.409,0,0,0-29.375,29.377,29.161,29.161,0,0,0,7.15,19.212l-6.528,6.442a2.1,2.1,0,0,0,1.46,3.583l27.292.14A29.409,29.409,0,0,0,280.236-707.665Zm-18.109-6.489a1.622,1.622,0,0,1,1.622-1.622,1.622,1.622,0,0,1,1.622,1.622v12.977a1.622,1.622,0,0,1-1.622,1.622,1.622,1.622,0,0,1-1.622-1.622Zm-6.489,3.244a1.622,1.622,0,0,1,1.622-1.622,1.622,1.622,0,0,1,1.622,1.622v6.489a1.622,1.622,0,0,1-1.622,1.622,1.622,1.622,0,0,1-1.622-1.622ZM239.5-704.421a1.622,1.622,0,0,1-1.622,1.622,1.622,1.622,0,0,1-1.622-1.622v-6.489a1.622,1.622,0,0,1,1.622-1.622,1.622,1.622,0,0,1,1.622,1.622Zm6.4,9.733a1.622,1.622,0,0,1-1.622,1.622,1.622,1.622,0,0,1-1.622-1.622v-25.954a1.622,1.622,0,0,1,1.622-1.622,1.622,1.622,0,0,1,1.622,1.622Zm3.244-3.244V-717.4a1.622,1.622,0,0,1,1.622-1.622,1.622,1.622,0,0,1,1.622,1.622v19.466a1.622,1.622,0,0,1-1.622,1.622A1.622,1.622,0,0,1,249.149-697.932Z" transform="translate(0)" fill="#2329d6"/>
    </g>
    <text id="YODAE" transform="translate(150 228)" fill="#2329d6" font-size="80" font-family="IBMPlexMono-SemiBold, IBM Plex Mono" font-weight="600"><tspan x="0" y="0">YODAE</tspan></text>
  </g>
</svg>
