<svg xmlns="http://www.w3.org/2000/svg" width="410" height="131" viewBox="0 0 410 131">
  <g id="yodae-logo" transform="translate(6886 -6920)">
    <text id="YODAE" transform="translate(-6776 7023)" fill="#2329d6" font-size="100" font-family="IBMPlexMono-SemiBold, IBM Plex Mono" font-weight="600"><tspan x="0" y="0">YODAE</tspan></text>
    <g id="Group_8" data-name="Group 8" transform="translate(-7107.484 7680.39)">
      <path id="Path_50" data-name="Path 50" d="M431.382-537.788l-7.505-7.407a33.787,33.787,0,0,0-3.04-47.267A38.635,38.635,0,0,1,383.724-543.3c-.492,0,2.479.017-9.224-.055a33.655,33.655,0,0,0,23.824,9.842l31.379-.16A2.409,2.409,0,0,0,431.382-537.788Z" transform="translate(-128.464 -121.382)" fill="#624ce0"/>
      <path id="Path_51" data-name="Path 51" d="M289.033-703.266a33.813,33.813,0,0,0-33.774-33.776,33.813,33.813,0,0,0-33.774,33.776,33.528,33.528,0,0,0,8.221,22.089l-7.505,7.406a2.409,2.409,0,0,0,1.679,4.12l31.378.161A33.813,33.813,0,0,0,289.033-703.266Zm-20.821-7.46a1.865,1.865,0,0,1,1.865-1.865,1.865,1.865,0,0,1,1.865,1.865v14.92a1.865,1.865,0,0,1-1.865,1.865,1.865,1.865,0,0,1-1.865-1.865Zm-7.46,3.73a1.865,1.865,0,0,1,1.865-1.865A1.865,1.865,0,0,1,264.482-707v7.46a1.865,1.865,0,0,1-1.865,1.865,1.865,1.865,0,0,1-1.865-1.865Zm-18.549,7.46a1.865,1.865,0,0,1-1.865,1.865,1.865,1.865,0,0,1-1.865-1.865V-707a1.865,1.865,0,0,1,1.865-1.865A1.865,1.865,0,0,1,242.2-707Zm7.358,11.19a1.865,1.865,0,0,1-1.865,1.865,1.865,1.865,0,0,1-1.865-1.865v-29.841a1.865,1.865,0,0,1,1.865-1.865,1.865,1.865,0,0,1,1.865,1.865Zm3.73-3.73v-22.381a1.865,1.865,0,0,1,1.865-1.865,1.865,1.865,0,0,1,1.865,1.865v22.381a1.865,1.865,0,0,1-1.865,1.865A1.865,1.865,0,0,1,253.292-692.076Z" transform="translate(0)" fill="#2329d6"/>
    </g>
  </g>
</svg>
