<svg width="33" height="33" viewBox="0 0 33 33" fill="none" xmlns="http://www.w3.org/2000/svg">
<path d="M23.8882 10.0916L23.9071 19.5009C23.9071 19.8026 23.7939 20.0666 23.6054 20.2551C23.4168 20.4437 23.1528 20.5568 22.8511 20.5568C22.2477 20.5568 21.7763 20.0854 21.7763 19.482L21.7575 12.6372L10.7455 23.6492C10.3306 24.0641 9.6518 24.0641 9.23696 23.6492C8.82213 23.2344 8.82213 22.5556 9.23696 22.1407L20.249 11.1287L13.4042 11.1099C12.8008 11.1099 12.3294 10.6385 12.3294 10.0351C12.3294 9.43168 12.8008 8.96028 13.4042 8.96028L22.8134 8.97913C23.4168 9.01684 23.9071 9.50711 23.8882 10.0916Z" fill="#FEFDFC"/>
</svg>
