<svg width="33" height="32" viewBox="0 0 33 32" fill="none" xmlns="http://www.w3.org/2000/svg">
<path d="M24.1501 9.58232L24.169 18.9915C24.169 19.2932 24.0558 19.5572 23.8673 19.7458C23.6787 19.9344 23.4147 20.0475 23.113 20.0475C22.5096 20.0475 22.0382 19.5761 22.0382 18.9727L22.0194 12.1279L11.0074 23.1399C10.5925 23.5548 9.9137 23.5548 9.49886 23.1399C9.08403 22.7251 9.08403 22.0463 9.49886 21.6314L20.5109 10.6194L13.6661 10.6006C13.0627 10.6006 12.5913 10.1292 12.5913 9.52576C12.5913 8.92236 13.0627 8.45095 13.6661 8.45095L23.0753 8.4698C23.6787 8.50752 24.169 8.99778 24.1501 9.58232Z" fill="#2D2F34"/>
</svg>
