<?xml version="1.0" standalone="no"?>
<!DOCTYPE svg PUBLIC "-//W3C//DTD SVG 20010904//EN"
 "http://www.w3.org/TR/2001/REC-SVG-20010904/DTD/svg10.dtd">
<svg version="1.0" xmlns="http://www.w3.org/2000/svg"
 width="512.000000pt" height="512.000000pt" viewBox="0 0 512.000000 512.000000"
 preserveAspectRatio="xMidYMid meet">
<metadata>
Created by potrace 1.11, written by Peter Selinger 2001-2013
</metadata>
<g transform="translate(0.000000,512.000000) scale(0.100000,-0.100000)"
fill="#000000" stroke="none">
<path d="M1838 4604 c-2 -1 -32 -5 -68 -8 -36 -3 -72 -8 -80 -10 -8 -3 -33 -7
-55 -11 -62 -9 -214 -51 -270 -75 -235 -99 -394 -207 -576 -389 -286 -287
-473 -615 -568 -1000 -16 -64 -33 -138 -37 -166 -4 -27 -8 -55 -10 -62 -18
-91 -25 -467 -11 -623 23 -261 91 -526 191 -743 35 -74 134 -243 159 -269 7
-7 25 -31 41 -53 74 -100 261 -268 388 -348 283 -179 587 -261 963 -261 398 0
715 97 994 302 68 50 300 274 364 349 59 71 197 263 250 348 31 50 61 95 67
102 14 17 13 30 -5 37 -9 3 -40 -12 -76 -39 -162 -119 -447 -224 -720 -264
-149 -22 -378 -21 -484 3 -336 74 -542 268 -680 641 -66 178 -114 438 -111
605 l1 65 1000 0 1000 0 0 300 c-1 261 -8 446 -20 465 -2 3 -6 26 -10 50 -28
197 -144 459 -259 587 -116 127 -231 216 -371 286 -84 42 -215 94 -259 103
-10 2 -33 8 -50 13 -65 21 -196 43 -336 58 -50 5 -358 11 -362 7z m278 -264
c102 -50 173 -182 214 -399 9 -46 12 -74 25 -211 3 -34 7 -529 5 -666 0 -18
-12 -23 -97 -38 -54 -10 -107 -20 -118 -23 -11 -2 -31 -6 -45 -9 -14 -2 -45
-9 -70 -14 -25 -5 -108 -21 -185 -35 -77 -14 -185 -35 -239 -45 -63 -13 -102
-17 -106 -10 -7 11 -5 160 4 392 9 209 12 240 36 423 39 293 106 484 201 572
32 29 117 71 165 81 63 14 161 5 210 -18z"/>
<path d="M4325 1675 c-5 -2 -37 -11 -70 -21 -160 -48 -306 -201 -350 -369 -16
-63 -21 -199 -10 -250 53 -229 218 -389 438 -423 183 -29 364 28 491 154 97
97 145 203 152 339 8 164 -40 296 -149 407 -115 116 -214 159 -382 163 -60 2
-114 2 -120 0z"/>
</g>
</svg>
