<?xml version="1.0" standalone="no"?>
<!DOCTYPE svg PUBLIC "-//W3C//DTD SVG 20010904//EN"
 "http://www.w3.org/TR/2001/REC-SVG-20010904/DTD/svg10.dtd">
<svg version="1.0" xmlns="http://www.w3.org/2000/svg"
 width="261.000000pt" height="261.000000pt" viewBox="0 0 261.000000 261.000000"
 preserveAspectRatio="xMidYMid meet">
<metadata>
Created by potrace 1.14, written by Peter Selinger 2001-2017
</metadata>
<g transform="translate(0.000000,261.000000) scale(0.100000,-0.100000)"
fill="#000000" stroke="none">
<path d="M1188 2605 c-2 -2 -27 -6 -56 -9 -29 -3 -71 -10 -95 -17 -23 -6 -51
-13 -61 -15 -37 -7 -151 -47 -171 -60 -11 -7 -23 -13 -27 -14 -29 -4 -68 -24
-68 -36 0 -8 -6 -11 -15 -7 -9 3 -23 -1 -33 -9 -9 -7 -29 -20 -44 -28 -16 -7
-28 -17 -28 -22 0 -4 -7 -8 -15 -8 -8 0 -15 -4 -15 -10 0 -5 -5 -10 -12 -10
-6 0 -18 -7 -27 -15 -9 -8 -29 -26 -46 -41 -111 -96 -255 -261 -255 -292 0 -7
-4 -12 -10 -12 -11 0 -120 -215 -120 -239 0 -9 -4 -21 -8 -26 -8 -9 -44 -144
-56 -210 -18 -96 -24 -275 -11 -355 3 -19 7 -53 10 -75 9 -64 45 -199 57 -206
5 -3 9 -10 8 -15 -3 -20 24 -83 33 -77 6 3 7 1 3 -6 -4 -6 4 -35 19 -64 59
-121 203 -316 227 -309 5 1 7 -2 4 -7 -9 -13 131 -134 145 -125 7 4 9 3 5 -4
-8 -14 111 -92 223 -144 47 -23 93 -44 102 -48 49 -24 242 -67 334 -75 155
-14 369 4 393 33 7 10 10 11 6 3 -7 -15 26 -10 106 16 102 33 130 46 130 62 0
11 3 12 8 4 11 -18 115 34 107 54 -4 13 -3 13 9 4 11 -9 18 -8 32 6 10 10 18
16 19 13 2 -3 15 5 31 17 105 78 130 98 160 125 18 17 31 35 27 41 -3 6 -1 7
4 4 13 -8 46 27 36 38 -5 4 -3 5 4 1 14 -8 45 33 36 47 -3 6 -2 7 4 4 8 -5 43
25 43 38 0 2 11 16 25 31 14 15 23 34 20 41 -2 8 -1 11 4 8 5 -3 12 4 16 15 3
11 11 20 17 20 6 0 8 9 5 20 -3 11 -1 18 4 15 6 -4 79 125 78 138 0 1 4 15 10
30 6 16 8 33 5 39 -4 7 -2 8 4 4 8 -5 14 6 18 31 3 21 5 42 4 47 -1 5 3 12 8
15 11 7 34 130 26 142 -3 5 -1 9 4 9 14 0 24 209 10 227 -5 7 -5 14 2 18 6 3
8 10 6 14 -3 3 -7 34 -11 66 -3 33 -8 71 -11 85 -2 14 -7 38 -10 54 -5 27 -36
130 -51 166 -3 8 -7 21 -9 28 -6 32 -83 174 -138 257 -68 101 -195 233 -301
312 -79 60 -248 148 -345 181 -65 22 -159 45 -235 57 -42 7 -301 15 -307 10z
m-1018 -1679 c0 -2 -8 -10 -17 -17 -16 -13 -17 -12 -4 4 13 16 21 21 21 13z
m2254 -214 c3 -5 -1 -9 -9 -9 -8 0 -12 4 -9 9 3 4 7 8 9 8 2 0 6 -4 9 -8z
m-61 -77 c-3 -9 -8 -14 -10 -11 -3 3 -2 9 2 15 9 16 15 13 8 -4z m-160 -20
c-3 -9 -8 -14 -10 -11 -3 3 -2 9 2 15 9 16 15 13 8 -4z m-1108 -125 c-3 -5
-12 -10 -18 -10 -7 0 -6 4 3 10 19 12 23 12 15 0z m1120 0 c-3 -5 -12 -10 -18
-10 -7 0 -6 4 3 10 19 12 23 12 15 0z m19 -58 c3 -5 -1 -9 -9 -9 -8 0 -12 4
-9 9 3 4 7 8 9 8 2 0 6 -4 9 -8z m-94 -18 c0 -8 -19 -13 -24 -6 -3 5 1 9 9 9
8 0 15 -2 15 -3z m-30 -100 c0 -8 -19 -13 -24 -6 -3 5 1 9 9 9 8 0 15 -2 15
-3z m-663 -29 c0 -8 -4 -12 -9 -9 -5 3 -6 10 -3 15 9 13 12 11 12 -6z m118
-114 c3 -5 2 -12 -3 -15 -5 -3 -9 1 -9 9 0 17 3 19 12 6z"/>
</g>
</svg>
